<?xml version="1.0" standalone="no"?>
<!DOCTYPE svg PUBLIC "-//W3C//DTD SVG 1.1//EN" "http://www.w3.org/Graphics/SVG/1.1/DTD/svg11.dtd" >
<svg xmlns="http://www.w3.org/2000/svg">
<metadata></metadata>
<defs>
<font id="can_nongaorregular" horiz-adv-x="0" >
<font-face units-per-em="2048" ascent="1638" descent="-410" />
<missing-glyph horiz-adv-x="690" />
<glyph unicode="&#x3b;&#x3b;For&#x20;Education&#x20;Used&#x20;Only&#x3b;&#x3b;" horiz-adv-x="1243" d="M109 544q0 82 14 162t40 150q45 120 118 193t166 98q48 17 99 24t100.5 6t96 -10.5t86.5 -25.5q59 -24 107 -68t84.5 -100.5t63 -121.5t41 -131t18.5 -130t-3 -117q-9 -70 -40 -135.5t-79 -122t-111.5 -101t-138.5 -72.5q-69 -26 -138.5 -34.5t-135 1t-125 36 t-109.5 70.5q-40 35 -69 82.5t-48 103.5t-28 118t-9 125zM195 550q0 -59 8 -114t24 -103.5t39 -87.5t53 -65q41 -36 90 -57.5t103.5 -29t112.5 -0.5t116 29q64 24 118 61.5t95 85t67 102t34 113.5q6 46 2.5 100.5t-16 112t-34 114.5t-52.5 106t-70.5 86.5t-88.5 57.5 q-61 26 -129 29.5t-133 -9.5v-4q-20 0 -37 -6t-34 -11q-22 -8 -43 -17t-38 -23q-27 -20 -49 -44.5t-39 -50.5t-30 -51.5t-21 -47.5q-24 -66 -36 -136.5t-12 -139.5zM295 461q-2 46 10 98t34 103t53 98t68 84q50 49 104.5 73.5t111.5 22.5q5 0 9.5 -0.5t9.5 -1.5q-2 20 -4 39 t-2 38q0 13 9 22t22 9t22 -9t9 -22q0 -24 2.5 -48.5t5.5 -49.5q5 -38 8 -76t-3 -75q-2 -12 -11 -19.5t-21 -6.5t-20.5 10t-8.5 21q0 8 0.5 16.5t0.5 16.5q1 11 1.5 22.5t-0.5 21.5q-2 17 -7 24q-4 4 -11 5t-13 2q-27 1 -52 -6t-46.5 -18.5t-40 -26t-32.5 -28.5 q-32 -32 -59.5 -74t-47.5 -87t-30.5 -90.5t-9.5 -85.5q1 -21 5 -53.5t16 -67t34 -65.5t59 -48q25 -12 62 -12.5t76 7.5t74 24.5t58 39.5q9 9 21.5 9t21.5 -9t9 -21.5t-9 -22.5q-30 -29 -73.5 -50t-91 -31t-94 -8t-80.5 18q-47 22 -76 58t-45 77t-21.5 81.5t-6.5 71.5z" />
<glyph unicode="&#x3b;&#x3b;Registered&#x3b;&#x3b;" horiz-adv-x="1206" d="M90 548q0 82 14 162t40 150q45 119 118 192.5t166 98.5q48 17 98.5 24t100 5.5t96 -11t86.5 -25.5q59 -24 107 -68t85 -100.5t63 -121.5t41 -131t18.5 -129.5t-3.5 -116.5q-9 -70 -40 -135.5t-79 -122t-111 -101t-138 -72.5q-70 -27 -139.5 -35t-134.5 1.5t-125 36 t-110 69.5q-40 35 -69 82.5t-47.5 103.5t-27.5 118t-9 126zM176 553q0 -58 8 -113.5t24 -103.5t39 -87.5t53 -65.5q41 -35 90 -56.5t103 -29t112 -0.5t116 29q64 24 118 61.5t95 85t67 102t34 113.5q6 45 3 100t-15.5 112.5t-34.5 114t-52.5 105.5t-70.5 87t-88 58 q-62 25 -129.5 28.5t-132.5 -8.5v-4q-20 0 -37.5 -6t-34.5 -11q-22 -8 -43 -17.5t-38 -22.5q-27 -20 -48.5 -44.5t-39 -50.5t-30 -51.5t-20.5 -47.5q-25 -66 -36.5 -136.5t-11.5 -140.5zM296 845q1 36 21 67t51 55q-2 12 4.5 22.5t19.5 13.5q15 3 24 -6q20 11 39.5 17 t37.5 8q69 10 134.5 -3t113.5 -46q65 -45 76 -126q6 -45 -8 -90.5t-45 -81.5q-33 -38 -81.5 -57.5t-103.5 -27.5q26 -17 48 -33.5t38 -30.5q10 -9 37.5 -36.5t58.5 -66t57.5 -83.5t35.5 -90q3 -13 -4 -23.5t-20 -12.5t-23.5 4.5t-12.5 19.5q-6 30 -23.5 62.5t-41.5 64.5 t-51.5 61.5t-53.5 53.5q-27 24 -63 48.5t-69 39.5q2 -17 3.5 -38t3.5 -44q3 -38 6.5 -78t7 -76.5t7 -66t6.5 -45.5q2 -13 -4.5 -23.5t-19.5 -13.5q-13 -2 -23.5 4.5t-12.5 19.5q-4 18 -7.5 48.5t-7 68t-7 78.5t-6.5 79q-3 32 -5.5 60.5t-4.5 48.5q-12 10 -10 25q0 8 5 15 l-5 33q-3 23 -7.5 52t-9.5 60t-10 62.5t-9 58.5q-24 -25 -25 -52q0 -13 -9 -22t-22 -8q-13 0 -22 9t-8 22zM437 938q5 -28 10.5 -62.5t11 -70.5t11 -70.5t9.5 -62.5l4 -27q34 1 68.5 4t65 11t57 21.5t44.5 34.5q22 26 32 58.5t6 64.5q-2 19 -12.5 42t-37.5 42 q-38 26 -93 36.5t-112 2.5q-14 -2 -30.5 -8t-33.5 -16z" />
<glyph unicode="&#x3b;&#x3b;Trademark&#x3b;&#x3b;" horiz-adv-x="1103" d="M33.5 1109.5q3.5 11.5 12.5 17.5q30 17 93.5 25t145.5 11q-3 13 5 26q7 9 16.5 9.5t17.5 -7.5q2 -3 5.5 -10t5.5 -17h78t82 -1h45q10 0 17 -8.5t7 -21.5q0 -12 -7 -20.5t-17 -8.5h-46q-26 1 -64 1h-83q6 -41 11.5 -93.5t10 -108.5t8 -110t6 -97.5t4 -72t1.5 -32.5 q0 -13 -6.5 -21.5t-17.5 -8.5q-10 0 -17 8.5t-7 21.5q0 19 -2 55.5t-5 83t-7 99.5t-9 103.5t-10 95.5t-9 76q-36 -1 -72 -3t-66.5 -5.5t-54.5 -9t-37 -13.5q-9 -5 -19 -1t-14 15q-5 11 -1.5 22.5zM619 587q1 23 2 59t1.5 78.5t0.5 88.5v89v105t1 65q1 2 1 5.5v5.5 q1 18 3.5 39.5t15.5 35.5q11 14 22.5 17t19.5 3q12 -1 21.5 -7.5t18 -15t14.5 -18.5t11 -17q8 -13 14 -26t12 -25l3 -8l7 -12q14 -29 27 -57.5t22 -59.5l1 -7q5 29 10.5 58t10 54.5t8.5 44.5t6 28q7 32 26.5 53.5t44.5 23.5q6 0 15 -1t19 -6t20.5 -16.5t18.5 -32.5 q26 -66 30.5 -135t3.5 -138v-22v-124v-125q0 -10 -7 -17t-17 -7t-17 7t-7 17v125v124v22q0 68 -4 131t-28 123q-10 29 -23 27q-8 -1 -16.5 -11.5t-11.5 -27.5l-8 -40t-10 -55.5t-11 -62.5t-10 -61.5t-7 -53t-3 -35.5q0 -11 -7 -17t-16 -7q-10 -2 -17 4.5t-9 16.5 q-3 29 -10 53.5t-14 50.5l-8 25q-8 28 -20 55.5t-26 53.5l-6 13l-4 7q-5 12 -11 24.5t-13 23.5q-11 18 -17.5 25t-8.5 9l-2 -2q-4 -5 -5.5 -20t-2.5 -26v-11q-2 -18 -1.5 -64t0.5 -104v-89.5t-0.5 -90t-1.5 -80t-3 -59.5q-1 -10 -8.5 -16.5t-17.5 -5.5q-11 1 -17 8.5 t-5 17.5z" />
<glyph unicode="&#x3b;&#x3b;Multiply&#x3b;&#x3b;" horiz-adv-x="964" d="M108.5 857.5q-2.5 13.5 5.5 24.5t21.5 13.5t24.5 -5.5l15 -9q109 -77 189 -135t134 -101l63 63l146 145l11 12q8 8 14.5 14t12.5 14q9 11 22 11.5t24 -8.5q11 -8 11.5 -22t-8.5 -24q-7 -9 -14.5 -16.5l-15.5 -15.5l-12 -10l-144 -146l-60 -58q14 -11 24 -21l18 -18 q12 -13 41 -38t62 -54q64 -57 106.5 -95.5t56.5 -58.5q8 -11 5.5 -24t-13.5 -22q-11 -8 -23.5 -5.5t-20.5 13.5q-7 9 -23.5 25t-38.5 36t-46 41.5t-46 40.5q-36 32 -64.5 57t-42.5 39q-6 8 -16 16.5t-24 20.5l-120 -120l-27 -28q-25 -24 -49 -49.5t-45 -52.5q-8 -10 -21 -12 t-24 7q-11 8 -12.5 21t6.5 24q23 29 47.5 56t50.5 53l27 27l115 116q-46 36 -121.5 91.5t-192.5 136.5l-14 9q-12 8 -14.5 21.5z" />
<glyph unicode="&#x3b;&#x3b;Divide&#x3b;&#x3b;" horiz-adv-x="1194" d="M144 578q5 17 20 24.5t32 2.5q61 -20 130 -29t142 -10.5t148 1.5t150 7q61 3 117.5 5.5t110.5 2.5q17 0 29 -12t12 -29t-12 -29t-29 -12q-53 0 -108 -2.5t-115 -5.5q-78 -4 -156.5 -7.5t-155 -1t-149.5 12t-140 31.5q-16 5 -23.5 20t-2.5 31zM430 266q0 23 8 46.5 t22 44.5t33 38.5t42 29.5q28 14 57 17q2 2 2.5 3t2.5 3q13 12 30 11.5t28 -13.5l13 -13l3 -3q12 -6 26 -14q21 -15 18 -41q13 -22 17.5 -49.5t-6.5 -63.5q-10 -34 -42 -65t-74 -48q-66 -26 -116 2q-32 19 -49 49t-15 66zM481 736q3 39 18 77q16 38 40.5 66.5t53.5 43.5 q45 23 90 10q47 -12 85 -62q36 -46 37 -94.5t-34 -90.5q-34 -43 -90 -60q-29 -8 -56.5 -7t-49.5 12q-9 4 -21 15q-6 -6 -15 -9q-17 -5 -31.5 3t-19.5 25q-10 32 -7 71zM512 264q-1 -27 23 -42q7 -5 19 -3.5t26 6.5q25 10 44.5 28t23.5 32q7 24 2 38.5t-25 35.5q-25 7 -53 -7 q-25 -14 -42.5 -38.5t-17.5 -49.5zM588 808q10 -8 14.5 -19.5t1.5 -23.5q-2 -7 -3.5 -16t-1 -17.5t3 -16t9.5 -10.5q17 -9 46.5 0.5t49.5 32.5q31 36 -4 83q-14 18 -26 25.5t-21.5 9t-16 -0.5t-10.5 -4q-23 -13 -42 -43z" />
<glyph unicode="&#x2018;&#x2018;" horiz-adv-x="655" d="M96 934q0 86 41 143.5t131 89.5q6 2 15 2q8 0 12 -3.5t4 -7.5q0 -15 -14 -23q-28 -15 -47.5 -27t-32.5 -24.5t-21.5 -26.5t-13.5 -33h18q18 0 34 -7t28.5 -19t20 -28.5t7.5 -35.5q0 -18 -7 -34.5t-19 -29t-28.5 -19.5t-35.5 -7q-39 0 -65.5 26.5t-26.5 63.5zM356 934 q0 86 41 143.5t131 89.5q6 2 15 2q16 0 16 -10v-4q0 -12 -14 -20q-28 -15 -47.5 -27t-32.5 -24.5t-21.5 -26.5t-13.5 -33h18q18 0 34.5 -7t29 -19t20 -28.5t7.5 -35.5q0 -18 -7.5 -34.5t-20 -29t-29 -19.5t-34.5 -7q-39 0 -65.5 26.5t-26.5 63.5z" />
<glyph unicode="&#x2019;&#x2019;" horiz-adv-x="655" d="M96 856q0 14 17 23q27 15 46 27t32 24t21 25.5t13 31.5h-16q-39 0 -65.5 26.5t-26.5 65.5q0 37 26.5 63.5t65.5 26.5q18 0 34 -7t28.5 -19.5t20 -29t7.5 -34.5q0 -88 -40 -144t-132 -89q-6 -2 -12 -2q-19 0 -19 12zM356 856q0 14 17 23q27 15 46 27t32 24t21 25.5 t13 31.5h-16q-39 0 -65.5 26.5t-26.5 65.5q0 37 26.5 63.5t65.5 26.5q18 0 34 -7t28.5 -19.5t20 -29t7.5 -34.5q0 -88 -40 -144t-132 -89q-6 -2 -12 -2q-19 0 -19 12z" />
<glyph unicode="&#xe24;&#xe32;" horiz-adv-x="1182" d="M74 677q-2 34 16 63t44 52.5t53.5 40t44.5 25.5q24 13 53 21t60 9t61 -6.5t56 -24.5q22 -15 39.5 -36t32 -45t26 -49t21.5 -48l3 -5q18 -41 27 -90.5t15 -96.5l7 -43q4 -25 6.5 -69t4 -98t2 -113t0 -113.5t-1 -99t-0.5 -70.5t-0.5 -51.5t-0.5 -50.5q0 -14 -9 -23t-23 -9 q-13 0 -22.5 9t-9.5 23q0 26 0.5 51.5t1.5 51.5q0 25 0.5 69.5t0.5 98t-0.5 111.5t-1.5 111t-3.5 96t-6.5 67l-6 44q-7 43 -15 89t-23 81l-3 5q-18 41 -41 84.5t-56 66.5q-17 11 -38 15.5t-43.5 3.5t-43.5 -6.5t-38 -14.5q-45 -24 -72 -45.5t-41 -41.5q16 2 31.5 3.5 t30.5 -3.5q25 -8 38.5 -25.5t22.5 -32.5l2 -4l2 -4q13 -21 19 -45.5t8 -51t0.5 -53.5t-2.5 -53q-1 -16 -1.5 -30t-0.5 -27q0 -5 -0.5 -13.5t-0.5 -19.5q-2 -17 -2 -33t-1 -32q10 2 15 2q19 0 40 -3.5t40.5 -11t35.5 -18.5t25 -25t12 -30.5t2 -34.5t-4.5 -35.5t-9.5 -32.5 q-3 -9 -9.5 -22.5t-16 -27.5t-23 -26t-31.5 -17q-28 -9 -47.5 -3.5t-30.5 14.5q-32 25 -45.5 77.5t-15.5 121.5q-13 16 -3 36l2 2q0 51 3 102q1 11 1 18v12q0 28 3 61q1 22 2 45.5t0 45.5t-5 41.5t-13 33.5l-6 9q-5 9 -11 18t-12 11t-18 0.5t-24 -3.5l-24 -4t-24 -1 t-20.5 9.5t-9.5 20.5zM297 228q3 -131 35 -157q2 -1 6.5 -2.5t15.5 1.5q8 2 19 16.5t20 37.5q9 26 9.5 48t-4.5 30q-2 4 -10.5 9t-20.5 9.5t-26 7.5t-29 3q-5 -1 -8.5 -1.5t-6.5 -1.5zM699 687q9 27 26.5 60t41.5 62.5t53.5 51t61.5 26.5q25 4 58 -7.5t65 -57.5 q27 -40 34 -85.5t11 -88.5q1 -13 1.5 -25.5t2.5 -24.5q4 -32 7 -84t4.5 -113t2.5 -126.5t1 -126.5t-0.5 -112t-0.5 -83l-1 -112q0 -14 -10 -24.5t-24 -10.5q-15 0 -25 10.5t-10 24.5l1 112q0 31 0.5 82t0.5 111t-1 125t-2.5 125.5t-4 111t-6.5 81.5q-2 14 -3 27t-3 27 q-2 38 -7.5 74.5t-24.5 65.5q-20 29 -35.5 32.5t-20.5 2.5q-19 -3 -38.5 -19t-37 -38.5t-31 -48t-20.5 -46.5q-5 -14 -17 -20.5t-26 -1.5q-14 4 -21 16.5t-2 26.5z" />
<glyph unicode="&#xe26;&#xe32;" horiz-adv-x="1321" d="M90 164q2 22 8.5 47.5t17.5 49.5t26.5 45.5t35.5 36.5q44 35 100 26q1 -1 1.5 -1t1.5 -1q1 11 1 20.5t1 20.5q2 39 2.5 77.5t-4 75t-16 70t-35.5 61.5q-2 3 -10.5 9.5t-16.5 11.5q-15 11 -33 24.5t-30.5 29t-16 33t8.5 37.5q19 30 51 46.5t71 23.5t81.5 7t82.5 -3 q70 -6 123 -41t92 -91.5t65 -130t42.5 -154.5t25 -165.5t11.5 -163.5t2.5 -149t-1.5 -121q-1 -26 -1 -49v-45q0 -13 -9.5 -22t-22.5 -9q-14 0 -23 9t-9 22q0 22 0.5 45.5t0.5 49.5q2 89 1 192.5t-10.5 207t-28.5 200.5t-53.5 173.5t-85.5 124t-124 53.5q-17 1 -48.5 3 t-65.5 -1t-64.5 -12t-45.5 -30q3 -5 9 -10.5t13.5 -11.5t15 -11t12.5 -9q14 -10 23.5 -17t16.5 -15q30 -35 45 -75.5t20.5 -82.5t4.5 -85.5t-3 -84.5q-3 -44 -3 -83q0 -16 1 -32.5t3 -33.5q5 -45 5 -90t-19 -90q-9 -22 -30.5 -39t-51.5 -25q-31 -8 -61 -5t-50 18 q-59 41 -50 139zM153 158q-4 -41 5 -58t19 -24q7 -5 22.5 -6.5t34.5 3.5q15 5 26 12.5t15 15.5q14 33 13.5 70.5t-4.5 78.5q-2 14 -2.5 28.5t-1.5 28.5q-8 -2 -13 -1q-28 5 -51 -13q-13 -11 -24 -26.5t-19 -34t-13 -38t-7 -36.5zM839 714q9 27 26.5 60t41.5 62.5t53.5 50.5 t61.5 26q25 4 58 -7.5t65 -57.5q27 -40 34 -85.5t11 -88.5q1 -13 2 -25.5t3 -24.5q4 -33 7 -84.5t4.5 -112.5t2 -126.5t0.5 -126.5t-0.5 -112t-0.5 -83l-1 -112q0 -14 -10 -24t-24 -10t-24.5 10t-10.5 24l1 113q0 31 0.5 82t0.5 111t-1 125t-2.5 125t-4 110.5t-6.5 81.5 q-2 14 -3 27t-2 27q-3 38 -8.5 75t-24.5 65q-10 15 -19 22.5t-16.5 10.5t-12.5 2.5t-8 -0.5q-19 -3 -38.5 -18.5t-37 -38t-31 -48t-20.5 -47.5q-5 -14 -17 -20.5t-26 -1.5t-21 17.5t-2 26.5z" />
<glyph unicode="&#xd;" horiz-adv-x="579" />
<glyph unicode=" "  horiz-adv-x="690" />
<glyph unicode="&#x09;" horiz-adv-x="690" />
<glyph unicode="&#xa0;" horiz-adv-x="690" />
<glyph unicode="!" horiz-adv-x="406" d="M58 117q0 40 23 83q5 8 9.5 15t9.5 14v1q0 14 10 24.5t24 10.5h1q30 24 62 31q13 3 25 -5q12 -7 15 -22v-7q0 -7 -2 -11q43 -13 61 -44q12 -20 12 -42q0 -27 -17 -59q-8 -15 -23 -31.5t-35 -30.5t-43 -22.5t-47 -6.5q-55 3 -77 59q-8 22 -8 43zM121 1094v19t1 13 q1 10 8 17q0 1 0.5 1t0.5 1q16 30 57 42q26 8 53 7t46 -12q9 -5 15.5 -13.5t11 -25t6.5 -43t1 -66.5q0 -26 -2.5 -66t-7 -88.5t-10.5 -103.5t-13 -110q-14 -99 -26.5 -155.5t-22.5 -84.5t-17 -35.5t-11 -9.5q-11 -5 -22.5 -2.5t-19.5 11.5q-15 19 -19.5 40.5t-4.5 43.5 q0 9 0.5 18t1.5 17v1q0 6 0.5 11.5t0.5 10.5v3q0 9 -1 30t-2.5 49t-3.5 61t-4 67q-7 124 -11.5 215.5t-4.5 136.5zM126 117q0 -11 3 -18q5 -12 9.5 -14t8.5 -2q10 -1 23 4.5t25 14t21.5 18t14.5 17.5q8 18 8 28q0 5 -1 7q-5 8 -23.5 15t-53.5 9l-10 -14t-10 -15 q-15 -27 -15 -50zM189 1096q0 -23 1.5 -63t4 -88t5 -99t5.5 -94v-6q2 -35 3.5 -65.5t3.5 -55.5q5 34 10.5 72t10.5 80q11 97 16 167t5 114q0 48 -5 66q-8 2 -19 1.5t-22 -3.5q-8 -3 -12 -5.5t-5 -3.5t-1 -1.5t-1 -1.5v-14z" />
<glyph unicode="&#x22;" horiz-adv-x="436" d="M69.5 1120.5q6.5 15.5 21.5 22.5q16 7 31.5 1t22.5 -22q18 -42 24.5 -90.5t9.5 -95.5q2 -17 3 -33.5t3 -31.5q2 -17 -8 -30t-27 -16q-17 -2 -30.5 8.5t-15.5 27.5t-3 34t-3 35q-4 44 -9 85.5t-19 73.5q-7 16 -0.5 31.5zM257 848v221q0 17 12 29t29 12t29 -12t12 -29v-221 q0 -17 -12 -29t-29 -12t-29 12t-12 29z" />
<glyph unicode="#" horiz-adv-x="1230" d="M41 684q-6 17 1.5 34t24.5 23q58 22 114.5 41t108.5 35q12 3 43.5 8.5t91.5 14.5v345q0 18 13 31t31 13q19 0 32 -13t13 -31v-331q51 8 108.5 17.5t116.5 20.5v38q0 19 -1.5 39.5t-3.5 43.5q-3 32 -5 64t0 62q2 18 15.5 30.5t31.5 10.5q19 -2 31 -15.5t10 -32.5 q-2 -25 0 -53.5t5 -57.5q2 -23 3.5 -46t1.5 -45v-21q80 16 145.5 32.5t100.5 33.5q17 8 33.5 2t24.5 -23t2 -34t-23 -25q-21 -10 -51 -20t-67 -19.5t-78.5 -18.5t-86.5 -18v-239q35 5 70.5 11.5t72.5 14.5q45 9 89.5 17t91.5 13q18 2 32 -9.5t16 -30.5q2 -18 -9.5 -32 t-30.5 -16q-43 -4 -84.5 -12t-86.5 -17q-39 -8 -79 -15.5t-82 -12.5v-75q0 -87 -7.5 -197.5t-37.5 -252.5q-4 -18 -19 -28t-33 -6t-28 19.5t-6 32.5q14 67 22.5 126.5t13 112.5t6 101t1.5 92v67q-45 -6 -103.5 -16.5t-121.5 -24.5v-584q0 -19 -13 -31.5t-32 -12.5 q-18 0 -31 12.5t-13 31.5v565q-41 -9 -78.5 -18.5t-68 -17.5t-52.5 -15t-32 -11q-17 -8 -33.5 -1.5t-24.5 23.5t-2 33.5t23 24.5q13 6 39 14t62 17.5t78.5 20t88.5 20.5v238q-39 -6 -70.5 -11.5t-39.5 -7.5q-51 -15 -105.5 -33.5t-111.5 -39.5q-17 -7 -33.5 0.5t-23.5 24.5z M514 532q64 14 123 24t102 15v231q-59 -11 -116.5 -20t-108.5 -17v-233z" />
<glyph unicode="$" horiz-adv-x="763" d="M58 233q0 19 12.5 31.5t31.5 13.5q18 0 31 -12.5t13 -30.5q1 -24 3.5 -41t8.5 -30q14 49 28 99t24 100l28 140q8 41 17 88t20 97q-29 18 -53 41t-38.5 54t-18 71t7.5 91q19 86 68 138.5t124 69.5q2 19 2 37v37v16q0 18 13 31t31 13t31 -13t13 -31v-16v-32.5t-1 -33.5 q8 0 17 -0.5t18 -1.5h4q5 32 8.5 58t3.5 38q0 18 13 31t31 13q19 0 31.5 -13t12.5 -31t-4.5 -51.5t-11.5 -74.5q30 -21 46 -50.5t23.5 -62t8.5 -64.5t1 -57q0 -18 -13 -31t-31 -13q-19 0 -32 13t-13 31q0 41 -2.5 70t-9.5 49q-8 -41 -15 -73.5t-12 -48.5 q-14 -49 -26.5 -97.5t-23.5 -98.5q4 -2 6 -2q2 -1 3 -1q97 -38 142.5 -111.5t45.5 -190.5q0 -56 -17 -110.5t-47.5 -102.5t-74 -87.5t-96.5 -66.5q-26 -14 -55.5 -20t-61.5 -7q-6 -31 -10 -62.5t-4 -65.5q0 -18 -12.5 -31t-31.5 -13q-18 0 -31 13t-13 31q0 38 4 72.5 t11 67.5l-27 9q-9 -35 -16.5 -69t-12.5 -69q-2 -18 -16.5 -29t-32.5 -9q-19 3 -29.5 17.5t-8.5 32.5q6 44 15.5 86t20.5 84q-42 35 -56 77t-15 94zM232 104q6 -3 12 -5l12 -4q2 9 4.5 17.5t4.5 17.5l5 18q13 46 22 92t17 95q7 40 14.5 80.5t17.5 82.5l29 123l2 10l2 10 q-5 2 -9 3.5t-9 3.5q-17 -88 -32 -163l-27 -139q-11 -53 -25.5 -104t-28.5 -102q-3 -10 -5.5 -19t-5.5 -17zM257 839.5q9 -33.5 36 -57.5q17 84 31.5 156.5t24.5 116.5q-69 -35 -90 -129q-11 -53 -2 -86.5zM345 87q28 3 56 16q41 21 75 52t59 69.5t38.5 81t13.5 85.5 q0 89 -30.5 139.5t-99.5 78.5q0 -2 -0.5 -3.5t-0.5 -3.5l-29 -125q-10 -39 -17 -78.5t-14 -78.5q-8 -48 -17.5 -97t-22.5 -98l-5 -18q-2 -5 -3 -10t-3 -10zM374 736l10 -4t11 -4q11 48 22.5 94.5t25.5 93.5q6 21 15.5 64t18.5 92q-9 1 -17.5 1h-16.5q0 -1 -0.5 -2t-0.5 -2 q-4 -15 -11 -48t-16 -77.5t-19.5 -98t-21.5 -109.5z" />
<glyph unicode="%" horiz-adv-x="843" d="M54.5 663.5q-0.5 31.5 6.5 63t19 58.5q16 36 39 60v3q-2 19 10 32.5t30 15.5q43 4 78.5 -8t62 -33t43.5 -49.5t24 -57.5t4.5 -59.5t-15 -59.5t-37 -53.5t-61.5 -39.5q-35 -14 -61.5 -15.5t-46.5 3t-34 13.5t-22 18q-20 21 -29.5 49t-10 59.5zM143 672.5 q0 -18.5 3.5 -33.5t11.5 -23q6 -6 14.5 -7.5t17.5 0t18.5 4t16.5 5.5q21 8 33.5 21t18.5 27.5t6.5 30.5t-2.5 30q-5 23 -20 42.5t-38 30.5q-3 -2 -6.5 -2h-6.5q-12 1 -25.5 -12.5t-24.5 -36.5q-8 -18 -12.5 -38t-4.5 -38.5zM197.5 46.5q-4.5 16.5 3.5 31.5q44 79 81.5 167 t69.5 181t61 189t56 191q25 85 48.5 164.5t49.5 156.5q5 17 20 24t32 2q16 -5 23.5 -20t2.5 -32q-26 -76 -49.5 -154.5t-47.5 -163.5q-28 -97 -57.5 -194.5t-62.5 -192.5t-71 -185.5t-84 -172.5q-8 -15 -24.5 -19.5t-31.5 3.5t-19.5 24.5zM470.5 354.5q-0.5 31.5 6.5 63 t19 58.5q16 36 39 60v3q-2 18 10 32t30 16q43 4 78.5 -8t62 -33t43.5 -49.5t24 -57.5t4.5 -59.5t-15 -59.5t-37 -53.5t-62.5 -39.5q-34 -14 -61 -16t-47 3t-34 14t-22 18q-20 21 -29 49t-9.5 59.5zM558.5 363.5q-0.5 -18.5 3 -33.5t11.5 -23q6 -6 14.5 -7.5t18 0t18.5 4 t16 5.5q42 17 53 48.5t4 60.5q-5 23 -20 42t-39 30q-4 -1 -13 -1q-11 1 -24.5 -12.5t-24.5 -36.5q-8 -18 -12.5 -38t-5 -38.5z" />
<glyph unicode="&#x26;" horiz-adv-x="1036" d="M66.5 226q-1.5 45 10 91t33 90t47.5 81q43 63 99 113t113 97q6 5 12 9.5t12 9.5q-17 31 -32 61.5t-27 62.5q-36 96 -27 169q11 92 88 148q27 20 57.5 29.5t61 9.5t60 -10.5t55.5 -30.5q51 -40 65 -101t-13 -124q-31 -72 -78.5 -127.5t-102.5 -103.5q17 -28 36 -56t38 -55 q12 -17 22 -31.5t18 -27.5q37 -57 70 -114q17 -28 34 -55.5t35 -55.5q12 11 24.5 23t26.5 24q16 16 33 31t34 32q13 11 30 10.5t28 -12.5q12 -13 11.5 -30t-13.5 -28q-18 -17 -34.5 -32t-32.5 -30t-31 -29t-29 -27q35 -48 73.5 -89t85.5 -73q14 -10 17 -26.5t-6 -30.5 q-10 -14 -26.5 -17.5t-30.5 6.5q-53 36 -95.5 80.5t-79.5 95.5q-42 -35 -85.5 -62t-94 -46t-111 -28.5t-137.5 -9.5q-51 0 -88.5 9.5t-64 25t-43 34t-25.5 36.5q-21 39 -22.5 84zM148.5 231.5q1.5 -29.5 12.5 -51.5q33 -61 149 -61q69 0 122 8t97.5 24.5t83.5 41t78 57.5 q-20 31 -39 62l-38 62q-35 59 -68 111q-17 24 -39 57q-17 23 -34.5 49.5t-36.5 55.5q-4 -3 -7.5 -6.5t-7.5 -6.5q-57 -46 -108 -91t-89 -101q-26 -37 -43 -74.5t-25.5 -72t-7 -64zM388.5 956q4.5 -41 23 -88t45.5 -96q47 42 85.5 88t63.5 103q9 22 10 41.5t-3.5 36t-14 29.5 t-20.5 22t-26.5 15.5t-33 8t-37 -4t-38.5 -19.5q-35 -25 -47 -60t-7.5 -76z" />
<glyph unicode="'" horiz-adv-x="218" d="M64 841v221q0 17 12 29t29 12t29 -12t12 -29v-221q0 -17 -12 -29t-29 -12t-29 12t-12 29z" />
<glyph unicode="(" horiz-adv-x="430" d="M88.5 353q3.5 92 21 185t46.5 182t63 166t69 137.5t66 97.5q12 14 30 15.5t32 -9.5q14 -12 16 -30.5t-10 -32.5q-25 -30 -56.5 -84t-62.5 -124.5t-59 -153t-45.5 -169t-21.5 -172.5t12 -164q39 -190 199 -270q17 -8 22.5 -25t-2.5 -34q-8 -16 -25 -21.5t-34 2.5 q-199 98 -247 329q-17 83 -13.5 175z" />
<glyph unicode=")" horiz-adv-x="472" d="M-0.5 -173.5q2.5 18.5 17.5 29.5q88 66 145 152t87 184.5t35.5 205.5t-9 214.5t-47 212.5t-78.5 200q-8 17 -2 34t23 25t34 2.5t25 -22.5q49 -102 84 -216.5t50 -232t7.5 -234.5t-42 -225t-98.5 -203t-162 -168q-14 -11 -32 -8.5t-29 17.5q-11 14 -8.5 32.5z" />
<glyph unicode="*" horiz-adv-x="849" d="M89 919q0 14 9 22.5t23 8.5h213q-40 25 -76 54.5t-55 75.5q-6 11 -1 23.5t17 17.5q11 5 23.5 0t17.5 -17q14 -35 47 -59.5t71 -48.5l24 -15q0 8 -0.5 16.5t-0.5 16.5q-5 43 -15 80t-21 48q-9 9 -9.5 22t8.5 22t22 9.5t22 -8.5q15 -14 25 -38t16 -49t9 -47t4 -33 q1 -5 1 -9v-9q12 10 28 19q27 17 44 30.5t34 33.5q20 25 41 39q11 8 23 6t20 -13t6 -23.5t-13 -20.5q-14 -10 -30 -28q-22 -27 -44 -43.5t-48 -33.5q-7 -4 -13.5 -8.5t-12.5 -9.5h220q13 0 22 -8.5t9 -22.5q0 -13 -9 -22t-22 -9h-212q20 -28 39.5 -57t38.5 -58 q14 -22 29 -44l30 -44q8 -11 6 -23.5t-13 -20.5q-11 -7 -23.5 -5t-19.5 13q-17 23 -31.5 45.5t-29.5 44.5l-34 52t-36 52v-224q0 -13 -8.5 -22t-22.5 -9q-13 0 -22 9t-9 22v220l-134 -174q-8 -10 -20.5 -11.5t-23.5 6.5q-10 8 -11.5 20.5t6.5 22.5q35 46 65 85 q13 16 25.5 32.5t23 30t18.5 23.5t11 14h-239q-14 0 -23 9t-9 22z" />
<glyph unicode="+" horiz-adv-x="1042" d="M77 441q-5 18 3.5 34t25.5 21q34 11 73 16t79.5 5.5t81 -1.5t79.5 -5q22 -1 42.5 -2t40.5 -2l4 332q0 17 12 29t29 11q17 0 29 -12t12 -29l-4 -332h343q18 0 31 -13t13 -31t-13 -31t-31 -13h-344l-4 -379q0 -17 -12.5 -28.5t-29.5 -11.5t-28.5 12t-11.5 29l4 379 q-21 1 -42.5 1.5t-44.5 2.5q-36 3 -73.5 5t-74.5 1.5t-71 -4t-63 -12.5q-17 -6 -33.5 2.5t-21.5 25.5z" />
<glyph unicode="," horiz-adv-x="315" d="M30 99q5 17 20.5 26.5t33.5 4.5q94 -24 127 -94q16 -35 15.5 -74t-11.5 -79.5t-28 -80.5t-34 -76q-12 -26 -22.5 -50t-15.5 -41q-5 -18 -20.5 -27t-33.5 -4q-17 5 -26.5 21t-4.5 33q7 23 18 49t25 56q13 28 27.5 61t24.5 65t13 60.5t-7 49.5q-15 31 -69 46 q-18 5 -27.5 20.5t-4.5 33.5z" />
<glyph unicode="-" horiz-adv-x="1061" d="M90 459q-5 18 3.5 34t25.5 21q34 11 73 16t79.5 5.5t81 -1.5t79.5 -5q32 -2 62 -3.5t57 -1.5h389q18 0 31 -13t13 -31q0 -19 -13 -31.5t-31 -12.5h-389q-29 0 -60 1.5t-64 3.5q-36 2 -73.5 4t-74.5 1.5t-71 -4t-63 -12.5q-17 -5 -33.5 3.5t-21.5 25.5z" />
<glyph unicode="." horiz-adv-x="249" d="M55 61q0 21 15 36t36 15h25q21 0 36 -15t15 -36q0 -22 -15 -37t-36 -15h-25q-21 0 -36 15t-15 37z" />
<glyph unicode="/" horiz-adv-x="473" d="M15 62q42 105 77 212.5t68 213.5l38 122q16 51 34 101t36 99q33 90 64.5 181.5t49.5 185.5q3 17 17 26.5t31 6.5q17 -4 26.5 -17.5t5.5 -30.5q-19 -100 -51 -194.5t-66 -186.5q-18 -48 -35.5 -97t-33.5 -99l-38 -122q-33 -107 -68.5 -215.5t-77.5 -215.5 q-7 -16 -22 -22.5t-32 -0.5q-15 7 -22 22t-1 31z" />
<glyph unicode="0" horiz-adv-x="875" d="M83 406v25q0 33 2.5 72t8.5 82t15.5 87.5t23.5 88.5q13 43 33.5 90.5t48.5 90t65 76t85 50.5h2q3 0 5 1q3 1 7 2h1q97 36 175.5 6.5t149.5 -128.5q45 -63 68.5 -144t23.5 -168q0 -12 -0.5 -24t-1.5 -24q-3 -30 -8.5 -73t-17.5 -92.5t-31 -102.5t-47 -103t-66.5 -95 t-89.5 -77q-74 -46 -144 -47q-55 0 -104 25q-47 23 -83 64t-61.5 90.5t-40 103t-18.5 101.5q-1 11 -1 23zM173.5 459.5q-1.5 -37.5 1.5 -68.5q4 -48 17 -93t33.5 -83t46.5 -66.5t56 -43.5q73 -36 158 19q57 35 100 97t73 150q23 69 32.5 130.5t12.5 95.5q6 84 -13 163 t-61 137q-30 41 -58 65.5t-58 32.5t-64.5 1t-76.5 -28l-9 -3l-4 -1l-2 -1q-45 -31 -83 -98t-64 -164q-11 -39 -19 -81t-12.5 -82.5t-6 -78z" />
<glyph unicode="1" horiz-adv-x="364" d="M44 787v5q14 95 42.5 170.5t76.5 141.5q17 20 39 15q25 -5 30 -30q6 -31 10.5 -102t7 -163.5t3.5 -198.5t1 -206q0 -67 -0.5 -128t-1 -111.5t-1 -88t-1.5 -55.5q0 -14 -12 -26q-10 -10 -27 -10q-17 1 -27.5 12.5t-10.5 28.5q1 25 2 79.5t2 128t1 160t-1 175t-2.5 173 t-4.5 153.5l-2 50l-17 -47q-19 -53 -31 -131q-2 -17 -14 -26q-15 -10 -28 -7q-15 2 -24.5 13t-9.5 25z" />
<glyph unicode="2" horiz-adv-x="764" d="M37 176.5q-1 27.5 6 55t21 52.5q24 43 59.5 64t75 29t80 6.5t74.5 -4.5q21 -3 38 -3q2 -1 5 -1q2 0 5.5 -0.5t6.5 -0.5q7 -1 17 -2l2 7q19 49 32 92.5t19.5 84.5t6.5 80.5t-5 81.5l-2 19l-14 -12q-16 -12 -35 -25t-40.5 -22.5t-44.5 -15t-46 -3.5q-73 9 -109 80 q-19 38 -22 82.5t7.5 86.5t34 78t58.5 57q48 29 85 28.5t60 -10.5q107 -50 151 -285q7 -35 10 -68.5t3 -66.5q0 -21 -1 -42t-4 -41q-6 -48 -20 -98t-37 -109l-3 -9l8 -4q45 -23 82.5 -58.5t66.5 -79.5q58 -92 58 -191v-2q0 -19 -13 -32t-33 -13t-32 14q-13 13 -13 32 q0 36 -11 72t-31 70q-20 32 -47.5 59t-59.5 45l-10 6l-4 -11q-19 -41 -41.5 -81.5t-51 -74.5t-64 -57t-80.5 -30q-51 -8 -94.5 10t-71.5 58q-15 22 -23 48.5t-9 54zM128 177q3 -31 17 -51q7 -11 25 -23t52 -7q27 4 50 20.5t42.5 41t36 54t30.5 59.5l7 13l-15 1 q-7 1 -13.5 1.5t-13.5 0.5q-37 3 -68.5 4.5t-57 -3t-45 -15.5t-32.5 -33q-18 -32 -15 -63zM257 841q0 -33 14 -61v1v-1q9 -19 18.5 -24t14.5 -6h1h1q15 -1 33.5 6t38 19t38.5 28.5t34 33.5l5 5l-2 5q-17 54 -37 87t-42 43v1v-1q-21 12 -59 -11q-39 -25 -53 -83 q-5 -25 -5 -42z" />
<glyph unicode="3" horiz-adv-x="901" d="M54 350q0 16 11 27.5t28 11.5t28.5 -11.5t11.5 -27.5q0 -25 4.5 -63.5t20.5 -77.5t47 -72.5t84 -46.5q48 -13 97.5 -4.5t95.5 31t87 56.5t72 72q28 35 51 77.5t35 88.5t10 93t-24 91q-29 55 -88 73q-51 17 -115 8.5t-123 -39.5q-12 -6 -25 -4t-23 13q-10 12 -10 26 q0 12 6 21l8 12l8 12q16 25 36 57.5t37.5 67.5t29.5 70t12 67q0 38 -20 64q-12 15 -27 22t-29.5 8.5t-27.5 -1t-20 -4.5q-23 -7 -43 -19.5t-35.5 -28t-25.5 -33.5t-12 -36q-4 -36 2.5 -57.5t16.5 -26.5q8 -5 25.5 1.5t38.5 26.5q12 11 28 11t27 -12q10 -11 10 -27 q0 -17 -12 -29q-28 -26 -52.5 -37.5t-44 -13.5t-34 2t-21.5 8h-1q-35 17 -51.5 59.5t-9.5 102.5q4 34 20.5 64t40.5 54t53 41t59 25q57 17 106 3.5t81 -55.5q86 -110 -34 -324l-11 -19l21 4q92 15 166 -9q92 -31 133 -112q24 -48 30.5 -102t-4 -110t-37.5 -113t-70 -110 q-45 -56 -98 -96.5t-110 -64.5t-114.5 -29.5t-111.5 8.5q-50 13 -90 42.5t-67.5 73t-42 99t-14.5 121.5z" />
<glyph unicode="4" horiz-adv-x="793" d="M76 285v11q0 27 8 55t20 55t26.5 53t28.5 50l3 5l3 5q8 14 16.5 28.5t14.5 26.5h-1q12 24 35.5 67t53 96.5t62 112t63.5 112t57.5 98.5t43.5 71q10 15 27 18q17 5 30 -5h1q15 -11 18 -27v-3q0 -1 1 -1v-5q0 -12 -7 -22q-8 -12 -18.5 -29.5l-22.5 -37.5l-19 -35 q-32 -54 -70 -120t-73 -129.5t-64 -117t-43 -80.5q-7 -15 -16 -31t-20 -34l-2 -3v-1q-20 -35 -41.5 -74.5t-29.5 -74.5l-2 -12h13q29 1 77.5 7.5t102 15.5t105.5 19t88 17h2h1l10 2l27 6v9q-5 66 -10 130t-9.5 121.5t-9 105.5t-7.5 81v6q-5 63 -8 98t-3 47v2q0 8 3 13l6 10 q4 4 8 9q10 8 23 8h1q18 0 29 -11q13 -13 13 -29q0 -21 12 -145v-3l7 -82q6 -75 13.5 -164.5t13.5 -180.5l1 -11l11 2q19 3 27 3q17 0 29 -12.5t12 -29.5t-12 -29q-14 -12 -30 -12q-3 0 -9 -1t-14 -3l-8 -2v-8q5 -84 7.5 -147t2.5 -109q0 -17 -12.5 -29t-29.5 -12t-29 12 t-12 29q0 48 -2.5 109.5t-7.5 128.5v12l-26 -6q-124 -24 -207 -37.5t-135.5 -19t-80.5 -2.5t-43 14q-17 13 -22 34q-1 6 -1 12z" />
<glyph unicode="5" horiz-adv-x="925" d="M65 323v3q0 17 12.5 28.5t29.5 11.5q16 0 29 -13q11 -11 11 -28v-1v-1q0 -16 9 -36.5t20 -42.5q13 -23 20 -41q32 -78 102 -103q48 -17 105 -9.5t114 36.5q45 24 84 56t70 69.5t52.5 79t31.5 83.5q7 31 9.5 69t-2.5 72.5t-19 61t-39 34.5h-1q-20 6 -45 1.5t-50.5 -15.5 t-50.5 -27.5t-46 -35.5q-5 -2 -10.5 -6.5t-14.5 -11.5l-7 -6l-17 -13q-20 -15 -41.5 -32.5t-30.5 -27.5l-1 -1l-1 -1q-10 -24 -37 -26q-16 0 -28 12q-14 11 -14 29q-2 49 -6 96l-2 29q-6 70 -9 142t9 147q4 27 51 64.5t132 80.5q34 17 66.5 31.5t58 25t41 17l15.5 6.5 q16 6 33 -2q15 -7 20 -23q6 -16 -1 -31q-8 -17 -23 -21h-1q-45 -17 -94.5 -40t-93.5 -46.5t-77 -44.5t-45 -33l-2 -2v-3q-9 -64 -6.5 -127.5t7.5 -129.5l1 -5l1 -9l3 -30l14 12q7 5 13.5 10.5t14.5 10.5q8 7 16 12.5t10 7.5l1 1q29 26 62 47t66 34q80 32 143 12 q90 -26 113 -142q6 -32 7 -62t-1 -56t-5.5 -45t-5.5 -28q-11 -50 -36.5 -99.5t-62 -94.5t-83 -83t-98.5 -66q-73 -38 -147.5 -46t-137.5 15q-103 36 -150 148q-6 16 -17 35q-14 26 -26 55.5t-12 61.5z" />
<glyph unicode="6" horiz-adv-x="678" d="M98 560q0 48 1.5 84t2.5 54q8 134 27 228q30 155 77 189q14 11 32 8q17 -1 29 -18h1q8 -9 8 -26v-7q-2 -10 -7 -16.5t-10 -11.5q-11 -11 -23.5 -52.5t-23 -105.5t-17.5 -147t-7 -177v-21q1 -53 3 -98t7 -83l3 -32l16 28q37 68 62 85q37 26 70 36t59.5 9t47 -8.5 t33.5 -15.5q28 -17 49.5 -44.5t35 -62t18 -73.5t-0.5 -80q-10 -67 -53.5 -120t-107.5 -76q-58 -20 -113 -8t-99 54q-87 81 -111 325q-5 42 -7 87t-2 96zM232 198l2 -6q20 -54 45 -76q18 -17 36.5 -24.5t35 -8.5t29.5 2t21 6q40 14 67.5 47.5t33.5 75.5q1 8 1.5 16.5 t0.5 16.5q0 46 -16 84t-45 55q-23 14 -52 9.5t-58 -25.5l-1 -1q-7 -6 -19 -25t-24.5 -42.5t-24 -46t-16.5 -36.5q-3 -8 -11 -16z" />
<glyph unicode="7" horiz-adv-x="733" d="M71 1078q-2 13 4 25q7 11 18.5 17.5t24.5 4.5q0 -1 5 -1q2 0 4 -1l11 -2q43 -7 83.5 -12t82.5 -4q17 0 33.5 2.5t30.5 4.5q26 4 52 6.5t53 0.5q17 -2 27 -12.5t11 -26.5q4 -80 5.5 -159.5t1.5 -155.5q0 -31 -0.5 -60.5t-0.5 -58.5v-69h166q17 0 28.5 -12t11.5 -29 t-11.5 -28.5t-28.5 -11.5h-165v-11q1 -11 1 -21.5v-21.5v-18q1 -31 1.5 -62.5t0.5 -63.5q0 -67 -3 -133t-12 -131q-3 -17 -16 -27t-30 -8q-16 3 -26 14t-10 27q0 2 0.5 3t0.5 3q8 60 11 123.5t3 129.5q0 35 -0.5 70t-1.5 71v56h-171q-17 0 -29.5 11.5t-12.5 28.5t12.5 29 t29.5 12h170v69q0 94 -0.5 190t-4.5 191l-1 12l-48 -8h-1q-19 -3 -37.5 -5.5t-38.5 -2.5q-19 -1 -39.5 0t-46.5 4l-22 2l12 -18q2 -2 2.5 -4.5t2.5 -5.5h1l1 -3q19 -35 39 -66.5t46 -44.5q15 -6 20 -23q7 -17 -2 -32q-8 -15 -23.5 -20.5t-31.5 2.5q-23 11 -41 28.5 t-32.5 37.5t-26.5 41t-22 41q-15 29 -29 52.5t-30 40.5q-10 10 -12 23z" />
<glyph unicode="8" horiz-adv-x="764" d="M85 911q0 76 49 137q50 60 134 89q49 17 104 21t107 -6q20 -3 43.5 -10t47 -18.5t46 -28.5t40.5 -41q21 -28 30 -56.5t9 -56.5q0 -31 -8.5 -60t-21 -55t-26 -47t-23.5 -36q-26 -40 -54 -83t-55 -90l-1 -3v-4q1 -2 1 -7q0 -13 -6 -22l-4 -8l7 -5q8 -7 14.5 -13t13.5 -12 v-1q28 -26 53.5 -59.5t45 -71t31 -78t11.5 -80.5q0 -13 -1.5 -25t-3.5 -24q-9 -43 -32.5 -73t-56 -48t-69.5 -25t-72 -4q-41 3 -75.5 18t-59.5 38t-39.5 54.5t-15.5 67.5q-2 33 4.5 76.5t20 89.5t33.5 89.5t46 78.5l6 8l-7 6q-50 40 -98 82.5t-85 89t-60 97.5t-23 109z M172 912q0 -44 20 -84.5t52.5 -79t75 -76t89.5 -74.5l9 -7l6 10q31 52 61.5 99t59.5 90q50 76 60.5 125.5t-16.5 86.5q-19 24 -51.5 40.5t-74.5 24.5t-85 5t-82 -17q-14 -5 -35 -15t-40.5 -27t-34 -42t-14.5 -59zM334 189q1 -24 11.5 -41t26 -28.5t35 -18t38.5 -7.5 q22 -2 44.5 1t42 13t33.5 26.5t19 40.5q6 31 -1 66.5t-23 69.5t-39 65.5t-48 55.5q-7 7 -15 13.5t-16 14.5l-4 3l-5 -1q-5 -2 -7 -2h-4h-5l-3 -4q-18 -27 -33 -61.5t-25.5 -70t-16 -69t-5.5 -59.5v-7z" />
<glyph unicode="9" horiz-adv-x="770" d="M76 715v7v1q0 13 1.5 32.5t4.5 43.5t8.5 50.5t14.5 53.5q45 131 158 181q59 25 125 17.5t129 -45.5q72 -42 117.5 -107.5t51.5 -137.5v-3q0 -19 -13 -29l-3 -3l-1 -4q-1 -78 -5 -156t-9 -163q-5 -91 -10.5 -198.5t-5.5 -216.5q0 -15 -10.5 -25.5t-24.5 -10.5 q-16 0 -26.5 10.5t-10.5 25.5q0 111 5.5 219t10.5 200l3 60q2 30 3.5 61t2.5 62l1 34l-20 -28q-56 -78 -145 -106q-39 -13 -78 -17t-76 -0.5t-70 15.5t-58 31q-70 53 -70 146zM149 720q-3 -58 41 -93q18 -14 43 -22t53.5 -10t59 1.5t60.5 12.5q36 12 60.5 30t42.5 42 t31.5 53t27.5 61q6 14 13.5 30t15.5 33l2 4l-2 4q-17 38 -47.5 71.5t-68.5 56.5q-49 29 -98 35t-92 -12q-69 -30 -103.5 -102.5t-38.5 -194.5z" />
<glyph unicode=":" horiz-adv-x="297" d="M79 139q0 22 14.5 37t36.5 15h25q21 0 36 -15t15 -37q0 -21 -15 -36t-36 -15h-25q-22 0 -36.5 15t-14.5 36zM79 614q0 22 14.5 37t36.5 15h25q21 0 36 -15t15 -37q0 -21 -15 -36t-36 -15h-25q-22 0 -36.5 15t-14.5 36z" />
<glyph unicode=";" horiz-adv-x="321" d="M33 112q5 18 20.5 27.5t33.5 4.5q94 -26 127 -94q16 -35 15.5 -74t-11.5 -79.5t-28 -80.5t-34 -77q-12 -26 -22.5 -49.5t-15.5 -40.5q-5 -18 -20.5 -27t-33.5 -4q-17 5 -26.5 21t-4.5 33q7 23 18 48.5t25 56.5q13 28 27.5 61t24.5 65t13 60.5t-7 48.5q-15 32 -69 46 q-18 5 -27.5 21t-4.5 33zM67 445q0 21 15 36t37 15h24q21 0 36 -15t15 -36q0 -22 -15 -37t-36 -15h-24q-22 0 -37 15t-15 37z" />
<glyph unicode="&#x3c;" horiz-adv-x="715" d="M15 250q-10 64 57 142q25 29 53.5 54t51.5 44q50 42 101.5 79t103.5 72q60 42 120.5 85t115.5 93q12 11 29 10.5t28 -13.5q12 -13 11 -30t-14 -28q-58 -52 -120 -97t-124 -88q-51 -35 -101 -71t-97 -75q-16 -13 -40 -33.5t-46 -44t-36.5 -46t-11.5 -40.5q1 -8 7 -15 t14.5 -13t17.5 -10t16 -7q90 -36 179.5 -57t185.5 -41q33 -7 67.5 -14t70.5 -15q17 -4 26 -18t5 -31t-18 -26t-31 -5q-35 8 -69 15l-68 14q-98 20 -191 41.5t-187 59.5q-96 39 -106 109z" />
<glyph unicode="=" horiz-adv-x="970" d="M78 244q0 18 12.5 31t31.5 13h720q18 0 31 -13t13 -31t-13 -31t-31 -13h-720q-19 0 -31.5 13t-12.5 31zM85 633q0 19 13 32t31 13l360 -4l360 -4q18 0 31 -13t13 -31t-13 -31t-31 -13l-361 4l-359 3q-18 0 -31 13t-13 31z" />
<glyph unicode="&#x3e;" horiz-adv-x="746" d="M27.5 790q-0.5 17 10.5 30t28 13.5t30 -10.5q55 -50 115.5 -93t120.5 -85q51 -35 102.5 -72t101.5 -79q23 -19 51.5 -44t53.5 -54q35 -39 49 -74t9 -68q-12 -70 -107 -109q-94 -38 -187 -59.5t-191 -41.5q-33 -7 -67.5 -14t-69.5 -15q-17 -4 -31 5t-18 26q-3 17 6 31 t26 18q35 8 69.5 15t68.5 14q95 20 184.5 41t179.5 57q7 3 16.5 7t17.5 10t14.5 13t7.5 15q3 18 -12 40.5t-36.5 46t-45.5 44t-40 33.5q-48 39 -98 75t-101 71q-62 43 -124 88t-120 97q-13 11 -13.5 28z" />
<glyph unicode="?" horiz-adv-x="618" d="M57 928v14.5t1 13.5q7 81 52 135.5t117 68.5q38 7 75.5 1t71.5 -24t61.5 -47t46.5 -67q34 -68 43 -141.5t2.5 -147.5t-23.5 -146t-34 -138l-1 -5l-3 -11q-7 -22 -8 -38q-2 -17 -15 -27.5t-30 -8.5q-16 2 -26.5 13.5t-10.5 26.5q0 3 1 5q2 14 5 27t6 24l2 10l2 5 q20 75 38 156.5t20 160.5q-32 -39 -77 -63q-50 -27 -104.5 -33t-94.5 11q-31 13 -53 37.5t-36.5 55t-21 65t-6.5 67.5zM139 903q2 -26 9.5 -50.5t21.5 -45.5t36 -30q20 -8 55.5 -4t72.5 24q10 5 22.5 14t24.5 22.5t21.5 31t13.5 40.5q3 16 16 26q-9 30 -22 56 q-15 30 -35.5 49.5t-43 30.5t-45.5 14t-44 -1q-44 -8 -71 -42.5t-32 -88.5q-2 -20 0 -46zM232 103q0 20 4.5 38.5t12.5 35.5q7 18 21 33q0 15 10.5 26t26.5 13q28 3 51 -4.5t40.5 -21.5t28 -33t15.5 -38q4 -19 3 -39t-9.5 -39t-24.5 -35t-41 -26q-23 -9 -41 -10.5t-31.5 2 t-23 10t-15.5 12.5q-14 15 -20.5 35t-6.5 41zM298.5 105q-0.5 -23 8.5 -32q7 -7 18.5 -4.5t19.5 5.5q25 10 31 28t2 35q-3 13 -11.5 24t-22.5 17h-7q-15 0 -28 -29q-10 -21 -10.5 -44z" />
<glyph unicode="@" horiz-adv-x="1297" d="M113 149q-14 110 9 256q7 43 20.5 102.5t37.5 122.5t60.5 124.5t88.5 110.5q58 54 145 76.5t184 8.5t173 -60t116 -114q33 -56 48.5 -118.5t19.5 -128t-1 -131.5t-12 -128q-1 -7 -4.5 -26.5t-12 -41.5t-23.5 -41.5t-39 -27.5q-13 -5 -37 -2.5t-53 31.5q-19 20 -31 46 t-20 54q-134 -195 -274 -157q-47 14 -76 49t-37 89q-6 43 1.5 91.5t25.5 94.5t44.5 83.5t58.5 58.5q20 13 46.5 20.5t54.5 9.5t55.5 -2t50.5 -14q25 -11 41 -28t26.5 -36.5t16.5 -41t11 -40.5q4 -18 9 -33q11 -15 10 -32q2 -8 4 -16.5t4 -18.5q8 -33 17.5 -66t25.5 -50 q0 -1 1 -1q5 9 10 24t7 34q6 57 10.5 117t1.5 118.5t-15.5 113.5t-40.5 102q-30 51 -89.5 86t-136.5 46t-144.5 -5.5t-111.5 -57.5q-66 -61 -113 -167.5t-67 -240.5q-11 -66 -13 -125t5 -107q4 -31 12.5 -66t23.5 -68.5t38.5 -64t56.5 -51.5q88 -57 189.5 -74t201.5 7 q60 15 111 43t94.5 64t79 78t64 84.5t50 82.5t36.5 74q8 17 24.5 23.5t33.5 -0.5q17 -8 24 -25t-1 -34q-17 -37 -41 -82t-56 -92t-72 -93.5t-89.5 -87t-108 -72t-127.5 -48.5q-118 -29 -238 -8.5t-223 86.5q-70 45 -113.5 124.5t-57.5 188.5zM483 256q5 -36 20.5 -49 t29.5 -17q46 -13 103.5 37t115.5 153q-3 9 -5.5 18.5t-4.5 18.5q-9 35 -18 57t-28 31q-12 6 -29 8t-34 1t-33 -5.5t-27 -11.5q-19 -12 -37 -39.5t-31.5 -61.5t-20 -71t-1.5 -69z" />
<glyph unicode="A" horiz-adv-x="716" d="M18 73q5 22 10.5 45t10.5 47v1q8 35 16.5 73.5t20.5 74.5q4 14 12.5 47t19 77.5t23 97t24.5 106.5q24 104 44.5 192.5t37.5 156.5t30 113.5t21 63.5q8 14 22 22q12 7 23 7h5q37 -4 72 -96q12 -31 19.5 -58.5t9.5 -36.5l1 -1q5 -23 16 -63t25 -90t30 -106t32 -111l1 -2 q15 -51 28.5 -99t25.5 -90t21 -75.5t14 -54.5q12 -46 20.5 -81t17.5 -73l26 -109q2 -7 2 -14q-1 -13 -7 -25q-10 -18 -28 -25q-7 -2 -13 -2q-12 0 -22 6q-18 11 -24 33l-26 110l-3 14q-8 32 -15.5 64t-18.5 74q-5 22 -16 60.5t-28 98.5q-20 -1 -39 -1l-39 1q-39 1 -77 3h-3 q-29 2 -63 3t-68 1q-18 -74 -28.5 -115t-15.5 -58q-11 -32 -18.5 -67.5t-15.5 -68.5q-5 -25 -10.5 -50.5t-11.5 -48.5q-7 -23 -25 -32q-17 -9 -35 -3q-19 6 -28 25q-5 11 -5 23q0 8 2 16zM233 556q27 -1 54.5 -1.5t56.5 -2.5q27 -1 59.5 -2t65.5 -2q-2 8 -5 17t-5 18 q-3 10 -6 21q-18 64 -35 122t-30.5 106.5t-24 86t-15.5 59.5q-1 6 -8 28q-11 -41 -22.5 -89.5t-24 -100.5t-24.5 -103t-22 -96q-3 -14 -6 -25l-4 -20t-4 -16z" />
<glyph unicode="B" horiz-adv-x="740" d="M63 1067q0 16 1 23q7 35 27 54.5t38 32.5q3 3 9 7q45 34 99 34q15 0 31 -3q29 -5 57.5 -22t51.5 -43.5t39.5 -59t22.5 -66.5q5 -31 6 -61q1 -34 -7 -68q-12 -63 -45 -119q80 -5 141.5 -54.5t94.5 -137.5q24 -61 24 -132q0 -66 -16 -130q-16 -66 -44.5 -126t-63.5 -105 q-32 -39 -88 -61q-47 -18 -102 -19q-10 0 -20 1q-65 3 -115.5 28t-79.5 69q-6 11 -7 19q-4 8 -4 20q0 68 -2.5 135.5t-5.5 134.5l-2 68q-1 12 -2.5 35.5t-4 54.5t-5 67.5t-5.5 74.5q-9 115 -14 185t-7 109t-2 55zM144 1075q0 -9 2 -47t6 -89t8 -108t8 -105q2 -25 3 -48 t3 -46q11 17 23.5 34t27.5 37q6 7 13 14l15 15q2 2 3 4q17 20 32 39.5t29 39.5q29 42 39 92q6 28 6 56q0 23 -4 46q-3 19 -13 38.5t-24 35.5t-31 27t-33 14q-9 2 -18 2q-31 0 -56 -19q-2 -2 -5 -3.5t-5 -3.5q-26 -19 -29 -25zM185 478l2 -56q2 -65 4.5 -131.5t3.5 -132.5 q18 -23 52 -38t76 -17q6 0 12 -1q39 0 74 12q40 14 59 38q28 36 52 86q22 49 36 103q14 56 15 112q0 53 -17 96q-27 71 -80 107q-43 29 -97 29q-12 0 -25 -1q-10 -2 -21.5 -7.5t-22.5 -13.5q-29 -36 -56.5 -74.5t-46.5 -87.5q-6 -17 -20 -23z" />
<glyph unicode="C" horiz-adv-x="819" d="M72 463v16q0 62 14 130q16 77 44.5 152.5t69.5 145.5t91 125q66 76 139 112q67 34 137 33h11l24 -3q-3 29 -5 57.5t-2 57.5q0 19 12 32t29 13t29 -13t12 -32q0 -36 3 -73t8 -74q6 -58 10 -114q1 -19 1 -37q0 -37 -5 -74q-2 -18 -14.5 -29.5t-28.5 -9.5t-27 15t-11 31 q0 13 0.5 25t1.5 25q1 15 1.5 30.5t-0.5 29.5v6q-2 11 -3.5 20t-6.5 14q-5 6 -14 8t-17 3h-7q-32 0 -62 -9q-33 -10 -62 -27.5t-53 -39t-43 -42.5q-43 -48 -79.5 -110t-62.5 -129.5t-40 -135.5q-13 -63 -13 -119v-8q0 -21 2.5 -50t8.5 -62t16.5 -68t27 -66.5t40 -58.5 t56.5 -44q34 -18 83 -19h7q46 0 93 12q51 13 98 37.5t77 57.5q12 14 28.5 14t28.5 -14t12 -32.5t-12 -32.5q-39 -44 -97 -75t-121 -46q-52 -12 -104 -12h-20q-61 3 -107 27q-62 32 -100.5 86t-59.5 115t-29 121.5t-9 107.5z" />
<glyph unicode="D" horiz-adv-x="891" d="M92 46v1077q0 20 13 34t30 14t28.5 -12t14.5 -29q44 8 86 12q27 3 54 4q15 0 29 -2q41 -2 83.5 -14t89.5 -38q50 -27 94 -67t79 -89t60 -105.5t37 -116.5q4 -21 10 -58q6 -38 9 -84q2 -31 3 -65q0 -17 -2 -35q-2 -54 -11 -107t-29.5 -104.5t-54.5 -94.5q-20 -26 -50 -52 t-64.5 -47.5t-70.5 -37t-69 -18.5q-10 -1 -20.5 -2t-21.5 -2q-39 -5 -81 -9q-14 -1 -29 -1q-28 0 -54 5q-12 2 -34 9t-45 20q-5 -14 -16 -23.5t-25 -9.5q-17 0 -30 14t-13 34zM178 151l1 -1q3 -6 13 -13.5t23 -14.5t27.5 -12.5t25.5 -7.5q21 -3 44 -4q12 0 25 2q38 2 73 7 q11 2 21.5 3t21.5 2q22 2 50 14t55 29.5t51 38t39 40.5q33 40 50 96q16 54 21 116q2 31 2.5 62.5t-2.5 63.5q-5 64 -17 120q-10 48 -30.5 94t-49.5 86.5t-65 73.5t-76 56q-39 21 -75 31q-36 9 -72 11q-8 0 -17 1q-28 0 -57 -4q-38 -5 -82 -13v-877z" />
<glyph unicode="E" horiz-adv-x="794" d="M60 1112v6q0 16 10 30q12 16 30 19q19 2 33 -11t16 -34q1 -3 1 -10q7 3 13.5 6t12.5 5q47 20 94.5 35t110.5 15h4q179 0 283 -83q15 -12 18.5 -32.5t-7.5 -37.5t-29.5 -21t-33.5 8q-83 65 -235 65q-51 -1 -90 -13.5t-83 -30.5l-24 -10t-25 -10q3 -36 6 -79.5t7 -91.5 t7.5 -98.5t7.5 -101.5h294h43t42 1.5t44.5 4.5t52.5 10q19 4 34.5 -8t18.5 -33q4 -21 -6.5 -38t-29.5 -21q-32 -7 -58 -10.5t-49.5 -5t-46 -2t-45.5 -0.5h-287q3 -50 6 -95l5.5 -82.5t3.5 -66t1 -44.5q0 -11 -1 -22t-1 -22q-1 -20 -1.5 -40t2.5 -34q2 -8 15.5 -11.5t32 -3.5 t37.5 1.5t31 3.5q15 2 29 3t27 1q17 0 33.5 0.5t34.5 0.5q33 1 66 1t67 -1q66 -2 126 -27q17 -9 25 -27q4 -10 4 -20q0 -9 -3 -18q-6 -20 -23 -29q-9 -5 -18 -5q-8 0 -17 4q-24 10 -50.5 14.5t-55 6.5t-58.5 1.5t-60 -1.5q-18 -1 -36 -1.5t-35 -0.5q-10 0 -22 -1t-26 -2 q-27 -3 -61 -5h-15q-25 0 -49 5q-30 7 -54 27t-33 60q-5 25 -5 52t2 52q1 11 1 20.5v17.5q0 21 -2 65.5t-6 104t-8.5 129t-10 141.5t-10.5 140.5t-9.5 126t-8 99.5t-4.5 59z" />
<glyph unicode="F" horiz-adv-x="691" d="M84 1137v6q0 19 11.5 32.5t28.5 13.5t29 -13.5t12 -32.5v-21q53 -2 102.5 -10t97.5 -17q51 -10 102.5 -17.5t106.5 -10.5q17 -1 29 -15q11 -12 11 -30q0 -22 -12.5 -35t-29.5 -12q-60 2 -114 10.5t-106 18.5q-48 9 -93.5 16.5t-93.5 9.5q1 -97 2 -193.5t5 -193.5h374 q17 0 29 -13t12 -33q0 -19 -12 -32t-29 -13h-370q2 -64 2.5 -127t0.5 -126v-17q0 -22 1.5 -45t3.5 -47q4 -38 6 -76q1 -14 0 -28q0 -23 -2 -45q-2 -19 -15 -31q-11 -10 -25 -9h-5q-17 2 -27.5 16.5t-8.5 34.5q2 29 0.5 62t-4.5 67q-2 25 -4 50.5t-2 50.5v17q0 71 -0.5 142.5 t-3.5 142.5q-7 138 -8 277t-1 276z" />
<glyph unicode="G" horiz-adv-x="1037" d="M85 599q10 84 41 171t81.5 160.5t120.5 125.5t159 67q66 11 131 11h32q82 -4 167 -25v49q0 16 0.5 39t0.5 61q0 18 11 31t28 13q16 0 27 -13t11 -31v-62t-1 -40v-56q0 -5 0.5 -11t0.5 -11q8 -11 8 -23q2 -12 3 -24t3 -25q3 -29 5.5 -58.5t3.5 -58.5q0 -18 -10.5 -30.5 t-26.5 -13.5t-27.5 11t-12.5 29q-2 20 -4.5 42.5t-6.5 46.5q-2 11 -3 22t-3 22q-105 29 -207 29q-60 0 -119 -10q-71 -12 -129 -55.5t-101 -106t-70 -138t-36 -150.5q-5 -43 -5 -84q0 -57 9 -112q17 -95 61 -173q27 -49 81 -81t123 -40q21 -3 41 -3l33 2q37 4 70 14.5 t60.5 27.5t47.5 40q25 28 43 72t25 94q3 24 3 55t-3 60t-8.5 51t-13.5 28q-7 6 -12 14h-192q-16 0 -27.5 13t-11.5 31t11.5 30.5t27.5 12.5h405q17 0 28 -12.5t11 -30.5t-11 -31t-28 -13h-119q12 -32 16 -70.5t4 -72t-2 -56l-2 -22.5q-9 -64 -32 -120t-56 -94 q-26 -30 -61.5 -52.5t-76.5 -36.5t-87 -18q-19 -2 -39 -2q-26 0 -53 3q-88 11 -155.5 53t-104.5 108q-51 91 -71 201q-12 65 -12 131q0 47 6 95z" />
<glyph unicode="H" horiz-adv-x="624" d="M93 1098q0 18 11.5 32.5t28.5 16.5q16 3 32 -8q17 -13 19 -35q16 -123 20.5 -247t4.5 -241v-84q17 5 35 12t38 15q25 11 48.5 15.5t46.5 7.5q8 2 15 3t15 2v33l-6 477q0 21 13 36t32 15q18 0 31 -13q15 -15 15 -37l6 -476v-16q0 -7 0.5 -13t0.5 -8q4 -6 8 -15q3 -9 3 -18 q0 -16 -10 -31q2 -118 3 -241t1 -246q0 -21 -13 -36t-33 -15q-19 0 -32 15t-13 36q0 120 -1 235t-3 217q-5 -1 -9.5 -1.5t-9.5 -1.5h-1q-20 -3 -38.5 -6.5t-35.5 -11.5q-31 -13 -57.5 -22t-50.5 -16q0 -9 -0.5 -24.5t-0.5 -30.5v-38q-2 -67 -2.5 -136.5t-0.5 -137.5 q0 -21 -13.5 -35.5t-32.5 -14.5t-32.5 14.5t-13.5 35.5q0 71 1 143t3 133v46q0 17 0.5 33t0.5 18q-9 11 -10 26q-1 2 -1 7q0 19 12 33q1 30 1 59.5v60.5q0 118 -5 236.5t-19 235.5q0 2 -0.5 3.5t-0.5 3.5z" />
<glyph unicode="I" horiz-adv-x="564" d="M47 1081q2 20 16 32.5t31 10.5q25 -3 53 -1t56 6l22 2l22 2q11 23 37 23q21 0 34 -19q34 2 73 6.5t87 12.5q4 1 7 1q13 1 25 -9q14 -12 17 -32q1 -4 1 -9q0 -15 -8 -27q-10 -16 -29 -20q-50 -8 -89.5 -12.5t-74.5 -6.5q1 -112 3 -223.5t4 -222.5q2 -121 4.5 -243 t2.5 -246q24 1 52 1.5t63 0.5q17 0 30 -14t13 -34t-13 -34t-30 -14q-54 0 -92 -1t-71 -3q-35 -2 -73 -3.5t-94 -1.5q-18 0 -30.5 14.5t-12.5 34.5t12.5 34t30.5 14q41 0 72 0.5t57 2.5q0 124 -2.5 246.5t-4.5 243.5q-2 109 -4 219.5t-3 222.5q-8 -1 -14.5 -1.5t-14.5 -1.5 q-32 -3 -63.5 -5.5t-62.5 1.5q-18 2 -30 18q-10 13 -9 29v6z" />
<glyph unicode="J" horiz-adv-x="818" d="M91 268v6q0 16 9 30q11 15 28 18t31 -8q16 -13 19 -33q7 -63 25.5 -97t56.5 -57q16 -10 37 -17t43.5 -10t43.5 -1.5t37 9.5q27 13 44.5 44t28 69.5t16 79.5t8.5 73q3 35 5 71t2 72q0 75 -7.5 152t-23.5 158l-6 34l-2 9q-8 45 -17.5 86.5t-27.5 76.5q-2 4 -2 7 q-26 -1 -50 -1q-29 0 -55 1q-45 3 -65 8q-17 5 -27 21.5t-6 35.5q5 20 22 31q16 10 31 5q24 -7 85 -7q5 -1 11 -1q56 0 124 5q86 6 134.5 15t58.5 16q11 10 25 10h5q18 0 29 -15q12 -14 12 -32q0 -9 -3 -18t-10 -16q-11 -12 -37 -21t-58.5 -15.5t-67.5 -10.5t-64 -7 q15 -38 23 -77.5t15 -78.5l8 -42q25 -128 31 -247q2 -40 2 -79q0 -79 -8 -156q-4 -40 -10.5 -90.5t-22.5 -99.5t-43 -90.5t-72 -63.5q-27 -13 -59 -16q-14 -2 -28 -2q-18 0 -37 2q-32 5 -62 15.5t-53 24.5q-56 34 -86 86.5t-40 137.5zM101 270q10 -83 38.5 -133.5 t83.5 -84.5q22 -14 51 -23.5t60 -13.5q17 -2 35 -2q13 0 26 1q31 3 57 15q43 21 69 61t41 88t21.5 98t10.5 89q8 77 8 155q0 39 -2 78q-6 119 -31 247l-4 20t-4 21q-7 42 -16.5 84.5t-26.5 83.5q40 3 78.5 7.5t70 10.5t54.5 14.5t32 18.5q10 11 10 26.5t-9 26.5 q-10 11 -23 12h-1q-12 0 -22 -10q-10 -7 -39.5 -13t-70.5 -11t-88 -8t-90 -4h-34h-46q-35 2 -53 7q-14 4 -25.5 -4.5t-15.5 -23.5q-3 -15 4 -28t21 -17q22 -6 69 -8q24 -1 50.5 -1t55.5 1q2 -8 4 -12q19 -37 28.5 -79t17.5 -87q2 -11 4 -21.5t4 -21.5q31 -163 31 -314 q0 -72 -7 -142q-3 -33 -8.5 -74.5t-16.5 -81.5t-29.5 -72t-47.5 -46q-18 -9 -40.5 -10.5t-46 1.5t-45.5 10.5t-39 17.5q-20 12 -35 27t-25.5 34t-17 43.5t-10.5 57.5q-2 15 -12.5 24.5t-24.5 7.5t-22 -14q-7 -11 -7 -22v-6z" />
<glyph unicode="K" horiz-adv-x="770" d="M106 1204q0 23 15.5 39.5t35.5 16.5q21 0 36 -16.5t15 -39.5q0 -53 9.5 -185t27.5 -357q35 76 70.5 158.5t65.5 157t52 134t29 90.5q5 25 26 36q8 5 17.5 6t18.5 -1q18 -5 28.5 -20.5t10.5 -33.5q0 -8 -3 -14q-7 -33 -26 -88t-45 -121t-57 -138.5t-61.5 -141 t-58.5 -128.5t-48 -100q0 -2 1 -14.5t2.5 -27.5t2.5 -28.5t2 -17.5q17 -6 36.5 -10t41.5 -8q34 -7 72.5 -16t82 -26t92 -44.5t102.5 -72.5q20 -18 20 -45q0 -19 -10 -33q-12 -20 -34 -23q-20 -3 -39 11q-46 39 -87 63t-78.5 39t-72 22.5t-66.5 13.5q-12 2 -24.5 4.5 t-25.5 5.5q8 -86 11 -129t3 -56v-2q0 -23 -13.5 -39t-33.5 -17h-3q-19 0 -32 13q-18 15 -18 41q0 7 -2 27.5t-5 51t-6.5 69l-7.5 82.5q-39 23 -50 66q-2 6 -2 12v12q0 26 10 49t23 45q1 1 1 2q0 3 1 5q-9 105 -18.5 215t-17 209t-12 177.5t-4.5 119.5z" />
<glyph unicode="L" horiz-adv-x="760" d="M87 1090q-1 6 -1 11q0 13 6 24q9 16 26 20q5 1 9 1q12 0 22 -8q14 -10 17 -28q25 -135 38 -257.5t18 -232.5q4 -91 4 -173v-32q-1 -96 -3 -177q-1 -37 -1.5 -70.5t0.5 -63.5q45 10 104 16t120 8q51 2 99 2h19q56 0 94 -2q17 0 29 -14q11 -13 11 -30q0 -21 -13 -35 q-12 -13 -29 -12q-36 1 -79.5 1t-89 -1t-90 -4t-83.5 -7t-69.5 -10t-47.5 -13q-8 -4 -16 -4q-10 0 -21 7q-17 13 -19 37q-2 33 -2 71q1 10 1 20q0 50 2 107q1 79 2 173v34q0 79 -4 166q-4 107 -16.5 226t-36.5 250z" />
<glyph unicode="M" horiz-adv-x="885" d="M79 172q2 68 2.5 148.5t0.5 167.5v168v105.5t0.5 93t1 74t1.5 49.5v10t1 10q0 16 1 35.5t4.5 38.5t9.5 37t17 32q19 25 37.5 31t32.5 5q20 -2 36.5 -14t30 -28.5t24 -34.5t18.5 -32q13 -24 23.5 -48.5t20.5 -49.5q1 -3 3 -6q1 -2 2 -4.5t1 -1.5l10 -24q23 -54 45 -108.5 t37 -112.5l3 -13q8 55 17 110t17 102.5t14.5 84t9.5 53.5q11 60 44.5 100t75.5 45h7q7 0 17 -1q15 -2 32 -12.5t34 -32t31 -60.5q22 -63 34.5 -127.5t17.5 -129.5t6 -130.5t1 -129.5v-39v-236v-235q0 -19 -12 -32.5t-29 -13.5t-29 13.5t-12 32.5v235v236v39q0 64 -0.5 126 t-5.5 122.5t-15.5 119t-30.5 115.5q-8 23 -18.5 36.5t-20.5 11.5q-13 -1 -27.5 -20.5t-20.5 -51.5q-5 -28 -13.5 -76t-17.5 -105t-18.5 -118t-17 -116.5t-12 -100t-4.5 -67.5q0 -18 -11 -31t-28 -15q-16 -1 -28 11t-14 30q-5 53 -16.5 100t-25.5 96l-13 48q-14 53 -34 104.5 t-42 102.5l-11 24l-5 13l-20 46t-21 44q-19 34 -29 47t-15 16q-2 0 -3 -3q-4 -5 -6 -15.5t-3.5 -23t-2.5 -25.5t-1 -22v-11.5t-1 -10.5q-1 -17 -1.5 -48t-0.5 -72.5v-91.5v-105v-168.5t-0.5 -169.5t-2.5 -151t-5 -113q-2 -19 -15 -31q-11 -10 -25 -10h-5q-17 2 -27 16 q-10 13 -10 30z" />
<glyph unicode="N" horiz-adv-x="794" d="M77 37q0 15 1 57t2.5 102.5t4 134.5t5 152.5t5.5 156.5t5.5 146.5t4.5 122.5t4 84q1 17 9.5 29t22.5 17q16 6 33.5 -3t31.5 -22t23 -25l9 -12q4 -6 14 -25.5t35 -66.5q124 -235 206.5 -381t125.5 -203q2 35 3 86q2 51 2 111v61v63q0 64 -1 127t-2 118.5t-2 97.5 q-2 59 -2.5 103.5t-0.5 70.5q0 20 12 33t29 13t29 -13t12 -33q0 -25 0.5 -69t1.5 -103q4 -207 5 -347q0 -47 1 -88q0 -82 -2 -140q-2 -88 -7.5 -132t-14.5 -59q-8 -11 -19 -18t-24 -6t-29 11t-38.5 37t-53 73.5t-73 119.5t-99 176.5t-129.5 243.5q-8 17 -16 32t-15 26 q-2 -64 -6 -148t-6.5 -174t-5.5 -179.5t-5 -163.5t-3.5 -126t-1.5 -67q1 -19 -11 -32.5t-29 -13.5h-2q-16 0 -27 12q-12 14 -12 33z" />
<glyph unicode="O" horiz-adv-x="1140" d="M94 632q6 73 23.5 144t50.5 131.5t82 106t117 68.5q42 14 92 17q11 1 22 1q39 0 77 -8q48 -10 91.5 -35t73.5 -67q4 -6 5 -10q19 -5 35 -13t33 -18l14 -8q89 -50 148.5 -131t82.5 -184q14 -61 14 -123q1 -47 -7 -93q-18 -110 -78 -206q-58 -97 -154.5 -149t-214.5 -53 q-70 0 -146 18.5t-143.5 60t-120.5 108.5t-76 165q-15 62 -21 134q-3 37 -3 75q0 34 3 69zM174 615q-1 -26 -2 -51q0 -36 3 -72q5 -61 18 -114q19 -79 63 -133t101 -87.5t121 -48.5t123 -15q98 1 176.5 42.5t125.5 119.5q49 80 64 170q6 39 6 77q0 51 -11 100 q-19 84 -67.5 149.5t-120.5 106.5l-15 8q-13 7 -22.5 12.5t-19.5 9t-20.5 5t-24.5 1.5h-180q-17 0 -29 13t-12 33q0 19 12 32.5t29 13.5h98q-46 20 -100 21h-7q-50 0 -92 -14q-55 -18 -94.5 -56.5t-65.5 -89.5t-39.5 -111t-17.5 -122z" />
<glyph unicode="P" horiz-adv-x="831" d="M82 623q0 19 10 32q9 11 21.5 16t25.5 1q-7 100 -14.5 214.5t-16.5 243.5l-3 55q-1 1 -1 4q0 20 12.5 34.5t30.5 16.5h4q14 0 27 -11q16 -13 18 -36q1 -24 3 -44q2 -17 2.5 -34t1.5 -22q46 49 110 76q67 28 134 28h13q74 -3 132 -38q49 -31 80.5 -78.5t47.5 -102 t18 -112.5v-20q0 -48 -8 -92q-12 -65 -48 -121t-87 -95.5t-112 -57.5q-41 -12 -82 -13l-40 3q-58 9 -119 31q11 -183 16.5 -296.5t5.5 -158.5q0 -21 -13 -36t-33 -15q-19 0 -32 15t-13 36q0 47 -6.5 171.5t-19.5 328.5q-14 9 -26 18.5t-23 19.5q-16 15 -16 39zM214 933 q12 -176 21 -321q32 -14 68.5 -25t70.5 -16q14 -2 29 -2q29 0 58 9q44 14 81 42t63.5 68t34.5 86q6 34 6 71v11q-1 43 -11.5 83.5t-32 75t-55.5 55.5q-38 24 -93 25h-5q-53 0 -104 -22q-45 -19 -76.5 -50.5t-43.5 -69.5q-3 -12 -11 -20z" />
<glyph unicode="Q" horiz-adv-x="1206" d="M112 493q-1 9 -1 19q0 62 9 124q10 70 32 137t55 126q17 31 42.5 60t55 54.5t60.5 47t59 36.5q53 28 110 41q47 10 94 10q11 0 22 -1q59 -3 115.5 -21t107.5 -51q91 -59 143.5 -150.5t61.5 -206.5l1 -13q3 -35 5.5 -72.5t2.5 -76.5t-3 -78t-11 -76v-4v-11q0 -35 -11 -65 q-12 -35 -33 -66q51 -51 79 -78.5t44 -43.5t25.5 -26.5t23.5 -28.5q12 -14 12 -33q0 -23 -16 -40q-13 -13 -30 -13h-3q-18 1 -31 17q-27 34 -41.5 50t-29.5 29.5t-36.5 33t-62.5 60.5q-37 -32 -75 -56t-68 -41l-4 -3q-102 -60 -205 -75q-35 -6 -69 -6q-66 0 -127 20 q-234 78 -287 329q-15 70 -16 142zM203 496q2 -61 14 -121q40 -194 224 -253q49 -16 102 -16q29 0 59 4q85 14 171 65l5 3q23 14 53.5 32.5t59.5 41.5q-70 63 -134 109.5t-114 61.5q-19 5 -28.5 24t-4.5 40q5 20 21.5 30.5t35.5 5.5q31 -9 65.5 -28t71.5 -44.5t74.5 -57 t75.5 -66.5q-2 17 6 34q17 34 25 75t9 86q1 14 1 29q0 30 -2 59q-3 45 -6 86q-1 4 -1 7v6q-6 89 -47 160t-112 117q-41 27 -87 41.5t-93 16.5h-16l-78 -8q-47 -10 -90 -33q-24 -12 -50 -30t-50 -39t-44.5 -44.5t-33.5 -45.5q-29 -50 -47.5 -107.5t-27.5 -118.5 q-7 -49 -7 -99v-23z" />
<glyph unicode="R" horiz-adv-x="818" d="M50 1094q27 46 68 82q-3 18 5.5 33t25.5 20q9 2 17.5 -0.5t15.5 -7.5q53 29 101 37q39 6 77 6q52 0 102 -11q88 -19 150 -68q42 -32 68 -80.5t33 -107.5q2 -21 2 -41q-1 -46 -13 -94q-18 -68 -59 -121q-45 -58 -109 -87t-137 -40q34 -25 64 -50.5t50 -46.5q9 -9 29 -30.5 t45.5 -52.5t53.5 -69t52.5 -80.5t43.5 -88t27 -90.5q1 -6 1 -11q-1 -13 -7 -23q-10 -16 -26 -20q-17 -4 -31 7t-17 30q-8 44 -31 92.5t-55 96.5t-69 92t-71 79q-18 18 -39 36.5t-44 35.5t-46 32.5t-45 26.5q2 -26 4.5 -56.5t4.5 -65.5q4 -56 8.5 -115.5t9 -114t9 -99 t9.5 -68.5q4 -19 -5.5 -34.5t-26.5 -19.5q-5 -2 -11 -2q-12 -1 -20 7q-14 10 -17 30q-5 26 -10 72t-9.5 102t-9 117t-8.5 118q-4 48 -7 91t-6 72q-15 14 -13 37q0 6 2 11.5t4 10.5l-6 48q-5 34 -10.5 77.5t-12 90l-13 93t-12.5 87.5q-15 -18 -23.5 -38t-9.5 -40 q0 -19 -12 -32t-29 -12q-17 -1 -29 13q-11 12 -11 31q0 55 28 103zM208 1133q7 -42 14.5 -93.5t15 -105t14.5 -105.5t13 -94l5 -40q46 1 91 6t86 17t75.5 32t58.5 51q29 38 43 87q10 36 9 71q0 13 -1 26q-3 28 -17 62.5t-49 61.5q-52 39 -124 55q-41 9 -82 8q-32 0 -66 -5 q-39 -6 -86 -34z" />
<glyph unicode="S" horiz-adv-x="703" d="M78 401q0 20 12 33t29 13t29 -13t12 -33q0 -22 2 -53.5t7 -64.5t15.5 -66.5t27 -59.5t41 -43.5t58.5 -18.5h8q84 0 140 64q33 38 49 90q15 46 15 98v12q-2 51 -17.5 94.5t-40 81.5t-55.5 73.5t-64 70.5q-35 38 -70.5 77.5t-64.5 86.5q-6 9 -17 29.5t-20.5 48t-15.5 59.5 q-3 15 -2 31q0 17 3 34q11 60 59 94q23 16 48.5 22.5t51.5 6.5q2 0 6 1l46 -3q26 -4 49 -9q79 -18 134 -69.5t81 -135.5q2 -7 2 -14q0 -10 -4 -20q-7 -18 -23 -24q-16 -7 -31 1t-21 26q-37 119 -154 146q-16 3 -35 6t-38 3.5t-37 -3t-32 -13.5q-17 -12 -22 -33q-1 -8 -1 -17 q0 -22 8 -48q12 -36 31 -66q26 -41 58 -77t67 -73q36 -39 71 -79t63.5 -86t47 -99.5t21.5 -118.5v-18q0 -67 -20 -129q-23 -70 -68 -121q-41 -47 -95 -71q-47 -21 -100 -20h-14q-54 2 -96.5 30t-72.5 79t-45.5 124t-15.5 164z" />
<glyph unicode="T" horiz-adv-x="1115" d="M24 1016q6 21 26 32q30 16 77.5 27.5t109 19.5t134.5 13t155 7q-5 26 11 47q14 16 34 18q2 0 4 1q18 0 31 -14q11 -11 23 -51q77 1 157 1.5t163 -2.5l90 -1q20 0 34.5 -16t14.5 -39t-14.5 -39t-34.5 -16l-91 1q-53 1 -130 2q-38 0 -80 0.5t-86 -0.5q9 -57 18 -126.5 t16.5 -145t14 -153.5t12 -151.5t10 -139t7.5 -116t4.5 -82.5t1.5 -38q0 -23 -14.5 -38.5t-34.5 -15.5t-34 15.5t-14 38.5q0 35 -3.5 103t-10 154.5t-15 184t-18 191.5t-19.5 177t-19 140q-73 -2 -144.5 -5.5t-133.5 -10t-110 -16.5t-74 -24q-18 -10 -37 -2.5t-28 27.5 q-5 12 -5 24q-1 9 2 18z" />
<glyph unicode="U" horiz-adv-x="976" d="M94 704q-1 22 -1 43q0 43 3 85q4 64 9 127q3 42 5.5 84t4.5 84q1 21 14 35q12 13 29 13h3q18 -1 31 -16t12 -36q-2 -44 -5 -87t-5 -85q-4 -61 -8 -123q-3 -48 -4 -96q0 -14 1 -27q1 -75 9 -158t29 -160t57.5 -140.5t93.5 -99.5q64 -41 121 -41q47 0 90 27 q46 28 83.5 81.5t64.5 118.5t43 136t18 136q3 61 3 126q0 53 -2 107q-4 122 -17 265q-2 21 9.5 37t30.5 18q18 2 32 -11t16 -33q14 -147 18 -273q2 -56 2 -110q0 -67 -3 -130q-3 -74 -21 -156.5t-50.5 -159t-78.5 -140.5t-104 -100q-24 -15 -55.5 -26.5t-69.5 -12.5h-6 q-35 0 -75 10q-44 12 -93 44q-113 72 -172.5 235t-61.5 409z" />
<glyph unicode="V" horiz-adv-x="800" d="M30 1023q-4 10 -4 19.5t4 19.5q7 19 24 27t34 0.5t24 -26.5q3 -7 10.5 -25t18.5 -44.5t25.5 -59.5t29.5 -69q23 -54 48.5 -113t50.5 -118t48.5 -115t43 -103t33.5 -83t20 -55q8 -24 14 -45q6 -20 11.5 -38.5t12.5 -35.5q2 7 3 13t3 11q5 23 9 38q3 10 12.5 50.5t23 100 t29.5 133.5t33 152t33.5 155t30.5 142t23.5 113.5t13.5 69.5q4 19 20 31q12 9 24 9q4 0 9 -1q19 -5 29 -22q8 -12 7 -26q0 -5 -1 -11q-4 -18 -13.5 -65t-23 -112t-30.5 -142.5t-34 -157t-33.5 -155.5t-30 -138t-23.5 -104.5t-14 -54.5q-2 -5 -4 -13t-4 -17q-5 -20 -10 -42 t-13 -42t-19.5 -36.5t-27.5 -25.5q-9 -5 -19 -5q-5 0 -11 1q-16 4 -26 18q-29 43 -44.5 86t-29.5 88q-4 11 -7 22t-7 22q-6 18 -20 53.5t-33.5 83t-42.5 103.5t-48 114t-49.5 115.5t-46.5 107.5q-34 80 -57 133.5t-29 68.5z" />
<glyph unicode="W" horiz-adv-x="1121" d="M29 977q-2 8 -2 15q0 12 5 23q8 18 26 24q17 7 33 -2.5t22 -29.5q4 -17 12.5 -49t19.5 -75t23.5 -93.5t25.5 -104.5q15 -59 29 -117t27 -110t24 -95.5t19 -71.5l3 -11q11 -39 21 -72.5t24 -65.5q10 24 27.5 72.5t40.5 134.5q7 25 16 66t19 89.5t20.5 101.5t20.5 101 q12 61 21 106t14 64q3 15 13.5 24.5t24.5 11.5t25.5 -5.5t17.5 -21.5q15 -34 38 -88t48.5 -117.5t52 -130.5t49.5 -126q13 -33 24.5 -62.5t21.5 -54.5t17.5 -43.5t11.5 -28.5q11 -23 17.5 -35t10.5 -17q4 6 8.5 17t8.5 23t7 23t5 17q2 5 2.5 8.5t2.5 7.5q10 36 13.5 74 t5.5 79q1 14 1.5 29t1.5 30q3 40 6.5 100t7 128t6.5 137.5t5.5 129t4 102.5t1.5 57q0 20 12.5 34.5t31.5 14.5q18 0 31 -14.5t13 -34.5q0 -14 -1.5 -57.5t-3.5 -104t-5.5 -131t-7 -139t-7 -129.5t-6.5 -102q-2 -14 -2.5 -27.5t-1.5 -28.5q-2 -44 -6 -88t-17 -89 q-1 -3 -1.5 -6.5t-2.5 -8.5q-5 -20 -12.5 -44t-18 -45.5t-26 -38.5t-36.5 -23q-27 -8 -48.5 3.5t-37 31t-26 41.5t-15.5 34q-9 21 -29.5 71.5t-47.5 119.5q-15 38 -31.5 80.5t-34 85.5t-34.5 85t-32 80q-2 -8 -2.5 -14.5t-2.5 -14.5q-10 -49 -20.5 -102.5t-21 -103t-20 -92 t-16.5 -69.5q-22 -83 -42 -141t-39 -94.5t-38.5 -53.5t-41.5 -18q-11 0 -21.5 6t-16.5 17q-32 55 -49 106.5t-33 109.5l-3 11q-8 29 -19 72.5t-24 95.5t-27.5 110.5t-29.5 117.5q-13 53 -25.5 103.5t-23 93.5t-19 74.5t-12.5 47.5z" />
<glyph unicode="X" horiz-adv-x="1109" d="M30 910q-1 5 -1 10q0 15 8 28q11 18 30 21.5t35 -8.5l20 -16q155 -121 268 -213.5t190 -159.5l89 100l205 230l17 19q10 11 19.5 22t17.5 22q13 17 32 19h4q17 0 29 -13q15 -14 16.5 -35.5t-10.5 -37.5q-11 -14 -22 -26.5t-22 -24.5l-16 -18l-205 -231q-10 -12 -23 -26 q-11 -12 -26.5 -29t-32.5 -37q19 -18 33 -33.5t25 -27.5q8 -10 23 -25.5t34 -35t41.5 -42t46.5 -45.5q91 -90 150.5 -150.5t79.5 -93.5q9 -14 9 -30v-8q-2 -21 -19 -34q-12 -10 -26 -10q-4 0 -9 1q-19 4 -30 21q-9 13 -32 39t-53.5 57.5t-65 65.5t-64.5 64q-51 51 -92 91.5 t-61 63.5q-8 10 -21.5 24t-34.5 34q-31 -35 -61 -69t-54 -61q-28 -32 -54 -61l-39 -45q-35 -38 -68.5 -78.5t-62.5 -82.5q-12 -17 -31 -20t-34 10q-15 14 -17.5 35t8.5 38q32 47 68 89t71 82l39 44l163 185q-65 58 -173 146t-272 216l-20 16q-15 12 -19 34z" />
<glyph unicode="Y" horiz-adv-x="746" d="M46 1101q0 16 8.5 29t23.5 18q16 6 33 -3q18 -10 23 -30q11 -40 53.5 -119t108.5 -180q27 -41 53 -78.5t48.5 -68.5t40.5 -53.5t29 -32.5q11 13 29.5 57.5t41.5 132.5q22 81 41.5 176.5t33.5 185.5q3 22 20 33q11 9 24 9q4 0 8 -1q17 -3 27 -17.5t10 -31.5v-8 q-3 -21 -11 -68t-19.5 -107t-27 -126.5t-34.5 -127.5t-41 -110t-47 -74v-110q0 -46 1 -103v-238q0 -20 -13 -34.5t-32 -14.5t-32 14.5t-13 34.5v237q-1 53 -1 95v103q-15 10 -34 30t-40 45.5t-41.5 53.5t-38.5 54.5t-33 49t-23 35.5q-28 43 -56 90.5t-52 92t-42 83t-24 63.5 q-2 4 -2 14z" />
<glyph unicode="Z" horiz-adv-x="781" d="M58 40v6q0 12 5 23q13 25 29.5 53t37.5 62q29 45 56.5 91t55.5 94q-38 -3 -67.5 -9t-41.5 -14q-14 -11 -30.5 -6.5t-25.5 20.5q-9 17 -5.5 35t18.5 29q13 10 35 17t49 12t58.5 7.5t63.5 4.5q7 11 13.5 22.5t12.5 22.5l3 6q10 17 25 38t35 48q42 56 80.5 114t61.5 111 q25 57 25 102q0 43 -32 73q-14 12 -35 17.5t-45.5 5t-49 -7t-43.5 -16.5q-38 -21 -69.5 -54t-65.5 -74q-10 -11 -20 -23t-21 -25q-12 -14 -29 -14t-29 14t-12 32.5t12 32.5q11 12 20.5 23.5t19.5 23.5q37 43 74 81.5t85 64.5q24 13 58 22.5t70 10.5h7q33 0 64 -9 q35 -10 61 -35q38 -36 52 -80q10 -32 11 -66q0 -12 -2 -25q-5 -47 -24.5 -95.5t-46.5 -94.5t-57.5 -89t-56.5 -78q-17 -24 -31.5 -44t-22.5 -33q33 0 62 -1t50.5 -2t34.5 -2t14 -1q17 -2 27 -17t8 -34t-15 -30.5t-30 -9.5h1q-12 1 -33 2t-48.5 2t-59 1t-63.5 -1l-70 -120 t-72 -118q42 12 91 22t102.5 19t110 16.5t112.5 14.5l51 6q17 3 30.5 -8.5t15.5 -30.5v-6q0 -15 -8 -28q-10 -15 -27 -17q-9 -2 -22.5 -3.5t-30.5 -3.5q-29 -4 -72 -9.5t-92.5 -13t-101.5 -16.5t-98.5 -20t-83.5 -23.5t-56 -26.5q-10 -8 -22 -8h-4q-14 2 -24 13 q-11 11 -13 27z" />
<glyph unicode="[" horiz-adv-x="467" d="M100 719q2 160 13 311q2 15 11.5 26t24.5 14q40 8 68 8.5t56 -0.5q19 -1 39 -1t46 2q18 2 32 -10t16 -30t-10 -31.5t-30 -15.5q-30 -3 -53 -3t-43 1q-19 1 -35 1t-36 -2q-9 -139 -11 -285.5t0.5 -291t8.5 -282t12 -258.5q21 3 39.5 6.5t36.5 8.5q27 5 55.5 10.5t66.5 8.5 q18 2 32 -9.5t16 -29.5t-9.5 -32t-30.5 -16q-34 -4 -59.5 -8.5t-51.5 -10.5q-29 -6 -60 -11.5t-73 -8.5q-19 -2 -33 11q-6 6 -10 14t-5 17q-6 127 -12.5 275.5t-9.5 305t-1 316.5z" />
<glyph unicode="\" horiz-adv-x="485" d="M20 1166q-3 17 6 31t26 17q17 4 31 -5.5t17 -26.5q19 -95 50 -186.5t64 -181.5q18 -49 36 -98.5t34 -100.5l39 -123q32 -106 67 -213t77 -212q6 -16 -0.5 -31.5t-22.5 -21.5q-16 -7 -31.5 0t-21.5 23q-43 107 -78 215.5t-69 215.5l-38 122q-16 49 -33.5 98.5t-35.5 97.5 q-34 92 -65.5 186t-51.5 194z" />
<glyph unicode="]" horiz-adv-x="413" d="M1 1067q-1 19 11 32t31 15q45 2 71.5 -1.5t52.5 -8.5q18 -3 38.5 -6t50.5 -5q17 -1 29 -13t13 -29q7 -118 11.5 -221.5t6.5 -198.5t2 -186.5t-2.5 -186t-7 -196t-10.5 -217.5q0 -21 -18 -34q-8 -5 -18 -7t-19 1q-40 11 -81.5 12.5t-95.5 -5.5q-19 -3 -33.5 8t-16.5 29 q-2 19 9 33.5t29 16.5q46 6 84.5 6.5t74.5 -4.5q5 104 8.5 196.5t5.5 180t2.5 172t-1.5 173t-6 183.5t-10 202q-37 4 -62 10q-23 5 -44.5 7.5t-58.5 0.5q-18 -2 -31.5 10.5t-14.5 30.5z" />
<glyph unicode="^" horiz-adv-x="497" d="M13 596q-5 16 3 31q13 24 27 54t29 63q25 52 51 106.5t54.5 104t59.5 91t65 68.5q14 11 32 8q17 -3 28 -19q18 -29 29.5 -59t19 -60.5t11.5 -61.5t8 -61q6 -54 15.5 -104.5t35.5 -95.5q8 -14 3.5 -30.5t-18.5 -25.5q-15 -8 -31.5 -4t-24.5 19q-32 56 -43.5 114.5 t-18.5 116.5q-7 57 -17 109.5t-39 99.5q11 -16 28 -19q18 -3 32 9q-28 -22 -55 -60.5t-53.5 -85t-50.5 -97.5t-46 -98q-16 -33 -30.5 -63.5t-28.5 -56.5q-8 -15 -24 -20t-31 3t-20 24z" />
<glyph unicode="_" horiz-adv-x="885" d="M-8 -74q-5 17 3.5 33.5t25.5 21.5q34 11 73 15.5t79.5 5.5t81 -1t79.5 -5q32 -2 62 -3.5t57 -1.5h389q18 0 31 -13t13 -31q0 -19 -13 -31.5t-31 -12.5h-389q-29 0 -60 1.5t-64 3.5q-36 2 -73.5 4t-74.5 1.5t-71 -4t-63 -12.5q-17 -5 -33.5 3.5t-21.5 25.5z" />
<glyph unicode="`" horiz-adv-x="333" d="M74 1153q-1 17 10 30t28 14t30 -10q34 -30 60.5 -71.5t49.5 -81.5q18 -32 33 -57q10 -14 6 -30.5t-18 -25.5q-14 -10 -30.5 -6t-26.5 18q-9 14 -17.5 29t-17.5 31q-22 38 -44.5 73.5t-48.5 58.5q-13 11 -14 28z" />
<glyph unicode="a" horiz-adv-x="679" d="M52 499q0 30 17 61.5t40 59t47.5 49t39.5 31.5q14 9 43.5 25.5t66.5 28.5t77 12q1 0 2 -1q39 0 73 -21q45 -28 70 -65.5t37.5 -80t15.5 -87.5t4 -88q0 -43 3 -80q1 -5 1 -9v-8q3 -6 3 -14v-27v-6q1 -2 1 -4t1 -4v-11q2 -22 9 -41q5 -13 9.5 -27t9.5 -30q4 -10 9 -20 t9.5 -21t6.5 -24v-5q0 -10 -7 -20q-9 -12 -24 -14q-14 -2 -25.5 7t-13.5 24q-1 3 -4 9.5t-5 12.5q-4 7 -7.5 14.5t-5.5 15.5q-1 2 -1.5 4t-1.5 4q-11 -16 -25 -31.5t-32 -32.5q-30 -27 -73 -45q-43 -20 -91 -26q-22 -3 -44 -3q-25 1 -51 5q-48 8 -87 32q-63 40 -75 110 q-3 17 -3 35q1 25 7 51q12 44 40 82q30 40 72 69t90 44q46 15 96 15h3q48 0 92 -15q12 -5 22.5 -11t20.5 -14v7q-1 40 -3.5 78.5t-11.5 73t-27 63t-51 48.5q-16 10 -38.5 10.5t-47.5 -6t-51 -19t-49 -27.5q-17 -11 -36.5 -29.5t-36.5 -39t-28 -40t-11 -32.5q0 -15 -10 -25.5 t-25 -10.5q-14 -1 -24.5 9.5t-11.5 24.5zM143 171q7 -40 44 -64q25 -17 60 -23q19 -3 39 -3q16 1 32 3q36 4 70.5 17.5t59.5 36.5q19 17 32 32t21.5 31t13 33.5t6.5 40.5q-9 31 -28.5 59.5t-45.5 38.5q-30 11 -66 11h-5q-38 -1 -75.5 -13t-71 -34.5t-55.5 -52.5 q-20 -27 -28 -57q-5 -18 -5 -35q0 -11 2 -21z" />
<glyph unicode="b" horiz-adv-x="854" d="M28 1433q-1 5 -1 10q-1 13 7 23q10 16 29 20q5 1 10 1q13 1 23 -7q16 -10 20 -29q12 -64 22.5 -116.5t19 -99.5t14.5 -90.5t10 -88.5t6 -93.5t2 -106.5v-104v-165l19 -5q18 38 37.5 68.5t39.5 53.5q48 57 108 79q36 13 74 13q24 0 49 -5q40 -9 78.5 -32t70.5 -56 t56.5 -75t37.5 -89q11 -39 16 -87q3 -30 3 -61q0 -19 -1 -37q-3 -50 -14.5 -99t-33.5 -89q-34 -61 -86 -101.5t-115 -54.5q-43 -9 -85 -10h-10q-36 0 -72 6q-40 7 -77.5 21.5t-67.5 35.5q-43 29 -70 72l-2 3l-3 1q-13 5 -20.5 15.5t-9.5 23.5l-3 55v1q-2 10 -2 15q-2 7 0 15 v1v1q-6 125 -6.5 249t-0.5 238v103q0 84 -4.5 150t-13.5 130t-22.5 134t-31.5 163zM202 228q18 -58 67 -92q45 -32 110 -42q27 -4 54 -4l76 8q28 6 51 18.5t40 28t29.5 32.5t21.5 33q16 29 25 68t11 81q1 15 1 30q0 26 -2 53q-4 41 -13 73q-10 34 -28 65.5t-41 56.5 t-50.5 42.5t-55.5 23.5q-15 3 -30 3q-62 0 -114 -60q-27 -32 -53 -81t-48 -110q-22 -59 -35 -117t-16 -107v-1v-2z" />
<glyph unicode="c" horiz-adv-x="788" d="M62 365q0 49 10 102.5t33 103.5t59 93.5t89 71.5q22 11 48.5 20t55 12.5t56.5 2t54 -11.5q-1 1 -1 4q-4 35 -8 73q-2 24 -2 48q0 14 1 28q0 17 13 29t30 12q17 -1 29 -14t11 -30q0 -8 -1 -17q0 -25 3 -50q3 -34 7 -69q5 -35 8 -71q2 -27 2 -55v-18q0 -17 -11.5 -28.5 t-28.5 -12.5t-29 9.5t-14 27.5q-3 26 -13 37t-19 16q-14 7 -33.5 9t-40 -1t-41 -9.5t-37.5 -15.5q-41 -21 -68.5 -56t-45 -75.5t-25.5 -83.5t-8 -81q0 -56 17.5 -108.5t48.5 -86.5q14 -16 36 -30t47.5 -25t52.5 -18t51 -8h10q62 -1 128 23q70 26 125 74q13 11 30.5 10.5 t28.5 -14.5q10 -12 10 -28q0 -19 -14 -31q-33 -29 -72 -51.5t-80 -37.5q-42 -14 -85 -22q-34 -6 -67 -6h-17q-29 1 -62 8.5t-66.5 21t-64 33.5t-53.5 45q-24 27 -41 59t-27.5 65.5t-14.5 66t-4 60.5z" />
<glyph unicode="d" horiz-adv-x="715" d="M67 324q-4 44 -4 82q0 47 6 85q11 70 34.5 119t55.5 79t64 47q48 26 103 28q6 0 12 1q49 0 97 -18q34 -13 59 -31l18 -13l-2 22q-8 94 -16.5 173.5t-15.5 161.5t-11.5 174.5t-4.5 211.5q0 18 12.5 30.5t30.5 12.5q17 0 30 -12.5t13 -30.5q0 -91 2.5 -170.5t7 -153 t11 -144t14 -143.5t15.5 -152t17 -169q2 -23 6 -46.5t8 -46.5q8 -51 14 -105q3 -23 2 -47q0 -31 -4 -63q-14 -104 -95 -158q-48 -32 -112 -40q-19 -2 -37 -2q-45 0 -92 13q-110 31 -168 104.5t-70 200.5zM152 332q10 -99 51 -153q42 -55 125 -77q35 -10 69 -11q12 0 24 2 q45 5 77 26q50 33 59 99q3 24 3 48q0 22 -2 44q-6 46 -14 98l-1 7q-4 23 -7.5 45.5t-5.5 45.5l-3 39l-5 3q-12 8 -16 20q-13 34 -39.5 59.5t-61.5 39.5q-32 12 -64 12h-9q-37 -2 -69 -19q-115 -60 -115 -255q0 -34 4 -73z" />
<glyph unicode="e" horiz-adv-x="709" d="M60 424q2 48 16 95q1 3 3 11q2 2 2 4q19 56 53 104t88 82q50 30 108 30t108 -32q44 -28 66 -74q16 -34 16 -73q0 -13 -1 -26q-4 -30 -17.5 -58.5t-34 -53.5t-47 -44t-56.5 -29q-31 -11 -61 -11q-17 -1 -33 3q-46 10 -81 44l-13 14q-6 5 -15.5 14.5l-20.5 20.5 q-3 -24 -3 -48q0 -27 4 -52q6 -40 22.5 -81.5t41.5 -77t58 -61.5t73 -35q24 -6 58 -3.5t68.5 16.5t66 42.5t51.5 74.5q6 15 21 21t30 -1q14 -6 20 -21q3 -8 3 -15.5t-3 -14.5q-24 -56 -63.5 -93.5t-85 -59t-93.5 -26.5q-17 -2 -34 -2q-29 0 -56 6q-53 12 -96.5 44.5 t-76.5 76.5t-54 96t-28 103q-4 30 -4 63q-1 13 0 27zM162 530q14 -11 30.5 -27t38.5 -38l13 -13q24 -24 50 -25h6q22 0 39 6q19 7 37 19.5t31.5 28.5t22.5 35t12 38q1 9 1 17q0 11 -2 20q-4 16 -11.5 28t-17 20t-16.5 13q-30 20 -66.5 20t-66.5 -18q-36 -23 -61 -55t-40 -69 z" />
<glyph unicode="f" horiz-adv-x="758" d="M-3 664q0 16 11 28q11 14 30 16q35 3 58 5.5t42 4.5q26 2 47.5 4t54.5 4l39 2l-1 10q-9 88 -20 152t-21.5 107t-18 68t-8.5 35v1q-5 46 -9 98q-1 18 -1 36q0 33 4 65q8 50 32.5 92t75.5 69q46 24 98 24t100.5 -17t90.5 -48t69 -70q40 -60 40 -121q0 -40 -19 -76 q-22 -38 -63 -57q-36 -18 -83 -18h-10q-27 2 -38 26q-13 28 -13 59v4q1 33 16 62q9 17 26.5 22t34.5 -4q15 -8 21 -23.5t0 -31.5l-11 -30l27 19q9 6 14 16q11 20 6.5 48t-22.5 54t-47 48t-62 35q-37 14 -70 14h-2q-34 -1 -62 -15q-28 -15 -42 -40.5t-19 -60.5q-2 -22 -2 -48 v-30q3 -43 9 -91q1 -10 8.5 -36.5t18 -71.5t22 -110.5t20.5 -154.5l1 -9h79l22 1h64t51 1q19 0 32 -12.5t14 -31.5q1 -17 -12 -32q-12 -14 -32 -14q-21 -1 -51 -1h-64l-94 -1l1 -11l12 -112q22 -204 34 -327t12 -158q0 -19 -13 -32t-32 -13t-32 13t-13 32q0 16 -3.5 61 t-10 109t-14.5 141.5t-17 160.5l-14 135h-9q-11 -1 -19 -1t-16 -1q-32 -2 -52.5 -3.5t-44.5 -4.5h-4q-17 -2 -40.5 -4.5t-56.5 -5.5q-19 -2 -33 11q-16 15 -16 35z" />
<glyph unicode="g" horiz-adv-x="818" d="M58 -452q8 17 25 24q17 6 34 0q16 -7 24 -25q18 -44 45.5 -78t62.5 -56.5t76 -32.5q27 -6 55 -6q15 0 30 2q34 4 69.5 19t66.5 43.5t54.5 70.5t33.5 101q15 97 16 184v28q0 70 -4 126q-6 78 -19 146l-15 -8q-121 -72 -226 -72q-11 0 -21 1q-114 8 -192 99q-38 44 -62 105 t-33 127q-6 40 -6 80q0 25 2 50q6 66 30 119q20 43 58 79t92 62q49 23 100 32q28 5 52 5q22 0 42 -4q59 -11 100.5 -44t69.5 -79.5t45 -103t26.5 -114t13.5 -113t6 -99.5l1 -18q1 -26 9.5 -86t14.5 -141q5 -69 5 -151v-27q-1 -97 -17 -197q-10 -64 -36.5 -117.5t-66 -94 t-90.5 -65.5t-109 -32q-18 -2 -36 -2q-40 0 -78 9q-55 13 -102.5 43t-85 75t-60.5 102q-4 8 -4 17t4 17zM164 464q-2 -19 -2 -39q0 -33 4 -67q8 -53 27.5 -102.5t48.5 -83.5q58 -68 145 -68q16 0 33 2q80 12 178 76q4 3 14 7l9 2l-1 20q-2 38 -5 85.5t-10.5 97.5t-20 98 t-32.5 87t-50 66t-71 35q-13 2 -27 2q-18 0 -38 -4q-36 -6 -73 -23q-38 -18 -66 -43t-41 -54q-18 -41 -22 -94z" />
<glyph unicode="h" horiz-adv-x="764" d="M-10 1581q2 19 16 31q13 11 30 11q2 -1 4 -1q19 -2 32 -16q13 -16 25.5 -63.5t23.5 -114.5t21 -147.5t18 -162t14.5 -158t11.5 -136t7.5 -96.5t2.5 -38l8 -138q4 12 7.5 24t7.5 23q9 28 32.5 70t55 85.5t69.5 81.5t77 57q33 16 63 16q20 0 38 -7q46 -17 71 -70.5 t35 -137.5q10 -77 10 -175v-19q-1 -110 -6 -242q-2 -62 -4 -116q-1 -27 -1 -50t1 -42q0 -19 -12.5 -33t-32.5 -15h-3q-18 0 -30 12q-14 13 -15 33t-1 44q0 23 1 51q2 54 4 119q2 39 3.5 94t1.5 115q0 12 1 23q0 48 -2 95q-2 59 -7.5 107t-16.5 80.5t-28 38.5q-7 3 -15 0.5 t-15 -5.5q-27 -13 -56.5 -43.5t-55.5 -66.5t-46 -71.5t-28 -58.5q-42 -123 -64 -242.5t-22 -230.5q0 -19 -13 -32.5t-33 -13.5t-33 13.5t-13 32.5q0 114 -5.5 225.5t-12.5 221.5l-8 142q-4 64 -10.5 148.5t-15 175.5t-18.5 181.5t-20.5 165t-20.5 126.5t-19 67l1 -2 q-10 13 -10 29v5z" />
<glyph unicode="i" horiz-adv-x="563" d="M35 1365q0 19 14 31l2 2v2q17 46 52.5 80.5t85.5 51.5q41 15 82 15q21 0 43 -4q62 -12 105 -54q32 -32 53 -83t25 -110q1 -15 1 -30q0 -46 -12 -86q-16 -54 -48 -90q-37 -40 -81 -53q-20 -6 -40 -6q-25 0 -52 9q-42 14 -82.5 49.5t-75.5 88.5q-30 46 -49 94 q-23 60 -23 93zM130 1339q7 -27 23.5 -60.5t38.5 -64.5t48 -55.5t53 -33.5q15 -5 34.5 -3t43.5 29q19 21 29 57q8 30 8 65v15q-3 43 -16.5 79t-35.5 58q-24 24 -62 30q-11 2 -22 2q-26 0 -53 -10q-38 -13 -61 -39.5t-27 -60.5l-1 -6v-2zM274 770q0 19 13 32t32 13 q18 0 31 -13t13 -32q0 -57 3.5 -113t7.5 -112v-4q2 -32 3.5 -63t3.5 -60q2 -20 4 -39t5 -41v-1q0 -1 1 -2q3 -25 6 -50.5t3 -52.5q0 -18 4 -36t8 -35q6 -23 10 -49q3 -16 3 -33q0 -11 -1 -23q-2 -19 -16 -31q-12 -10 -27 -10h-5q-19 2 -31 16.5t-10 32.5q2 17 -1.5 35.5 t-8.5 39.5v1q-5 19 -9.5 42t-5.5 49q0 25 -2.5 48.5t-6.5 46.5q-3 23 -5.5 44t-3.5 43q-2 26 -3 52t-3 51l-2 19v8q-4 56 -7 113t-3 114z" />
<glyph unicode="j" horiz-adv-x="842" d="M34 -458q-1 12 -1 24q0 78 26 179q5 18 21 27.5t34 4.5t27.5 -21t4.5 -34q-13 -50 -18 -92q-5 -35 -5 -66v-11q1 -36 9.5 -67.5t24.5 -60.5q36 -67 103 -101q58 -29 132 -29q12 0 23 1q103 7 168 48.5t97 123.5q16 41 20 116q1 28 1 58q0 52 -4 111q-6 94 -19.5 198 t-32.5 203.5t-41 186t-44 144.5l-2 4q-16 42 -32 83.5t-31 83.5q-6 16 2 34q8 17 25 23q19 6 34 -1q18 -8 24 -26q15 -42 31 -84.5t33 -84.5q17 -45 34.5 -109.5t33 -140t29 -159t24 -167t16 -163t5.5 -147.5q0 -64 -5.5 -114t-17.5 -82q-83 -213 -343 -228q-15 -1 -31 -1 q-39 0 -77 8q-51 10 -95 32.5t-79.5 56.5t-59.5 79q-40 74 -44 160zM223 1245v1v15q0 40 16 83t42 80t60.5 64.5t71.5 37.5q36 10 69 10q27 0 52 -7q55 -15 93 -61q25 -31 39.5 -73t17.5 -89v-20q0 -37 -8 -76q-9 -48 -30 -91q-35 -71 -92 -109q-54 -35 -120 -35h-7 q-67 3 -119 60q-38 40 -61 97.5t-24 112.5zM312 1260q1 -3 1 -9v-1v-1v-5q0 -16 4.5 -35.5t12 -39.5t18.5 -39t25 -34q10 -11 24.5 -20.5t32.5 -10.5h6q23 0 43 7q22 9 38.5 22.5t28.5 30t20 33.5q15 31 22 67q6 31 6 61v9q-1 34 -10.5 64.5t-26.5 51.5q-28 35 -76 35 q-21 0 -45 -7q-20 -5 -42 -23t-40 -43t-30 -54.5t-12 -56.5v-1v-1z" />
<glyph unicode="k" horiz-adv-x="812" d="M35 1558q0 19 13 32t32 13t32 -13t13 -32q0 -57 6.5 -128.5t17 -150.5t23.5 -161t26 -161q13 -77 24 -147t19 -132l3 -26l36 51l21 29q17 25 33.5 50.5t32.5 51.5l2 4q35 55 71.5 110t84.5 105q12 14 31 14q20 0 32 -13q14 -12 14 -31q0 -20 -12 -32q-43 -45 -76.5 -95 t-67.5 -105l-5 -8q-16 -25 -32.5 -50.5t-33.5 -51.5l-22 -30q-24 -33 -42 -62t-27.5 -55.5t-9.5 -53t13 -54.5q19 -42 48 -74t65.5 -56.5t78 -45t85.5 -40.5h1q61 -28 122 -59.5t112 -78.5q14 -12 14 -31q1 -17 -12 -32q-12 -14 -31 -14h-3q-16 0 -29 11q-43 40 -97 67.5 t-114 54.5l-68 32t-66.5 35t-62.5 41t-56 50l-18 18l-1 -81l-2 -165q0 -19 -13 -32t-32 -13q-18 0 -31 13t-13 32l1 166v8q3 78 3 156v18q0 70 -4 139q-2 34 -7 79t-12.5 97t-16.5 109.5t-19 117.5q-13 79 -26.5 162.5t-24 163t-17 152.5t-6.5 132z" />
<glyph unicode="l" horiz-adv-x="369" d="M59 1566q-1 4 -1 7q0 14 10 26q12 15 29 17q4 1 7 1q14 0 26 -10q15 -10 18 -30q25 -189 42.5 -371t32.5 -360q2 -28 7 -76t11 -107.5t12.5 -126.5t13.5 -133t13.5 -127.5t11.5 -109t8 -78t4 -35.5q0 -18 -13 -31t-32 -13q-18 0 -31.5 13t-13.5 32v1q0 1 -3 29t-8 74.5 t-11 106.5t-13 126t-14 133.5t-13 127.5t-11 108.5t-7 77.5q-15 168 -32 352.5t-43 375.5z" />
<glyph unicode="m" horiz-adv-x="1006" d="M23 705q-3 7 -3 14q0 8 4 15q7 14 22 20q7 3 14 3q8 0 15 -4q44 -20 84.5 -57t63.5 -77q16 -27 27 -56t19 -59q30 59 72 100q22 21 41.5 32.5t36.5 16t31.5 3.5t25.5 -5q33 -11 56.5 -44t34.5 -86q3 -16 5.5 -32.5t4.5 -33.5q12 32 30.5 70t44 71.5t58 56t73.5 24.5h5 q44 0 75 -31q19 -19 30.5 -46t17.5 -58t8 -64t2 -63q0 -21 -1.5 -48.5t-4.5 -59t-6 -65.5t-6 -66q-5 -45 -8 -83.5t-3 -53.5q0 -16 -11 -27t-28 -11q-16 0 -27 11t-11 27q0 18 3.5 56t8.5 89q3 30 6 62.5t5.5 63.5t4 58.5t1.5 46.5v8q0 134 -34 168q-9 9 -24 9 q-26 -1 -50 -24t-44 -57t-35.5 -73t-24.5 -73q-5 -14 -9 -28t-9 -28q-9 -26 -16 -51t-9 -49v-19q0 -16 -11 -27t-27 -11q-15 -1 -26.5 9.5t-12.5 26.5v2v20v21q0 82 -5 147.5t-16 119.5q-7 35 -18.5 52t-20.5 20t-24.5 -5t-33.5 -25q-20 -19 -37 -44.5t-29.5 -54.5 t-20.5 -60.5t-9 -61.5v-50q0 -22 -0.5 -44.5t-3.5 -44.5q-2 -8 -3 -16l-2 -16q-1 -2 -1 -6q-1 -25 -2 -48.5t-1 -46.5q0 -14 -9.5 -25t-23.5 -13t-26 6.5t-16 22.5q-8 29 -6 57.5t7 55.5q0 3 0.5 6t0.5 5q2 54 3 108v19q0 45 -4 89q-5 52 -17.5 101.5t-37.5 93.5 q-7 12 -18 26.5t-26 28.5t-32.5 26t-36.5 21q-14 7 -20 22z" />
<glyph unicode="n" horiz-adv-x="654" d="M21 741q5 15 19 22q8 4 18 4q6 0 12 -2q30 -11 52.5 -32t39 -51t27.5 -67t17 -79q9 28 21 53t28.5 45.5t38.5 35.5t51 23q15 4 29 4q24 1 48 -11q36 -18 65.5 -51t50 -72.5t28.5 -69.5q18 -67 18 -140q0 -4 1 -9q0 -68 -8 -130q-8 -66 -20.5 -117.5t-19.5 -75.5 q-5 -15 -19 -23q-9 -5 -18 -5q-5 0 -11 1q-16 5 -23.5 19t-2.5 30q14 46 25 101.5t16 112.5q4 41 4 81q0 16 -1 32q-2 56 -15 102q-6 24 -21 51.5t-33 50t-37.5 36t-35.5 9.5q-29 -8 -47.5 -31.5t-30.5 -56t-19.5 -71t-13.5 -75.5q-6 -34 -12 -65t-15 -57 q-8 -18 -12.5 -34.5t-8.5 -32.5q-5 -42 -9 -78q-2 -16 -14 -25.5t-28 -8.5q-15 2 -25.5 13t-9.5 27q1 43 9 85q10 95 10 176q-1 5 -1 9q0 84 -11 146.5t-32 101.5t-51 50q-15 6 -22 20q-4 8 -4 15t3 14z" />
<glyph unicode="o" horiz-adv-x="915" d="M61 344q-6 38 -6 75q0 54 13 107q22 88 76 154q5 16 20 25q14 7 29 17q37 21 75.5 40.5t86.5 24.5q42 5 82 5q77 0 143 -18q100 -27 167 -93q58 -56 84 -133q20 -59 19 -128q0 -21 -1 -44q-8 -100 -63.5 -184.5t-148.5 -135.5q-93 -52 -195 -52h-2q-100 0 -189 49 q-75 40 -124.5 117t-65.5 174zM148 358q12 -78 50 -138t95 -90q67 -37 145 -38q2 0 4 1q80 1 153 41q72 39 116.5 104.5t49.5 143.5q1 18 1 36q0 126 -76 200q-52 51 -136 72q-55 14 -117 14q-33 0 -68 -4q-33 -4 -64 -19.5t-63 -34.5q-3 -2 -6.5 -4.5t-7.5 -4.5q-1 0 -1 -1 q-48 -50 -68 -124q-12 -45 -12 -92q0 -30 5 -62z" />
<glyph unicode="p" horiz-adv-x="837" d="M43 641q-2 6 -2 12q0 10 5 19q23 43 63.5 66t84.5 33.5t84 12.5t61 2q85 0 161 -30t133 -82t91 -122t36 -149v-10q0 -67 -24 -129q-27 -66 -79 -119q-61 -63 -143 -96.5t-173 -34.5q-42 0 -68.5 5.5t-49.5 14.5l-14 6v-15q-1 -55 -2 -109t-3 -108v-39q-3 -100 -5 -201 q-1 -50 -1 -100t1 -100q0 -16 -12 -30q-12 -12 -29 -12h-3q-15 0 -27 11q-12 12 -12 29q-1 52 -1 103.5t1 102.5q2 104 5 207v9q2 81 4 170t2 178q0 48 -0.5 95.5t-2.5 90.5v18l-2 90v45.5v45.5q0 19 -1 41.5t-3 45.5l-1 16l-14 -7q-10 -5 -20.5 -5.5t-19.5 4.5 q-15 8 -20 25zM193 686l1 -9q3 -18 4.5 -39l3 -42t2 -40.5t0.5 -34.5q0 -96 3 -190v-7l1 -19q1 -41 1.5 -83t0.5 -84v-7l12 -6q16 -8 28.5 -13t25.5 -8.5t28 -5t37 -1.5q72 0 140 28t116 77q14 15 28.5 34.5t26.5 44.5t19 55q6 26 6 56v9q-2 63 -29 118t-73 96t-106.5 64.5 t-129.5 23.5q-85 0 -137 -15z" />
<glyph unicode="q" horiz-adv-x="861" d="M70 328q1 58 18.5 114.5t46.5 103.5q28 45 70 83t91.5 60t103.5 24h7q50 0 98 -25q39 -20 65.5 -49.5t43 -63.5t24.5 -70.5t11.5 -70t3 -61.5t-1.5 -45q-1 -15 -2.5 -38.5t-5.5 -58.5l-2 -20l18 10q30 18 63 28.5t68 14.5q16 2 27 -9q12 -9 14 -25q0 -8 -2 -15t-7 -12 q-9 -12 -25 -14q-51 -5 -95 -29t-70 -62l-2 -3l-1 -15l4 -4q9 -7 26.5 -27t47.5 -63q104 -156 130 -362q0 -2 1.5 -18t1.5 -42q1 -8 1 -17q0 -19 -1 -41q-1 -33 -6 -68q-26 -178 -135 -208q-16 -6 -32 -6q-6 0 -13 2q-22 3 -41 16q-23 16 -37.5 42t-24.5 59.5t-15 71.5 t-8 78l-1 11q-5 61 -7 104v48v29q1 34 4 63.5t8 64.5q4 29 8 65.5t9 85.5l8 92l-17 -10q-42 -23 -97 -32q-27 -4 -54 -4q-29 0 -59 5q-58 9 -106.5 34t-80.5 61q-41 46 -58 102q-16 52 -16 106q0 5 1 10zM145 318q0 -44 12.5 -85t41.5 -74q26 -29 66.5 -48t90.5 -24 q18 -2 36 -2q29 0 56 6q44 10 74 33q13 10 30 7l11 -3l1 12q5 55 7.5 101.5t4.5 89.5q1 17 1 34q0 204 -105 256q-34 17 -68 17h-9q-39 -3 -75.5 -20.5t-68 -47t-53.5 -64.5q-24 -39 -38.5 -88t-14.5 -100zM598 -386.5q0 -57.5 4 -103.5l1 -11q14 -169 53 -195q3 -2 8 -4h4 q4 0 11 2q17 5 29.5 18t22 30t15.5 37t10 39q8 43 10 93v25q0 36 -4 71q-11 91 -26 152t-31.5 100.5t-34.5 62t-35 38.5l-15 15l-2 -21q-5 -51 -9.5 -110.5t-7.5 -120t-3 -118z" />
<glyph unicode="r" horiz-adv-x="697" d="M38 918q-2 7 -2 14q0 10 4 20q8 17 26 23q7 2 13 2q11 1 21 -5q16 -8 23 -26q12 -36 24.5 -91.5t24 -118t22 -125t18.5 -111.5l5 -36l15 28q25 51 60 91.5t77 68.5q66 45 129 44q24 0 48 -6q38 -11 70 -33t61 -45q15 -12 17 -30v-5q0 -15 -9 -28q-11 -14 -29.5 -16.5 t-33.5 8.5q-35 27 -60.5 43.5t-48 21t-44.5 -2.5t-50 -25q-51 -35 -88 -93t-54 -131l-3 -15q-5 -17 -9 -35.5t-7 -38.5l-1 -2l1 -2q10 -50 17 -106q4 -33 5 -65q0 -23 -3 -45q-2 -14 -11 -25t-23 -15q-5 -1 -10 -1q-9 0 -17 3q-13 5 -21 17q-28 42 -35 100q-2 20 -2 43 q0 42 8 93v2l-10 47q-6 28 -11.5 54.5t-10.5 52.5l-10 63q-7 46 -17 107.5t-21.5 124t-24 118t-23.5 89.5z" />
<glyph unicode="s" horiz-adv-x="624" d="M58 241q-1 4 -1 8q1 11 7 19q8 12 23 16q15 3 27.5 -5.5t15.5 -23.5q4 -23 21 -49t40 -50t49.5 -42t49.5 -24q17 -4 33 -4q30 0 52 16q20 14 32.5 41t14.5 61v13q0 101 -105 213l-26 26q-20 19 -41.5 41.5t-38.5 48.5t-25.5 54.5t-1.5 59.5q14 65 72 94q36 19 82 18h2 q48 0 91 -20q35 -15 56 -38t38 -46q5 -6 9.5 -12.5t9.5 -12.5q8 -10 8 -23q0 -18 -14 -29q-12 -10 -27 -8t-25 14q-5 7 -10 13.5t-10 13.5q-16 21 -29.5 36.5t-35.5 24.5q-27 13 -58.5 13.5t-53.5 -10.5q-26 -13 -33 -44q-3 -16 4 -33.5t20.5 -35.5t30 -34.5l31.5 -31.5 l28 -28q127 -134 126 -265v-17q-4 -51 -24 -91.5t-54 -65.5q-41 -30 -94 -30q-25 0 -53 7q-34 9 -69 32t-65 54t-51.5 67t-27.5 69z" />
<glyph unicode="t" horiz-adv-x="612" d="M69.5 805q14.5 14 34.5 13q35 -1 69.5 -2t68.5 -3h8q-1 23 -1.5 47t-0.5 47q-2 94 -7 187t-12 185q-2 33 -4.5 53.5t-4.5 34t-4 24t-3 25t-2 35t-1 55.5q0 20 14 34t34 14t34 -14t14 -34q0 -34 1 -54t2 -33.5t3 -23.5t4 -23.5t4.5 -33t4.5 -52.5q7 -94 12 -188t7 -190 v-48.5t2 -49.5q42 -2 83.5 -2t83.5 2q20 1 34.5 -12.5t15.5 -33.5v-3q-1 -17 -13 -31q-14 -14 -33 -16q-42 -2 -83.5 -2t-83.5 1q2 -33 3.5 -66.5t3.5 -66.5q4 -74 7.5 -149.5t5.5 -151.5q0 -21 3 -43.5t5 -46.5q5 -35 8 -71q2 -18 2 -35t-2 -35q-2 -20 -17 -33 q-13 -11 -30 -11h-5q-20 2 -33 17t-11 35q3 28 0 58.5t-7 62.5q-3 24 -6 49t-4 51q-1 75 -4.5 149.5t-7.5 148.5q-2 35 -4 70.5t-4 71.5h-15q-33 2 -67.5 3t-68.5 2q-20 0 -34 14q-13 14 -13 32q0 23 14.5 37z" />
<glyph unicode="u" horiz-adv-x="703" d="M84 544q0 76 1 150l1 136q0 17 12.5 29.5t29.5 12.5t29.5 -12.5t12.5 -29.5l-1 -137q-1 -73 -1 -147q0 -8 -1 -17q0 -66 4 -133l1 -35q1 -32 3.5 -70.5t10 -74t22.5 -64t41 -40.5q39 -19 73 -19q33 0 62 17q34 20 59.5 58.5t43.5 83.5t28.5 91.5t12.5 84.5l4 80 q4 54 6.5 108t2.5 107q1 17 13 29.5t29 12.5q18 0 30 -12.5t12 -29.5q0 -54 -3 -110t-6 -110l-5 -79q-2 -43 -13.5 -98.5t-34 -110t-56.5 -102t-81 -75.5q-17 -10 -38.5 -18t-48.5 -10q-7 -1 -15 -1q-22 1 -44 5q-32 6 -67 22q-43 21 -67.5 59t-36.5 83.5t-15.5 93 t-4.5 87.5l-2 33q-3 76 -3 152z" />
<glyph unicode="v" horiz-adv-x="636" d="M19 762q13 13 30.5 12.5t29.5 -13.5q115 -120 189.5 -268.5t106.5 -322.5q22 57 44 135.5t41.5 162t35 163.5t24.5 140q2 17 16 28q11 9 25 9q4 0 7 -1q18 -3 28 -17q8 -11 8 -24v-8q0 -1 -5 -30t-13.5 -76.5t-21 -108.5t-28 -126.5t-34 -130.5t-39 -120.5t-43 -97 t-46.5 -59.5q-12 -9 -25 -9q-9 0 -18 4q-23 10 -25 35q-17 198 -90.5 365.5t-198.5 297.5q-12 12 -12 29q0 19 14 31z" />
<glyph unicode="w" horiz-adv-x="885" d="M36 734q-1 5 -1 9q0 9 5 17q8 12 22 17q5 1 10 1q8 0 16 -4q12 -8 17 -22q8 -32 16.5 -83t18.5 -114q6 -42 14.5 -96t19 -108.5t22 -103.5t24.5 -82q5 8 11 17.5t13 20.5q19 30 45.5 73t50.5 87t41 82.5t17 58.5q0 14 10.5 24.5t24.5 11.5q14 0 24.5 -9.5t11.5 -23.5 q3 -28 11.5 -77.5t21 -105.5t26.5 -110.5t28 -92.5q12 25 30 69t45 115t64 174t85 245q5 14 18 21t27 2q15 -5 21 -19q4 -8 3 -15q0 -6 -2 -12q-56 -163 -96.5 -276.5t-70 -188.5t-48.5 -117.5t-31 -64.5t-19 -28.5t-12 -9.5q-8 -4 -18 -4h-6q-13 2 -21 12 q-14 16 -28.5 53.5t-28 85.5t-26 101t-21.5 100q-23 -45 -53.5 -95t-63.5 -104q-14 -23 -27.5 -45t-18.5 -31q-1 -10 -7 -18q-10 -11 -24.5 -12.5t-25.5 7.5q-23 18 -41 60t-33.5 103.5t-29 141t-28.5 173.5q-9 61 -17 111t-16 79z" />
<glyph unicode="x" horiz-adv-x="661" d="M32 721q6 16 22 23q9 5 18 5l14 -3q16 -6 23 -22q5 -9 28 -39t57 -73t76 -94.5t85 -103.5q10 17 19 31t16 26q17 25 31 52l28 54q20 40 42 80t50 75q11 14 28 16q3 0 5 1q14 0 26 -10q14 -11 16 -27.5t-9 -30.5q-24 -31 -44 -67t-40 -75q-14 -28 -29.5 -56.5t-33.5 -56.5 q-9 -15 -22 -35.5t-28 -44.5q29 -34 54 -64t46 -56l110 -134q10 -12 10 -27q0 -19 -16 -31q-14 -11 -30.5 -9.5t-27.5 15.5l-110 133q-22 26 -42 50.5t-39 47.5q-20 -33 -40 -67.5t-38 -66.5t-33 -60.5t-25 -50.5q-7 -16 -23 -22q-7 -3 -15 -3l-17 4q-16 8 -22 23.5t2 31.5 q11 25 28.5 58t38.5 70t43.5 76t44.5 75q-127 155 -196 242t-79 108q-5 9 -5 18q0 7 3 14z" />
<glyph unicode="y" horiz-adv-x="909" d="M56 689q0 23 15 38t37 15q23 0 38 -15t15 -37q1 -80 16 -162.5t46 -173.5q13 -37 27.5 -73t32.5 -66t40.5 -52.5t52.5 -31.5q25 -8 52 -8q11 0 22 1q39 5 80 25q37 18 68.5 45t52.5 59t33 69.5t19 79t9.5 84.5t2.5 87v83q0 22 15 37t37 15t37.5 -15t16.5 -37v-671v-32.5 t1 -46.5v-2q3 -66 3 -148q0 -75 -5 -154t-21 -151t-44.5 -131.5t-76.5 -95.5q-15 -12 -36.5 -22.5t-48.5 -15.5q-19 -4 -42 -4q-9 0 -19 1q-34 2 -75 15q-27 9 -61.5 34t-67 56.5t-58 65t-35.5 57.5q-9 20 0 40q8 20 29 28q20 9 40.5 0.5t28.5 -28.5q6 -15 26 -39t44 -48 t48 -42.5t38 -23.5q30 -9 51.5 -10t36.5 2.5t24 9t14 8.5q29 22 48.5 63.5t31 94t17 112t6.5 118.5q1 29 1 57t-1 55q-1 54 -2 95q-1 24 -1 44.5v37.5v176l-18 -19q-34 -35 -76 -62.5t-87 -43.5q-55 -19 -106 -19q-43 0 -84 13q-51 16 -87.5 50.5t-62 76.5t-42.5 85t-29 78 q-67 195 -67 369z" />
<glyph unicode="z" horiz-adv-x="788" d="M34 652q-2 7 -2 14q0 10 4 20q8 16 26 21q14 5 28.5 10t30.5 10q43 15 93 31t102 27t102 14q10 1 19 0q40 0 76 -9q65 -15 89 -75q15 -33 14 -72v-7q-2 -44 -11.5 -86t-24.5 -78t-25 -58q66 13 146 47q17 7 33.5 0t24.5 -24q4 -8 3.5 -16.5t-3.5 -17.5q-7 -17 -24 -24 q-72 -29 -130 -44t-110 -21q-26 -36 -53.5 -69.5t-55.5 -65.5q-10 -12 -19.5 -23.5t-18.5 -22.5q26 7 49 12t38 8q24 5 44 11.5t46 15.5q21 8 48 17t64 20q17 5 33.5 -3.5t21.5 -26.5q5 -17 -4 -33t-27 -21q-34 -11 -59.5 -19.5t-46.5 -16.5q-26 -9 -50 -17t-53 -14 q-17 -3 -44.5 -9.5t-57.5 -14t-58 -15.5t-45 -14q-8 -3 -15 -3q-6 0 -12 2q-14 4 -23 15q-8 11 -8.5 25.5t7.5 26.5q28 42 59.5 80.5t63.5 76.5q16 18 31 35.5t29 35.5h-64h-43q-18 0 -31 13t-13 31q0 19 13 32t31 13l44 -1q34 0 65.5 0.5t63.5 2.5q5 8 10.5 16.5t10.5 17.5 q14 26 28 60.5t23 69.5t11.5 66.5t-6.5 51.5q-8 19 -31 25q-25 6 -55 6q-11 -1 -23 -1q-43 -4 -88.5 -13.5t-90.5 -24.5l-84 -28q-17 -6 -32 -11t-29 -10q-17 -5 -33.5 3t-21.5 26z" />
<glyph unicode="{" horiz-adv-x="467" d="M14 440q-4 14 2 27t19 20q79 41 103 134q12 46 14 98t1 106q-1 62 1.5 122.5t21.5 114.5q43 129 185 166q17 5 31 -3.5t19 -25.5t-3.5 -31.5t-25.5 -18.5q-54 -14 -84 -41.5t-44 -68t-17 -94t-2 -119.5q1 -57 -1 -114.5t-16 -111.5q-26 -96 -92 -150q5 -8 9 -18t8 -22 q8 -26 11.5 -54t5.5 -50q0 -12 2 -22q7 -58 18.5 -110.5t26.5 -112.5q3 -10 5.5 -22.5l5.5 -27.5q7 -32 17.5 -75t25 -84.5t34 -75t45.5 -46.5q10 -5 26.5 -7t43.5 10q16 7 31.5 0.5t22.5 -22.5q7 -15 1 -30.5t-22 -22.5q-78 -34 -140 -1q-39 20 -66.5 59.5t-46 87t-31 98 t-21.5 92.5q-3 14 -5.5 26t-4.5 21q-15 60 -27.5 116t-20.5 117q0 5 -0.5 11t-1.5 13q-5 48 -10.5 76t-13.5 36q-14 -1 -25 7.5t-15 22.5z" />
<glyph unicode="|" horiz-adv-x="255" d="M68 1052q1 51 7.5 99t21.5 88q6 16 21.5 23t31.5 1t23 -21.5t1 -31.5q-13 -34 -18 -77t-6 -90t2 -96.5t6 -96.5q2 -39 4 -76t2 -69v-768q0 -17 -12 -29t-29 -12t-29 12t-12 29v768q0 31 -2 66t-4 73q-3 51 -6 104t-2 104z" />
<glyph unicode="}" horiz-adv-x="467" d="M5.5 -317.5q-6.5 15.5 0.5 30.5q7 16 23 22.5t31 -0.5q28 -12 44.5 -10t25.5 7q26 13 46 46.5t34.5 75t24.5 84.5t17 75q3 15 6 27.5t5 22.5q16 60 27.5 112.5t18.5 110.5q1 4 1 9.5t1 12.5q2 22 5.5 50t11.5 54q5 22 17 40q-66 54 -92 150q-14 54 -16 111.5t-1 114.5 q0 66 -3 119.5t-17 94t-44 68t-83 41.5q-17 4 -25.5 18.5t-3.5 31.5q4 17 18.5 25.5t31.5 3.5q142 -37 185 -166q18 -54 20.5 -114.5t2.5 -122.5q-1 -54 0.5 -106t13.5 -98q25 -93 104 -134q13 -7 19 -20t1 -27q-4 -14 -15 -22.5t-25 -7.5q-15 -15 -24 -112q0 -7 -0.5 -13 t-1.5 -11q-8 -61 -20 -117t-27 -116q-2 -9 -5 -21t-6 -26q-9 -42 -21 -92.5t-31 -98t-46 -87t-66 -59.5q-64 -33 -140 1q-16 7 -22.5 22.5z" />
<glyph unicode="~" horiz-adv-x="994" d="M41 531q14 40 37.5 81.5t55 79t70 68.5t81.5 50.5t90 24t96 -9.5q40 -12 69.5 -34t54.5 -45q26 -22 49.5 -39t53.5 -22q32 -5 55.5 1.5t42.5 23.5t36.5 44.5t38.5 64.5l11 20q9 17 26.5 21.5t33.5 -4.5t21 -26.5t-4 -33.5l-11 -20q-20 -36 -42.5 -71.5t-53 -62.5t-71 -40 t-97.5 -4q-49 8 -83.5 32t-63.5 50q-22 20 -43.5 36t-47.5 24q-53 16 -103.5 -2t-93.5 -55t-75.5 -86t-48.5 -95q-6 -17 -22.5 -25t-33.5 -2t-25.5 22.5t-2.5 33.5z" />
<glyph unicode="&#xad;" horiz-adv-x="1061" d="M90 459q-5 18 3.5 34t25.5 21q34 11 73 16t79.5 5.5t81 -1.5t79.5 -5q32 -2 62 -3.5t57 -1.5h389q18 0 31 -13t13 -31q0 -19 -13 -31.5t-31 -12.5h-389q-29 0 -60 1.5t-64 3.5q-36 2 -73.5 4t-74.5 1.5t-71 -4t-63 -12.5q-17 -5 -33.5 3.5t-21.5 25.5z" />
<glyph unicode="&#xde;" horiz-adv-x="1146" d="M72 631q-2 23 11.5 46t31.5 42.5t37 33t28 18.5q57 30 129 38t143 -9q54 -12 99.5 -40t77.5 -67t50 -87t18 -100l-2 -142q-2 -62 -1.5 -124t2.5 -124q29 16 60 21.5t61.5 5.5t59.5 -4.5t53 -9.5q13 -2 18 -2.5t7 0.5q1 1 2 4q1 2 2.5 5.5t3.5 9.5q3 11 2 46t-5 82.5 t-10 101t-11 101.5q-5 45 -10 89.5t-8.5 85t-6 75.5t-2.5 61q0 13 9.5 22.5t22.5 9.5q14 0 23 -9.5t9 -22.5q0 -24 2 -58.5t6 -74t8.5 -83.5t9.5 -88q17 -148 24 -237.5t-3 -120.5q-15 -47 -40.5 -57t-64.5 -2q-35 7 -67 11t-61 1.5t-54.5 -13.5t-46.5 -34q-15 -15 -34 -8 q-19 6 -21 28q-5 78 -4.5 157t2.5 157l1 140q0 41 -14 79t-40 68.5t-62 52.5t-79 32q-60 14 -120.5 8t-108.5 -32q-11 -5 -24 -16t-24 -23t-18.5 -23t-6.5 -17q1 0 2 -1q1 -2 6 -3q12 -5 25 -3.5t27 4.5q13 2 29 4t32 -2t31.5 -16.5t27.5 -38.5q9 -18 11 -39t0.5 -43 t-5.5 -43.5t-8 -41.5q-3 -11 -5 -22t-4 -20q-6 -42 -9 -85t-5 -85l-1 -31v-7q19 7 40.5 11t42 3t39.5 -8.5t34 -24.5q22 -25 22 -55.5t-21 -58.5q-11 -14 -26 -24.5t-32 -16.5t-36 -5.5t-37 9.5q-29 14 -47 39.5t-29 54.5q-6 4 -9 10q-8 12 -1 28q-4 25 -3 49l1 30 q2 44 5 88t9 88q2 11 4.5 22.5t5.5 24.5q3 16 6.5 33.5t5.5 34.5t1 32t-6 26q-5 9 -8.5 14t-9 6.5t-13.5 0.5t-20 -4q-18 -3 -39.5 -5t-46.5 7q-31 11 -40 29.5t-10 30.5zM302 98q7 -16 17.5 -29t24.5 -21q13 -6 28 1t25 19q14 18 2 33q-14 15 -42 11.5t-55 -14.5zM722 -165 q0 69 34 84q8 3 22.5 3t31.5 -17q21 -18 18 -52q-2 -20 -13.5 -40t-26.5 -31q5 -27 15.5 -38t31.5 -13q50 -5 81.5 18t50.5 63.5t28.5 93.5t15.5 109q2 13 11.5 21.5t23.5 6.5q13 -2 21.5 -11.5t6.5 -23.5q-3 -29 -8 -67t-15 -77t-26 -76.5t-42.5 -65.5t-64 -43.5 t-89.5 -10.5q-40 4 -62 22.5t-32 44t-11.5 52.5t-1.5 48z" />
<glyph unicode="&#xe0d;" horiz-adv-x="1146" d="M72 631q-2 23 11.5 46t31.5 42.5t37 33t28 18.5q57 30 129 38t143 -9q54 -12 99.5 -40t77.5 -67t50 -87t18 -100l-2 -142q-2 -62 -1.5 -124t2.5 -124q29 16 60 21.5t61.5 5.5t59.5 -4.5t53 -9.5q13 -2 18 -2.5t7 0.5q1 1 2 4q1 2 2.5 5.5t3.5 9.5q3 11 2 46t-5 82.5 t-10 101t-11 101.5q-5 45 -10 89.5t-8.5 85t-6 75.5t-2.5 61q0 13 9.5 22.5t22.5 9.5q14 0 23 -9.5t9 -22.5q0 -24 2 -58.5t6 -74t8.5 -83.5t9.5 -88q17 -148 24 -237.5t-3 -120.5q-15 -47 -40.5 -57t-64.5 -2q-35 7 -67 11t-61 1.5t-54.5 -13.5t-46.5 -34q-15 -15 -34 -8 q-19 6 -21 28q-5 78 -4.5 157t2.5 157l1 140q0 41 -14 79t-40 68.5t-62 52.5t-79 32q-60 14 -120.5 8t-108.5 -32q-11 -5 -24 -16t-24 -23t-18.5 -23t-6.5 -17q1 0 2 -1q1 -2 6 -3q12 -5 25 -3.5t27 4.5q13 2 29 4t32 -2t31.5 -16.5t27.5 -38.5q9 -18 11 -39t0.5 -43 t-5.5 -43.5t-8 -41.5q-3 -11 -5 -22t-4 -20q-6 -42 -9 -85t-5 -85l-1 -31v-7q19 7 40.5 11t42 3t39.5 -8.5t34 -24.5q22 -25 22 -55.5t-21 -58.5q-11 -14 -26 -24.5t-32 -16.5t-36 -5.5t-37 9.5q-29 14 -47 39.5t-29 54.5q-6 4 -9 10q-8 12 -1 28q-4 25 -3 49l1 30 q2 44 5 88t9 88q2 11 4.5 22.5t5.5 24.5q3 16 6.5 33.5t5.5 34.5t1 32t-6 26q-5 9 -8.5 14t-9 6.5t-13.5 0.5t-20 -4q-18 -3 -39.5 -5t-46.5 7q-31 11 -40 29.5t-10 30.5zM302 98q7 -16 17.5 -29t24.5 -21q13 -6 28 1t25 19q14 18 2 33q-14 15 -42 11.5t-55 -14.5zM722 -165 q0 69 34 84q8 3 22.5 3t31.5 -17q21 -18 18 -52q-2 -20 -13.5 -40t-26.5 -31q5 -27 15.5 -38t31.5 -13q50 -5 81.5 18t50.5 63.5t28.5 93.5t15.5 109q2 13 11.5 21.5t23.5 6.5q13 -2 21.5 -11.5t6.5 -23.5q-3 -29 -8 -67t-15 -77t-26 -76.5t-42.5 -65.5t-64 -43.5 t-89.5 -10.5q-40 4 -62 22.5t-32 44t-11.5 52.5t-1.5 48z" />
<glyph unicode="&#xff;" horiz-adv-x="4558" d="M128.5 299q-2.5 35 1.5 73q6 59 29 102q23 47 62 80q21 17 43.5 30.5t48.5 21.5q51 18 111 18q19 0 42 -5q11 -2 22 -5.5t22 -7.5t21 -9t21 -11q19 -11 40 -27q10 -9 19 -17t17 -19q8 -10 15 -20t12 -21q4 -6 7 -14.5t7 -19.5q7 -20 10 -48q2 -11 1 -23t-3 -23 q-6 -23 -24 -33q-14 -9 -27 -14q-7 -3 -14 -4.5t-14 -3.5q-17 -3 -31 -2q-17 0 -30 4q-13 5 -23.5 10.5t-20.5 14.5q-18 16 -30 41q1 0 -2 9q-3 7 -3 21q0 10 3 18q3 13 12 24q10 10 19 15q13 8 25 8q13 2 25 -3q14 -3 23 -12q10 -6 17 -19q5 -11 7 -24q0 -7 -0.5 -13 t-2.5 -13q-7 -26 -31 -39l-19 -10l20 -3q22 -4 47 2q23 8 39 22q17 17 14 40q-5 32 -18.5 57.5t-36.5 45.5q-40 35 -103 49q-43 9 -90 8q-49 0 -94 -12q-46 -9 -78 -28q-33 -16 -46 -37q-8 -10 -13.5 -22.5t-10.5 -29.5t-7.5 -35.5t-4.5 -39.5q0 -2 -0.5 -5t-0.5 -5v-10 q0 -19 2.5 -36.5t5.5 -34.5q5 -17 9.5 -31t12.5 -25q7 -11 15 -19.5t18 -16.5q21 -18 44 -31q24 -14 50 -22q14 -5 27.5 -8t28.5 -6q70 -8 136 10q38 11 74.5 30.5t71.5 47.5q2 2 4.5 3.5t5.5 2.5q8 3 13 2q4 -2 9 -6q1 -2 1 -7q0 -6 -1 -10q-1 -2 -2 -4.5t-1 -5.5l-1 -4 q-6 -24 -22 -41q-17 -20 -37 -33q-11 -8 -23 -14.5t-25 -11.5q-14 -6 -26.5 -10t-25.5 -8t-25.5 -6t-24.5 -4t-22.5 -3t-20.5 -1q-32 0 -62.5 6.5t-59.5 17.5q-29 14 -53.5 31.5t-45.5 40.5q-44 49 -62 113q-10 32 -12.5 67zM488 408q-5 -15 3 -29t22 -18q15 -4 28 3t19 21 q4 14 -4 30q-8 12 -21 18q-15 3 -29 -3q-14 -9 -18 -22zM733 248q5 44 22 79q17 39 44 63q25 26 60 40q36 14 71 10q12 -1 23 -3.5t22 -6.5q11 -5 21 -11t19 -13q9 9 18.5 14.5t17.5 8.5q17 6 34 4q8 -2 14.5 -3.5t11.5 -4.5q11 -3 15 -7q10 -6 17.5 -14.5t13.5 -18.5 q11 -22 11 -44q0 -19 -9 -38q-4 -8 -10 -15.5t-14 -15.5q-1 0 -3.5 -2t-7.5 -4q-11 -6 -24 -6q-11 0 -19 4t-16 11q-15 15 -15 36q0 11 4 20q2 4 4.5 8t6.5 7q8 8 15 11q9 4 20 4q21 0 36 -15l8 -7l1 11q3 33 -20 54q-6 5 -23 10q-8 1 -16 0.5t-16 -3.5q-8 -2 -16.5 -7.5 t-17.5 -13.5q-16 -15 -27 -47q-5 -14 -7 -27.5t-4 -28.5q-2 -31 4 -59q3 -19 9.5 -37.5t15.5 -37.5q17 -34 47 -72q15 -21 34 -25q19 -8 39 0q25 8 35 32q10 23 4 48l-5 14l-5 -14q-7 -19 -27 -28q-9 -4 -20 -4q-10 0 -19 3q-10 5 -16 11q-5 3 -7.5 7t-4.5 9q-8 18 -1 39 q2 5 4.5 9t6.5 7q7 9 16 12q4 2 12 4h12q9 0 13 -1q20 -6 35 -19q7 -7 13 -14.5t10 -17.5q8 -16 8 -36q0 -9 -2 -17l-4 -16q-7 -15 -19 -29q-6 -7 -13.5 -11.5t-15.5 -9.5q-8 -2 -16 -4.5t-17 -2.5q-8 -1 -15.5 -1.5t-15.5 1.5q-16 0 -26 3q-12 3 -14 4q-1 1 -3 2q-3 1 -9 6 q-11 6 -27 21q-14 -10 -27.5 -18t-28.5 -13t-30 -7t-32 0q-38 3 -69 22q-16 9 -29 21.5t-24 27.5q-22 29 -33 69q-11 38 -8 83zM776 272q-3 -33 5 -65q9 -33 25 -56q18 -24 42 -39q22 -15 53 -17q21 -2 39 3q20 5 37 16q-12 22 -20 52q-7 28 -7 70q0 47 13 86q7 20 17 37 t22 34q-8 7 -16 12.5t-18 9.5q-19 9 -39 11q-32 2 -55 -8q-14 -6 -25.5 -14t-22.5 -19q-21 -21 -34 -50q-7 -14 -11 -30t-5 -33zM1077 311q0 -8 7 -17q7 -7 16 -7q8 0 17 7q7 9 7 17q0 9 -7 16q-9 7 -17 7q-9 0 -16 -7t-7 -16zM1106 163q-3 -8 1 -18q2 -4 5 -7t8 -5 q7 -4 18 1q8 3 11 12q4 9 0 18q-3 8 -12 12q-11 4 -18 0q-9 -4 -13 -13zM1256 329q-1 18 5 37q2 8 6.5 14.5t9.5 14.5q7 7 14 11.5t15 9.5q8 4 16 6.5t17 2.5q35 3 65 -18q4 4 7.5 6.5t7.5 4.5q5 2 11 3.5t15 3.5q10 2 20 3t22 1q22 -2 48 -9q24 -7 46 -28q20 -19 34 -54 q8 -17 11 -39.5t3 -49.5v-39v-19t1 -20q1 -11 2 -20.5t3 -20.5t4.5 -22t6.5 -22q7 -20 23 -35q18 -12 38 -13q24 -1 44 19q5 5 8 10.5t5 10.5q4 12 6 24v14l-9 -11q-16 -16 -35 -17q-6 -1 -10.5 -0.5t-9.5 2.5t-9 4.5t-8 5.5q-8 7 -11 15q-6 9 -6 20q-1 21 12 37l15 12 q5 2 10 3.5t10 1.5h6.5t6.5 -1q3 0 5.5 -1t5.5 -3q5 0 12 -5q16 -12 27 -29q4 -9 6.5 -18.5t3.5 -19.5q1 -9 0 -18.5t-5 -17.5q-3 -8 -7.5 -15t-9.5 -14q-6 -8 -12.5 -12.5t-14.5 -9.5q-17 -8 -35 -9q-33 -1 -62 16q-24 17 -43 53q-18 35 -22 83q-6 49 1 107q2 12 0.5 22 t-4.5 20q-6 19 -18 34q-13 13 -28 25q-8 4 -16.5 8t-17.5 6q-14 5 -33 5q-18 1 -29 -4q-7 -2 -8 -7q-1 -4 -1 -12q0 -3 1 -6t1 -6q2 -3 2.5 -5.5t1.5 -4.5q29 -55 29 -122q0 -14 -1 -27.5t-3 -26.5l-6 -22t-7 -21t-8 -18.5t-8 -16.5q-5 -8 -10 -15t-10 -12q-23 -27 -51 -42 q-2 0 -6 -2q-2 0 -4 -0.5t-3 -0.5q-3 0 -5 0.5t-5 1.5t-5.5 3t-5.5 4q-4 7 -3 13q0 3 1 5.5t3 5.5q1 3 2.5 5t3.5 4q5 5 6 7q30 36 47 73q17 34 25 75q3 14 4 28t1 28q-2 15 -4 29t-7 27q-3 4 -5 13q-4 6 -4 12q-1 5 -1 16q-9 13 -23 21q-10 6 -29 8q-24 2 -44 -18 q-9 -11 -13 -22t-6 -23l-1 -15l9 11q15 15 35 17q10 1 21 -2q10 -4 17 -10t11 -15q5 -8 5 -19q3 -20 -11 -37q-8 -9 -16 -12q-10 -5 -18 -5q-4 -1 -7 -0.5t-7 0.5q-8 2 -11 4q-8 2 -12 6q-16 9 -26 29q-9 17 -11 37zM1302 302q0 -5 2.5 -9t5.5 -8l8 -4t9 -1q11 2 16 8 q6 8 5 16q0 9 -8 17q-6 5 -16 5t-16 -8q-6 -6 -6 -16zM1699 136q1 -8 9 -16q6 -5 16 -5q10 2 16 9q7 7 5 16q0 10 -7 16q-8 6 -17 5q-11 -2 -16 -8q-6 -6 -6 -17zM1840.5 253q1.5 20 6.5 39q12 40 33 68q11 15 23.5 26.5t27.5 21.5q31 17 67 22q19 2 32 -1q8 -1 15.5 -3 t15.5 -4q5 28 11 51t14 42q18 36 35 56l1 1h1q19 21 37 25q21 6 35 5q8 -1 14.5 -2t12.5 -4t10 -4.5t6 -3.5q21 -15 31 -33q10 -19 10 -43q0 -21 -7 -38q-10 -20 -24 -31q-1 -1 -2 -1.5t-2 -2.5q-2 0 -4 -1t-5 -3q-6 -2 -11 -4q-2 -1 -5.5 -1h-6.5q-20 0 -36 14 q-14 14 -14 37q0 9 3 20q3 5 5.5 9t5.5 7l8 6t9 5q8 4 19 4q21 0 36 -15l8 -8l1 10q1 17 -3.5 31.5t-15.5 23.5q-9 6 -23 9t-31 -2q-8 -3 -16.5 -8t-17.5 -13q-16 -17 -29 -47q-9 -23 -15 -54q-8 -33 -9 -71q-1 -20 -0.5 -39.5t2.5 -41.5q3 -41 15 -83q5 -19 11.5 -37.5 t14.5 -36.5q8 -19 19.5 -37t25.5 -37q14 -17 34 -25q19 -6 39 0q25 8 35 33q3 5 4.5 11.5t2.5 12.5t0 12.5t-3 11.5l-4 14l-5 -13q-8 -21 -27 -28q-19 -9 -39 -1t-28 26q-4 8 -4 20q0 5 0.5 9.5t2.5 9.5q3 9 11 16q8 8 16 12q4 2 12 4h12h6.5t6.5 -1q19 -6 34 -19 q8 -7 13.5 -14.5t10.5 -16.5q7 -17 7 -37q0 -17 -6 -32q-13 -33 -48 -50q-15 -6 -31 -9h-32q-14 0 -26 5q-12 0 -14 4q-5 1 -11 7l-6 6t-7 6q-3 3 -6.5 7t-8.5 9q-18 -16 -43 -29q-12 -5 -24.5 -8t-26.5 -5q-37 -3 -68 10q-34 13 -60 39q-28 27 -43 62q-8 18 -13 37t-7 41 q-2 20 -0.5 40zM1877 243q3 -33 17 -63q6 -14 14.5 -26t18.5 -23q20 -21 46 -31q25 -11 54 -9q21 3 36 10q8 3 15.5 8t15.5 11q-11 23 -18 49q-5 14 -8.5 30t-5.5 34q-4 26 -5.5 49t-1.5 44q-1 22 0 41.5t3 37.5q-7 4 -13.5 5.5t-14.5 3.5q-14 3 -30 1q-27 -1 -52 -17 q-23 -13 -40 -38q-9 -11 -14.5 -25t-10.5 -28q-9 -32 -6 -64zM2190 481q0 -11 5 -17q6 -6 17 -6t16 6q7 7 7 17t-7 17q-6 6 -16 6t-17 -6q-5 -6 -5 -17zM2219 141q5 -8 13 -11q9 -5 17 0q8 3 13 13q3 10 -1 17q-4 9 -13 13q-6 3 -17 -1q-10 -5 -12 -13q-5 -8 0 -18z M2362 516q-2 17 3 32q4 16 13 29l10 10t12 9q12 7 27 9q13 1 29 -4q14 -6 24 -16q12 -10 18 -26q4 -7 5.5 -15t3.5 -16q2 -17 -3 -34q-3 -8 -6 -14.5t-8 -11.5q-8 -12 -21 -20q-7 -4 -13.5 -6.5t-14.5 -2.5q-16 -2 -29 4q-12 4 -24 16q-5 5 -9 11t-8 14q-8 15 -9 32z M2374 120q-1 21 0.5 45t4.5 50q6 56 15 103q2 10 3.5 19t3.5 19q2 9 5 17t5 16q7 15 12 23t12 10q9 0 15 -10q4 -10 6 -27q2 -9 2 -18.5v-20.5t-0.5 -21t-1.5 -21q-1 -10 -1.5 -19.5t-2.5 -18.5q0 -8 -0.5 -15t-0.5 -12q-1 -9 -0.5 -19.5t1.5 -22.5q2 -11 2.5 -23.5 t1.5 -23.5q2 -13 2 -25t1 -24q2 -23 -3 -40q-3 -17 -11 -29q-7 -10 -25 -10q-12 0 -22 9q-9 11 -13 22q-3 7 -4.5 14.5t-3.5 16.5q-1 9 -2 17.5t-1 18.5zM2386 508q0 -16 9 -29q3 -6 7.5 -11t9.5 -9q-1 3 -1 9q0 9 7 16q6 6 17 6q8 0 16 -6q7 -7 7 -16q0 -3 -0.5 -6.5 t-2.5 -5.5q8 3 12.5 8.5t9.5 12.5q8 13 8 32v6l-2 12t-4 11l-6 10t-6 8q-6 7 -17 11q-8 4 -20 4q-19 -2 -32 -19q-12 -17 -12 -39v-5zM2421 468q0 -8 4 -10q3 -4 10 -4q5 0 9 4q4 2 4 10q0 3 -4 9q-5 3 -9 3t-10 -3q-4 -8 -4 -9zM2544 408q0 12 9 17q4 3 10 4.5t13 2.5 q16 2 31 -1q10 -1 19 -1.5t19 -2.5q5 17 10.5 31t10.5 26q7 14 13.5 25t11.5 21q7 9 13.5 17.5t13.5 15.5q6 7 12.5 12.5t11.5 10.5q1 1 2 1l1 1q21 14 41 17q9 1 17.5 0.5t16.5 -3.5q8 -2 14.5 -4.5t11.5 -7.5q5 -4 8.5 -6t5.5 -4q17 -15 23 -39q7 -20 4 -44 q-6 -21 -17 -36q-6 -8 -13.5 -14.5t-15.5 -11.5q-1 -1 -13 -4q-10 -3 -25 -1q-8 1 -18 8q-9 6 -13 14q-2 4 -4.5 8t-3.5 9q-2 11 0 20q1 5 3.5 9.5t4.5 9.5q3 4 5.5 7.5t7.5 6.5q5 2 9 4t9 3q10 3 20 0q20 -3 33 -21l6 -10l3 10q10 34 -8 58q-8 8 -20 14q-13 6 -31 3 q-16 -1 -37 -14q-10 -6 -19 -16t-20 -24q-6 -9 -11.5 -20l-12.5 -25q-5 -14 -10.5 -28.5t-10.5 -30.5h74q14 0 24 -5q9 -5 9 -15q0 -11 -9 -15q-5 -1 -11.5 -2t-14.5 0q-8 0 -17 0.5t-20 1.5q-10 2 -20.5 2.5t-21.5 1.5q-4 -17 -6.5 -35t-4.5 -37q-2 -18 -2 -36.5t1 -37.5 q2 -20 4.5 -39.5t7.5 -39.5q4 -20 11.5 -40t17.5 -41q13 -22 28 -31q9 -5 18.5 -7t20.5 0q25 1 41 25q6 7 11 22q2 6 2 12v12l-2 15l-8 -12q-10 -17 -32 -23q-10 -1 -20 0q-5 1 -9 3l-8 4q-9 4 -14 13q-4 5 -5.5 9.5t-3.5 9.5q-4 20 8 38q5 9 13 15q5 2 9 4t9 3q4 1 13 1 q3 0 5.5 -0.5t5.5 -1.5t6.5 -1.5t6.5 -2.5q16 -8 30 -25q13 -16 16 -35q4 -17 1 -37q-3 -17 -12 -32q-11 -14 -25 -24t-33 -14q-14 -4 -32 -1q-9 0 -16.5 1.5t-15.5 3.5q-14 3 -25 9l-12 6q-5 6 -9 11t-8 11q-8 12 -17 29q-9 18 -16 42q-2 11 -5 25t-5 30t-2.5 33.5 t1.5 37.5q2 18 3.5 34.5t3.5 32.5q5 33 12 59q-11 -1 -19.5 -1.5t-16.5 -0.5q-9 -1 -16.5 -1h-12.5q-6 1 -11 1.5t-9 3.5q-7 3 -7 14zM2753 146q1 -5 4 -8.5t7 -5.5q7 -5 17 -4q9 3 14 11q6 9 3 17q-1 9 -10 14q-7 5 -17 4q-10 -3 -14 -10q-6 -7 -4 -18zM2791 484 q-2 -9 4 -16q4 -8 13 -10q10 -3 19 2q7 5 10 15q2 10 -4 17q-5 8 -15 11q-4 0 -8 -0.5t-9 -3.5q-5 -2 -6.5 -6t-3.5 -9zM2908 1454q6 57 45 82q33 21 80 14t101.5 -33.5t113.5 -68.5t115.5 -90.5t107.5 -100.5t90 -99q58 -54 84 -102q6 33 15 49q-15 97 -29 159.5t-26 99 t-22.5 51.5t-18.5 17q-10 3 -20 -10q-14 -17 -33 -23.5t-30 -2.5q-10 3 -10 11q-1 11 16 23.5t47 25.5q25 10 46 -3q17 -11 30 -36.5t22.5 -58.5t15.5 -70t9.5 -71t5 -61.5t2.5 -41.5q8 8 14 8t12 -6q1 23 5 72t13 102.5t25 99.5t42 63q21 14 46 3q31 -13 47.5 -25.5 t15.5 -23.5q0 -7 -9 -11q-12 -4 -31 2.5t-33 23.5q-10 13 -20 10q-8 -2 -18.5 -17t-22.5 -51t-25.5 -98t-28.5 -158q11 -20 19 -65q14 28 32.5 56.5t31.5 45.5q36 48 85 103t105 107.5t115 98.5t115 76t104.5 39.5t83.5 -10.5q38 -23 47 -81q4 -28 -0.5 -65t-20.5 -80.5 t-45 -92t-74 -99.5q26 -5 45 -15.5t30 -27.5q17 -29 2 -70q-8 -21 -25 -45t-45.5 -47.5t-68 -45.5t-91.5 -39q-43 -14 -87.5 -17.5t-86.5 1t-80 15t-68 24.5q36 -29 75 -66.5t70.5 -75t48 -71t7.5 -53.5q-5 -13 -23 -16q-26 -5 -73.5 14t-104.5 70q-40 35 -64 77t-36 80 q-5 -47 -15.5 -78t-25.5 -31q-14 0 -24 27t-15 68q-12 -36 -34.5 -75.5t-56.5 -71.5q-55 -53 -102 -73.5t-73 -15.5q-16 1 -24 15q-10 20 6 53.5t46 72t68 77.5t73 69q-30 -14 -67.5 -26t-79.5 -18t-86.5 -4t-87.5 14q-53 15 -93 36t-69 43.5t-47.5 46t-26.5 43.5 q-17 41 0 71q10 17 28.5 28.5t44.5 17.5q-47 49 -77.5 96.5t-48 90t-23 79.5t-2.5 66zM2913 1453q-3 -27 3 -63.5t23.5 -79t48 -90.5t77.5 -97q25 5 54.5 6t62.5 -2q-35 30 -61 60t-41.5 57t-19 50t7.5 40q13 22 48.5 27t84.5 -5t107.5 -35t119.5 -62q29 -18 56 -37.5 t50 -39.5q-40 46 -90 95t-104 94.5t-109.5 83.5t-106 61.5t-94.5 28.5t-75 -14q-36 -22 -42 -78zM2948 469q6 43 30 76q5 8 11.5 15t13.5 14q8 6 15.5 12.5t15.5 11.5q32 21 66 28q36 9 67 6q7 -1 15.5 -2t18.5 -2q11 -2 20.5 -3t20.5 -4t21 -6.5t21 -8.5q19 -9 36 -27 q9 -8 16 -19t12 -23q7 -14 10 -29.5t5 -34.5q2 -27 -9 -46q-5 -10 -12 -20t-18 -18q-10 -10 -21.5 -18.5t-24.5 -16.5q-14 -8 -27.5 -15.5t-27.5 -14.5l31 -15.5t29 -15.5t27 -17t24 -18q10 -10 18 -20t14 -22q13 -23 10 -47q-2 -19 -5 -35t-9 -29q-12 -26 -28 -43 q-9 -8 -18 -14.5t-20 -11.5q-19 -9 -41 -15q-19 -5 -40 -7q-11 -1 -19 -1.5t-16 -1.5q-29 -6 -67 4q-36 9 -65 29q-18 10 -32 23q-7 7 -13 14t-12 15q-24 36 -30 78q-1 8 -0.5 15t4.5 12q5 10 13 18q5 4 9 7t9 7q5 2 10.5 4t11.5 4q13 4 23 5q12 1 24 -2q19 -1 35 -14 q18 -13 27 -29q1 -2 1.5 -4.5t2.5 -6.5q1 -4 1 -6.5t1 -4.5q1 -8 0 -15q-1 -5 -2.5 -9.5t-4.5 -8.5q-5 -8 -13 -14q-7 -5 -19 -7q-9 -3 -19 0q-11 0 -18 6q-9 6 -14 14q-6 8 -9 17v20q3 21 21 32l13 9l-15 1q-18 1 -36 -6q-19 -8 -27 -19q-12 -17 -7 -33q3 -12 8 -22.5 t11 -19.5q11 -18 32 -31q18 -13 43 -18q24 -6 50 -6t50 6q27 5 46 13q11 4 20 8.5t17 9.5q16 11 20 21q18 29 19 49q4 22 -2 39q-8 20 -21 31q-8 7 -16.5 13t-19.5 11q-21 12 -44 20q-12 5 -24.5 8.5t-25.5 8.5q-3 0 -6 3l-3 3t-2 3q-1 1 -1 7q0 5 1 7q2 4 3 5t2 1.5t2 1.5 q19 6 36.5 12.5t34.5 13.5q34 15 52 35q11 10 16 22t7 26q1 14 -3.5 31t-16.5 37q-3 6 -8.5 10.5t-13.5 10.5q-8 5 -16 9t-19 9q-11 4 -22.5 7.5t-23.5 5.5q-14 3 -26 4t-25 1q-12 0 -24.5 -1t-25.5 -4q-24 -6 -43 -18q-39 -24 -51 -74q-6 -15 7 -31q10 -13 27 -19 q19 -8 35 -7l16 1l-13 8q-17 12 -21 33q-2 12 1 20q1 10 7 18q7 9 15 13q7 5 18 7t20 -1q9 -1 17 -8q7 -4 14 -13q5 -8 7 -19q1 -4 1 -14q-1 -3 -3 -11q-1 -6 -5 -12q-9 -15 -25 -28q-16 -10 -36 -15q-6 -1 -12 -1.5t-11 0.5q-7 0 -12.5 1t-11.5 3q-5 2 -10.5 4t-10.5 6 q-11 6 -19 13q-4 3 -7 7.5t-6 9.5q-7 15 -4 29zM2990 1007q8 -19 26 -41.5t46.5 -45t68.5 -43.5t92 -36q46 -14 93.5 -14.5t92 7t83.5 21t68 29.5v1q8 7 15.5 12.5t15.5 10.5q8 6 14 10t11 6q11 11 17 20q0 2 0.5 3t0.5 3q-5 -2 -10 -3.5t-10 -2.5q-21 -6 -49 -3 q-48 -7 -110.5 -2t-129 24.5t-131.5 54t-117 86.5q-8 6 -14 14q-26 -6 -44.5 -17t-28.5 -28q-15 -28 0 -66zM3042 464q3 -13 12 -19q9 -7 21 -5q13 3 19 12q6 11 4 22q0 6 -4 10q-1 4 -7 8q-10 7 -22 5q-11 -2 -17 -12q-8 -9 -6 -21zM3056 178q-3 -11 4 -21q7 -11 18 -12 q14 -2 22 5q10 7 11 18q3 12 -3 21q-7 9 -20 12q-11 3 -21 -4q-7 -6 -11 -19zM3069 1119q3 -3 5.5 -6t5.5 -6q49 -49 109.5 -82.5t123.5 -53t123 -26.5t108 -2q-52 8 -117 34t-132 68q-60 37 -107 77q-34 3 -64 2.5t-55 -5.5zM3355 601q5 -11 20 -13q25 -5 71 15.5t100 72.5 q35 34 58 75t34 79q-2 22 -3.5 45.5t-1.5 47.5v3q-2 -1 -5.5 -2t-7.5 -3q-24 -22 -57 -41q-37 -30 -77.5 -70t-73 -80.5t-50 -75t-7.5 -53.5zM3400 453.5q0 36.5 20 72t69 60.5q53 27 103.5 34t97 -2.5t87 -34t73.5 -60.5q3 -3 4 -5q63 -68 72 -169q8 -77 -10 -142t-60 -115 q-39 -46 -94 -71.5t-116 -25.5q-26 0 -63.5 8t-74 24.5t-65 42t-36.5 60.5l-2 3q-1 5 -2 10.5t-1 10.5v6q4 6 10 7q5 2 11.5 -1.5t9.5 -6.5q65 -57 139 -79q64 -21 130 -10q54 8 101 35.5t73 68.5q13 23 20.5 56.5t7.5 71.5q0 5 -0.5 10.5t-0.5 10.5v13t-2 13 q-6 -15 -32 -31.5t-64 -29t-85 -19t-95 -3t-94.5 20t-82.5 49.5q-19 18 -33.5 49.5t-14.5 68zM3473.5 431q3.5 -20 12.5 -36t14 -19q57 -32 105.5 -44.5t89.5 -12.5t74 10t58 23t41 26.5t24 21.5q-9 32 -23 51q-26 37 -60.5 56t-72 26t-74 4.5t-67.5 -9t-53 -14t-29 -10.5 q-28 -12 -35.5 -32.5t-4 -40.5zM3629 930q1 1 4 1v5q-1 -2 -2 -3t-2 -3zM3721 845q11 -38 35.5 -82.5t67.5 -82.5q56 -51 102 -69.5t71 -13.5q14 3 20 14q9 19 -9.5 53.5t-52.5 73.5t-76 77.5t-79 67.5q-37 18 -58 38q-12 6 -17 6v-4q0 -20 -1 -39.5t-3 -38.5zM3724 963 q0 -4 0.5 -7.5t0.5 -7.5q7 -12 20 -22q8 -5 26 -16q8 -5 15.5 -10.5t15.5 -11.5l1 -1q30 -15 69 -27.5t83.5 -18.5t91.5 -3t93 18q51 17 90.5 39t67.5 45.5t45 46.5t24 42q15 39 -1 67q-20 31 -75 42q-3 -4 -6 -7.5t-7 -7.5q-51 -55 -116.5 -92.5t-133 -58.5t-130.5 -27.5 t-111 0.5q-18 0 -31 3q-19 4 -31 15h-1zM3725 932q4 0 7 -1q-5 5 -7 8v-7zM3771 1124q32 35 75.5 71t95.5 68q46 29 92.5 50.5t88.5 35t77.5 18t61.5 -1.5q29 -8 40 -26q12 -20 5 -48q-7 -32 -34.5 -69.5t-69.5 -75.5q48 3 86 -3q45 51 74 99.5t45 92t21 80t1 63.5 q-8 55 -45 77q-34 20 -82 10t-103 -39.5t-113.5 -75.5t-114 -98.5t-104.5 -107t-84 -102.5q-4 -5 -7 -9t-6 -9zM3817 947q48 -3 108 6t121.5 30.5t121 57t106.5 86.5l12 12q-20 3 -42 3.5t-46 -1.5q-26 -24 -57 -47t-66 -45q-69 -43 -136.5 -69.5t-121.5 -32.5z" />
<glyph unicode="&#x152;" d="M-396 1332q6 24 21.5 48t36.5 43t44.5 31t46.5 14q48 3 81 -30q8 -8 14.5 -19t11.5 -24q4 -9 5 -16q10 -30 13 -68.5t-2 -88.5q-3 -38 -13 -73.5t-24 -69.5q23 15 44.5 30t41.5 33q45 44 77.5 85t64.5 89q7 11 20 14t24 -5t13.5 -20.5t-4.5 -23.5q-33 -50 -68 -94 t-84 -91q-23 -23 -48.5 -40t-51.5 -34q-22 -14 -42.5 -27.5t-38.5 -29.5q-8 -8 -19 -8.5t-20 6.5q-9 6 -12.5 16.5t1.5 20.5q5 11 9.5 22.5t9.5 22.5q20 45 36.5 90t20.5 92q2 16 2 29v25q-16 -19 -34.5 -35t-40.5 -24q-49 -18 -91 6q-29 17 -41 44.5t-4 59.5zM-334 1318 q-6 -23 15 -35q17 -9 36 -2q13 5 25.5 16t23.5 24.5t20 28.5t14 28q-3 5 -6 9t-5 7q-11 11 -32 11q-11 -1 -25.5 -9t-28 -20.5t-24 -27.5t-13.5 -30z" />
<glyph unicode="&#xf70b;" d="M-396 1332q6 24 21.5 48t36.5 43t44.5 31t46.5 14q48 3 81 -30q8 -8 14.5 -19t11.5 -24q4 -9 5 -16q10 -30 13 -68.5t-2 -88.5q-3 -38 -13 -73.5t-24 -69.5q23 15 44.5 30t41.5 33q45 44 77.5 85t64.5 89q7 11 20 14t24 -5t13.5 -20.5t-4.5 -23.5q-33 -50 -68 -94 t-84 -91q-23 -23 -48.5 -40t-51.5 -34q-22 -14 -42.5 -27.5t-38.5 -29.5q-8 -8 -19 -8.5t-20 6.5q-9 6 -12.5 16.5t1.5 20.5q5 11 9.5 22.5t9.5 22.5q20 45 36.5 90t20.5 92q2 16 2 29v25q-16 -19 -34.5 -35t-40.5 -24q-49 -18 -91 6q-29 17 -41 44.5t-4 59.5zM-334 1318 q-6 -23 15 -35q17 -9 36 -2q13 5 25.5 16t23.5 24.5t20 28.5t14 28q-3 5 -6 9t-5 7q-11 11 -32 11q-11 -1 -25.5 -9t-28 -20.5t-24 -27.5t-13.5 -30z" />
<glyph unicode="&#x153;" d="M-606 1761q6 24 21.5 48t36.5 43t44.5 31t46.5 14q48 3 81 -30q8 -8 14.5 -19t11.5 -24q4 -9 5 -16q10 -30 13 -68.5t-2 -88.5q-3 -38 -13 -73.5t-24 -69.5q23 15 44.5 30t41.5 33q45 44 77.5 85t64.5 89q7 11 20 14t24 -5t13.5 -20.5t-4.5 -23.5q-33 -50 -68 -94 t-84 -91q-23 -23 -48.5 -40t-51.5 -34q-22 -14 -42.5 -27.5t-38.5 -29.5q-8 -8 -19 -8.5t-20 6.5q-9 6 -12.5 16.5t1.5 20.5q5 11 9.5 22.5t9.5 22.5q20 45 36.5 90t20.5 92q2 16 2 29v25q-16 -19 -34.5 -35t-40.5 -24q-49 -18 -91 6q-29 17 -41 44.5t-4 59.5zM-544 1747 q-6 -23 15 -35q17 -9 36 -2q13 5 25.5 16t23.5 24.5t20 28.5t14 28q-3 5 -6 9t-5 7q-11 11 -32 11q-11 -1 -25.5 -9t-28 -20.5t-24 -27.5t-13.5 -30z" />
<glyph unicode="&#xf714;" d="M-606 1761q6 24 21.5 48t36.5 43t44.5 31t46.5 14q48 3 81 -30q8 -8 14.5 -19t11.5 -24q4 -9 5 -16q10 -30 13 -68.5t-2 -88.5q-3 -38 -13 -73.5t-24 -69.5q23 15 44.5 30t41.5 33q45 44 77.5 85t64.5 89q7 11 20 14t24 -5t13.5 -20.5t-4.5 -23.5q-33 -50 -68 -94 t-84 -91q-23 -23 -48.5 -40t-51.5 -34q-22 -14 -42.5 -27.5t-38.5 -29.5q-8 -8 -19 -8.5t-20 6.5q-9 6 -12.5 16.5t1.5 20.5q5 11 9.5 22.5t9.5 22.5q20 45 36.5 90t20.5 92q2 16 2 29v25q-16 -19 -34.5 -35t-40.5 -24q-49 -18 -91 6q-29 17 -41 44.5t-4 59.5zM-544 1747 q-6 -23 15 -35q17 -9 36 -2q13 5 25.5 16t23.5 24.5t20 28.5t14 28q-3 5 -6 9t-5 7q-11 11 -32 11q-11 -1 -25.5 -9t-28 -20.5t-24 -27.5t-13.5 -30z" />
<glyph unicode="&#x160;" d="M-663.5 1085q-2.5 30 2 62t14.5 65.5t21 65.5q19 52 43.5 93t57 73.5t74.5 57t95 42.5q2 1 5.5 3t5.5 4h1q11 7 24 3.5t19 -14.5q7 -11 3.5 -24t-14.5 -20q-5 -2 -11 -5.5t-12 -5.5q-47 -17 -82.5 -37.5t-63 -47.5t-48.5 -62t-37 -81q-2 -5 -4 -11.5t-4 -14.5 q34 10 64 -7q22 -12 36 -34.5t20.5 -49t4.5 -54.5t-11 -51q-16 -38 -47.5 -54.5t-69.5 -5.5q-48 14 -71 56q-13 24 -15.5 54zM-600 1090q1 -17 8 -30q11 -18 32 -24q11 -3 22 0t19 23q6 14 6.5 31t-2.5 32.5t-9.5 28t-16.5 18.5q-9 5 -21 2q-10 -4 -19 -14t-14 -23 q-2 -6 -4 -8q-2 -19 -1 -36z" />
<glyph unicode="&#xf709;" d="M-663.5 1085q-2.5 30 2 62t14.5 65.5t21 65.5q19 52 43.5 93t57 73.5t74.5 57t95 42.5q2 1 5.5 3t5.5 4h1q11 7 24 3.5t19 -14.5q7 -11 3.5 -24t-14.5 -20q-5 -2 -11 -5.5t-12 -5.5q-47 -17 -82.5 -37.5t-63 -47.5t-48.5 -62t-37 -81q-2 -5 -4 -11.5t-4 -14.5 q34 10 64 -7q22 -12 36 -34.5t20.5 -49t4.5 -54.5t-11 -51q-16 -38 -47.5 -54.5t-69.5 -5.5q-48 14 -71 56q-13 24 -15.5 54zM-600 1090q1 -17 8 -30q11 -18 32 -24q11 -3 22 0t19 23q6 14 6.5 31t-2.5 32.5t-9.5 28t-16.5 18.5q-9 5 -21 2q-10 -4 -19 -14t-14 -23 q-2 -6 -4 -8q-2 -19 -1 -36z" />
<glyph unicode="&#x161;" d="M-763.5 1181.5q3.5 61.5 19.5 133.5l5 21q5 24 12 51t18 53t27.5 48.5t42.5 37.5q17 10 34.5 13t34 1.5t32.5 -6t30 -8.5q32 -11 48.5 -12.5t29.5 11.5q5 5 12 16.5t14 25t13 27t9 24.5q3 10 7 23.5t7.5 27.5l6.5 26t5 19q5 12 16.5 18t23.5 1q13 -4 19 -16t1 -24 q-1 -3 -3.5 -13.5t-6 -24.5t-7.5 -29t-8 -27q-3 -11 -10 -27t-15.5 -33.5t-18.5 -33t-20 -25.5q-18 -17 -36.5 -23.5t-37 -6t-36.5 5t-33 9.5q-27 9 -45.5 12t-33.5 -6q-17 -9 -28 -26t-19 -37t-13.5 -42t-9.5 -43l-5 -22q-14 -66 -18 -121.5t3 -106.5q12 16 20 32 q13 23 29.5 47.5t38 41.5t49 22.5t63.5 -9.5q29 -12 46 -31.5t30 -38.5q3 -5 6.5 -9t6.5 -8q2 11 2.5 25.5t-0.5 28.5q-1 6 -1.5 15t-1.5 19q-28 -8 -54.5 -6t-47.5 16q-26 16 -39.5 42.5t-15.5 61.5q-1 25 3.5 42.5t11.5 29t16 17t18 8.5q19 6 39.5 -0.5t39.5 -20t34 -30.5 t24 -33q20 -33 27 -74t10 -83q1 -13 1 -33.5t-3.5 -40.5t-12.5 -37t-25 -24q-11 -5 -28.5 -2t-37.5 28q-7 8 -13 16t-11 16q-12 17 -22 28.5t-27 19.5q-29 12 -49 -4.5t-51 -70.5q-17 -30 -36.5 -57.5t-47.5 -41.5q-11 -6 -23 -2.5t-18 14.5q-10 16 -11 30.5t-1 26.5v17 q-8 59 -4.5 120.5zM-502 1324q0 -13 5 -28t19 -24q11 -7 25.5 -6.5t31.5 5.5q-3 9 -6 17t-7 15q-8 12 -17 22.5t-18 17.5t-17 10.5t-12 3.5q-2 -2 -3.5 -9t-0.5 -24z" />
<glyph unicode="&#xf712;" d="M-763.5 1181.5q3.5 61.5 19.5 133.5l5 21q5 24 12 51t18 53t27.5 48.5t42.5 37.5q17 10 34.5 13t34 1.5t32.5 -6t30 -8.5q32 -11 48.5 -12.5t29.5 11.5q5 5 12 16.5t14 25t13 27t9 24.5q3 10 7 23.5t7.5 27.5l6.5 26t5 19q5 12 16.5 18t23.5 1q13 -4 19 -16t1 -24 q-1 -3 -3.5 -13.5t-6 -24.5t-7.5 -29t-8 -27q-3 -11 -10 -27t-15.5 -33.5t-18.5 -33t-20 -25.5q-18 -17 -36.5 -23.5t-37 -6t-36.5 5t-33 9.5q-27 9 -45.5 12t-33.5 -6q-17 -9 -28 -26t-19 -37t-13.5 -42t-9.5 -43l-5 -22q-14 -66 -18 -121.5t3 -106.5q12 16 20 32 q13 23 29.5 47.5t38 41.5t49 22.5t63.5 -9.5q29 -12 46 -31.5t30 -38.5q3 -5 6.5 -9t6.5 -8q2 11 2.5 25.5t-0.5 28.5q-1 6 -1.5 15t-1.5 19q-28 -8 -54.5 -6t-47.5 16q-26 16 -39.5 42.5t-15.5 61.5q-1 25 3.5 42.5t11.5 29t16 17t18 8.5q19 6 39.5 -0.5t39.5 -20t34 -30.5 t24 -33q20 -33 27 -74t10 -83q1 -13 1 -33.5t-3.5 -40.5t-12.5 -37t-25 -24q-11 -5 -28.5 -2t-37.5 28q-7 8 -13 16t-11 16q-12 17 -22 28.5t-27 19.5q-29 12 -49 -4.5t-51 -70.5q-17 -30 -36.5 -57.5t-47.5 -41.5q-11 -6 -23 -2.5t-18 14.5q-10 16 -11 30.5t-1 26.5v17 q-8 59 -4.5 120.5zM-502 1324q0 -13 5 -28t19 -24q11 -7 25.5 -6.5t31.5 5.5q-3 9 -6 17t-7 15q-8 12 -17 22.5t-18 17.5t-17 10.5t-12 3.5q-2 -2 -3.5 -9t-0.5 -24z" />
<glyph unicode="&#x178;" d="M-403.5 1513q-2.5 30 2 62t14.5 65.5t21 65.5q19 52 43.5 93t57 73.5t74.5 57t95 42.5q2 1 5.5 3t5.5 4h1q11 7 24 3.5t19 -14.5q7 -11 3.5 -24t-14.5 -20q-5 -2 -11 -5.5t-12 -5.5q-47 -17 -82.5 -37.5t-63 -47.5t-48.5 -62t-37 -81q-2 -5 -4 -11.5t-4 -14.5 q34 10 64 -7q22 -12 36 -34.5t20.5 -49t4.5 -54.5t-11 -51q-16 -38 -47.5 -54.5t-69.5 -5.5q-48 14 -71 56q-13 24 -15.5 54zM-340 1518q1 -17 8 -30q11 -18 32 -24q11 -3 22 0t19 23q6 14 6.5 31t-2.5 32.5t-9.5 28t-16.5 18.5q-9 5 -21 2q-10 -4 -19 -14t-14 -23 q-2 -6 -4 -8q-2 -19 -1 -36z" />
<glyph unicode="&#xf717;" d="M-403.5 1513q-2.5 30 2 62t14.5 65.5t21 65.5q19 52 43.5 93t57 73.5t74.5 57t95 42.5q2 1 5.5 3t5.5 4h1q11 7 24 3.5t19 -14.5q7 -11 3.5 -24t-14.5 -20q-5 -2 -11 -5.5t-12 -5.5q-47 -17 -82.5 -37.5t-63 -47.5t-48.5 -62t-37 -81q-2 -5 -4 -11.5t-4 -14.5 q34 10 64 -7q22 -12 36 -34.5t20.5 -49t4.5 -54.5t-11 -51q-16 -38 -47.5 -54.5t-69.5 -5.5q-48 14 -71 56q-13 24 -15.5 54zM-340 1518q1 -17 8 -30q11 -18 32 -24q11 -3 22 0t19 23q6 14 6.5 31t-2.5 32.5t-9.5 28t-16.5 18.5q-9 5 -21 2q-10 -4 -19 -14t-14 -23 q-2 -6 -4 -8q-2 -19 -1 -36z" />
<glyph unicode="&#x17d;" d="M-419 1225q0 13 9 22.5t23 9.5h183q-4 39 -6 84.5t3 102.5q1 14 10.5 22.5t23.5 6.5q13 -1 21.5 -11t7.5 -23q-5 -56 -2.5 -99t6.5 -83h186q14 0 23 -9.5t9 -22.5q0 -14 -9 -23t-23 -9h-182q1 -10 2 -19t1 -19v-158q0 -13 -9.5 -22t-22.5 -9q-14 0 -23 9t-9 22v158 q0 9 -1 18.5t-2 19.5h-187q-14 0 -23 9t-9 23z" />
<glyph unicode="&#xf70d;" d="M-419 1225q0 13 9 22.5t23 9.5h183q-4 39 -6 84.5t3 102.5q1 14 10.5 22.5t23.5 6.5q13 -1 21.5 -11t7.5 -23q-5 -56 -2.5 -99t6.5 -83h186q14 0 23 -9.5t9 -22.5q0 -14 -9 -23t-23 -9h-182q1 -10 2 -19t1 -19v-158q0 -13 -9.5 -22t-22.5 -9q-14 0 -23 9t-9 22v158 q0 9 -1 18.5t-2 19.5h-187q-14 0 -23 9t-9 23z" />
<glyph unicode="&#x17e;" d="M-656 1657q0 13 9 22.5t23 9.5h183q-4 39 -6 84.5t3 102.5q1 14 10.5 22.5t23.5 6.5q13 -1 21.5 -11t7.5 -23q-5 -56 -2.5 -99t6.5 -83h186q14 0 23 -9.5t9 -22.5q0 -14 -9 -23t-23 -9h-182q1 -10 2 -19t1 -19v-158q0 -13 -9.5 -22t-22.5 -9q-14 0 -23 9t-9 22v158 q0 9 -1 18.5t-2 19.5h-187q-14 0 -23 9t-9 23z" />
<glyph unicode="&#xf716;" d="M-656 1657q0 13 9 22.5t23 9.5h183q-4 39 -6 84.5t3 102.5q1 14 10.5 22.5t23.5 6.5q13 -1 21.5 -11t7.5 -23q-5 -56 -2.5 -99t6.5 -83h186q14 0 23 -9.5t9 -22.5q0 -14 -9 -23t-23 -9h-182q1 -10 2 -19t1 -19v-158q0 -13 -9.5 -22t-22.5 -9q-14 0 -23 9t-9 22v158 q0 9 -1 18.5t-2 19.5h-187q-14 0 -23 9t-9 23z" />
<glyph unicode="&#x192;" d="M-1120.5 1049q3.5 25 16.5 50.5t32 50.5t39 46q38 41 83.5 63t95.5 26q33 2 71.5 -4t75.5 -20.5t70.5 -37.5t56.5 -55q5 -7 9.5 -15t9.5 -16q16 45 46 83.5t81 57.5q34 13 73.5 10t73.5 -22q30 -16 50 -40.5t28 -56.5q9 -36 0 -75t-35 -71q-26 -33 -61.5 -50.5 t-74.5 -17.5q-21 0 -46 5.5t-54 13.5q-8 -9 -19.5 -11t-21.5 5q-11 7 -19.5 16t-16.5 19q-10 5 -14 12q-1 0 -1.5 0.5t-1.5 0.5q-12 8 -23.5 15t-22.5 10q-48 16 -109.5 21t-123.5 -0.5t-118.5 -23t-93.5 -46.5q-12 -10 -26 -7q-13 3 -22 17q-11 22 -7.5 47zM-1043 1078 q46 22 100.5 34t111.5 15t112.5 -2.5t102.5 -18.5q-8 14 -16 25q-18 24 -44 42t-56 29t-61 16t-57 3q-48 -3 -82 -25t-54 -44q-40 -41 -57 -74zM-513 1054q5 -3 9.5 -5.5t9.5 -4.5q73 -25 114 -25q24 0 46.5 11t39.5 32t23 45.5t0 47.5q-5 22 -19 35t-27 20q-22 12 -47.5 14 t-47.5 -6q-24 -9 -42 -26t-30.5 -39.5t-19.5 -48t-9 -50.5z" />
<glyph unicode="&#xf703;" d="M-1120.5 1049q3.5 25 16.5 50.5t32 50.5t39 46q38 41 83.5 63t95.5 26q33 2 71.5 -4t75.5 -20.5t70.5 -37.5t56.5 -55q5 -7 9.5 -15t9.5 -16q16 45 46 83.5t81 57.5q34 13 73.5 10t73.5 -22q30 -16 50 -40.5t28 -56.5q9 -36 0 -75t-35 -71q-26 -33 -61.5 -50.5 t-74.5 -17.5q-21 0 -46 5.5t-54 13.5q-8 -9 -19.5 -11t-21.5 5q-11 7 -19.5 16t-16.5 19q-10 5 -14 12q-1 0 -1.5 0.5t-1.5 0.5q-12 8 -23.5 15t-22.5 10q-48 16 -109.5 21t-123.5 -0.5t-118.5 -23t-93.5 -46.5q-12 -10 -26 -7q-13 3 -22 17q-11 22 -7.5 47zM-1043 1078 q46 22 100.5 34t111.5 15t112.5 -2.5t102.5 -18.5q-8 14 -16 25q-18 24 -44 42t-56 29t-61 16t-57 3q-48 -3 -82 -25t-54 -44q-40 -41 -57 -74zM-513 1054q5 -3 9.5 -5.5t9.5 -4.5q73 -25 114 -25q24 0 46.5 11t39.5 32t23 45.5t0 47.5q-5 22 -19 35t-27 20q-22 12 -47.5 14 t-47.5 -6q-24 -9 -42 -26t-30.5 -39.5t-19.5 -48t-9 -50.5z" />
<glyph unicode="&#x2c6;" d="M-724 1164v18q-1 29 1 62t7 66.5t13.5 65t20.5 58.5q19 41 40 54t38 13q17 1 40 -12t45 -55q8 -14 12.5 -29t7.5 -29l2 4l6 15q29 73 81 82q15 2 35 -3t43 -30q25 -28 37 -61t15.5 -67.5t1.5 -70.5t-5 -70q-2 -14 -3 -26.5t-2 -26.5q26 49 45.5 104.5t33.5 113t25 116 t21 114.5l11 62q2 13 12.5 20t23.5 5q14 -2 21 -12.5t5 -23.5l-10 -62q-12 -68 -26.5 -142.5t-35.5 -148t-52 -142t-76 -125.5q-5 -7 -14 -10t-18 -1q-20 5 -23 24q-9 39 -7.5 82t5.5 85q3 32 5 62.5t0 59t-10.5 53.5t-26.5 45q-13 14 -20 13q-5 -1 -14.5 -11t-18.5 -33 l-7 -15q-43 -101 -43 -117v1q0 1 -0.5 1.5t-0.5 1.5q3 -14 -4.5 -24.5t-20.5 -13.5q-13 -2 -24 5t-13 21q-4 17 -5 34.5t-3 34.5q-2 29 -5.5 55.5t-16.5 50.5q-11 20 -18 26t-9 7q-2 -1 -8 -7t-14 -23q-19 -41 -27.5 -94.5t-9.5 -101.5q24 -3 48 -9.5t44.5 -18t36 -28 t23.5 -39.5q10 -28 3 -62.5t-27 -59.5q-15 -18 -34.5 -25.5t-39.5 -4.5q-30 4 -52 30.5t-36 59t-21 64t-8 45.5zM-658 1147q3 -18 10 -38.5t15.5 -38t17.5 -30t17 -13.5q2 0 6 0.5t10 8.5q11 13 14.5 31t-0.5 29q-8 22 -33.5 34t-56.5 17z" />
<glyph unicode="&#xf707;" d="M-724 1164v18q-1 29 1 62t7 66.5t13.5 65t20.5 58.5q19 41 40 54t38 13q17 1 40 -12t45 -55q8 -14 12.5 -29t7.5 -29l2 4l6 15q29 73 81 82q15 2 35 -3t43 -30q25 -28 37 -61t15.5 -67.5t1.5 -70.5t-5 -70q-2 -14 -3 -26.5t-2 -26.5q26 49 45.5 104.5t33.5 113t25 116 t21 114.5l11 62q2 13 12.5 20t23.5 5q14 -2 21 -12.5t5 -23.5l-10 -62q-12 -68 -26.5 -142.5t-35.5 -148t-52 -142t-76 -125.5q-5 -7 -14 -10t-18 -1q-20 5 -23 24q-9 39 -7.5 82t5.5 85q3 32 5 62.5t0 59t-10.5 53.5t-26.5 45q-13 14 -20 13q-5 -1 -14.5 -11t-18.5 -33 l-7 -15q-43 -101 -43 -117v1q0 1 -0.5 1.5t-0.5 1.5q3 -14 -4.5 -24.5t-20.5 -13.5q-13 -2 -24 5t-13 21q-4 17 -5 34.5t-3 34.5q-2 29 -5.5 55.5t-16.5 50.5q-11 20 -18 26t-9 7q-2 -1 -8 -7t-14 -23q-19 -41 -27.5 -94.5t-9.5 -101.5q24 -3 48 -9.5t44.5 -18t36 -28 t23.5 -39.5q10 -28 3 -62.5t-27 -59.5q-15 -18 -34.5 -25.5t-39.5 -4.5q-30 4 -52 30.5t-36 59t-21 64t-8 45.5zM-658 1147q3 -18 10 -38.5t15.5 -38t17.5 -30t17 -13.5q2 0 6 0.5t10 8.5q11 13 14.5 31t-0.5 29q-8 22 -33.5 34t-56.5 17z" />
<glyph unicode="&#x2dc;" d="M-772 1109q2 40 27 64.5t66 27.5q25 2 52 -5t50.5 -21.5t40.5 -35t22 -45.5q6 -33 -13 -63h26q49 1 88.5 10t74 26.5t65.5 45t61 66.5q4 6 9 10.5t9 7.5v1q11 9 24 8t21 -11q9 -10 8 -23t-11 -22q-2 -2 -5 -4.5t-5 -4.5q-34 -45 -70 -77t-77 -53t-88 -31.5t-102 -11.5 q-34 -1 -69 0.5t-67 7t-59.5 17t-46.5 31.5q-34 36 -31 85zM-708 1106q-1 -24 13 -38q10 -10 25.5 -16.5t33.5 -10.5q6 2 9 2q14 0 26.5 5.5t19.5 13.5t4 20q-2 11 -11.5 21.5t-23.5 18.5t-30.5 12.5t-31.5 3.5q-22 -2 -28 -11.5t-6 -20.5z" />
<glyph unicode="&#xf710;" d="M-772 1109q2 40 27 64.5t66 27.5q25 2 52 -5t50.5 -21.5t40.5 -35t22 -45.5q6 -33 -13 -63h26q49 1 88.5 10t74 26.5t65.5 45t61 66.5q4 6 9 10.5t9 7.5v1q11 9 24 8t21 -11q9 -10 8 -23t-11 -22q-2 -2 -5 -4.5t-5 -4.5q-34 -45 -70 -77t-77 -53t-88 -31.5t-102 -11.5 q-34 -1 -69 0.5t-67 7t-59.5 17t-46.5 31.5q-34 36 -31 85zM-708 1106q-1 -24 13 -38q10 -10 25.5 -16.5t33.5 -10.5q6 2 9 2q14 0 26.5 5.5t19.5 13.5t4 20q-2 11 -11.5 21.5t-23.5 18.5t-30.5 12.5t-31.5 3.5q-22 -2 -28 -11.5t-6 -20.5z" />
<glyph unicode="&#xe01;" horiz-adv-x="752" d="M84 537q-7 77 19 142t74 105.5t113.5 50t138.5 -24.5q67 -31 108 -83.5t64 -118t32.5 -139.5t14 -149t7.5 -147t13 -132q3 -17 -6.5 -27t-22 -12t-24.5 4t-15 23q-20 125 -32.5 250t-27.5 250q-5 39 -18 77.5t-36 70.5t-55 56t-74 34q-30 7 -57 3.5t-49.5 -16.5 t-40.5 -33t-31 -44q23 16 47.5 15.5t51.5 -27.5q18 -19 23.5 -48.5t4 -61.5t-6 -63t-5.5 -52q-5 -102 -4 -202.5t1 -202.5q0 -17 -10.5 -24.5t-23 -6t-23.5 10.5t-11 26q-1 88 -2.5 174t2.5 174q2 40 6.5 81t3.5 82q-1 27 -7.5 35t-16 5t-20.5 -14t-20.5 -23.5t-16 -22 l-6.5 -9.5q-6 -9 -16 -12.5t-20 -1t-17.5 9.5t-8.5 18z" />
<glyph unicode="&#xe02;" horiz-adv-x="758" d="M60 521q3 36 17.5 72.5t35 70t45 62t46.5 49.5q43 39 75 41.5t56 -18.5q15 2 29.5 -8t14.5 -30v-14.5t-1 -13.5q16 -38 26.5 -84.5t16.5 -89.5t9.5 -78t5.5 -50q4 -33 6.5 -68.5t7 -70.5t12.5 -69t24 -64q20 -37 37 -50t30 -9.5t22.5 21t15 40t7 47.5t-1.5 45 q-4 28 -9 55.5t-11 55.5q-14 57 -24 116.5t-22 118.5t-28.5 116t-41.5 111q-7 16 -0.5 29t19 19t26 2.5t21.5 -19.5q36 -77 53.5 -157.5t33.5 -163.5q8 -41 18.5 -83t19.5 -84t15.5 -84.5t5.5 -84.5q0 -21 -2.5 -47.5t-8.5 -53t-16 -49t-27 -35.5t-40.5 -13.5t-55.5 17.5 q-41 23 -68.5 58.5t-45.5 78.5t-27.5 91t-14.5 96.5t-7.5 95t-6.5 87.5q-1 11 -1 22t-1 22q-12 -32 -30 -63t-44 -63q-11 -14 -32 -29.5t-45 -25.5t-47.5 -11t-41.5 15q-31 27 -42 60t-8 69zM140 525q-17 -80 102 -9q32 44 52 97q4 16 5.5 32t3.5 32q-38 9 -105 -11 q-25 -31 -40 -65.5t-18 -75.5z" />
<glyph unicode="&#xe03;" horiz-adv-x="813" d="M95 748q-1 27 0 60t17 59q12 20 25 25.5t23 5.5q14 0 26 -6.5t22.5 -17.5t19.5 -25l18 -28q6 -10 13.5 -21.5t12.5 -16.5q13 -5 29.5 3t40.5 25q18 13 37 24t41 15q21 4 35.5 -2t22.5 -13q27 -25 30.5 -73t-0.5 -108q-1 -11 -1.5 -21t-0.5 -15q1 -19 1 -37.5v-37.5 q0 -62 3 -120q2 -17 2 -35.5t1 -36.5q1 -34 2.5 -68.5t7 -66.5t16.5 -61.5t30 -54.5q14 -18 24 -24.5t15 -4.5q9 2 26 29t31 89q13 58 16 115.5t-1.5 115.5t-14 117t-19.5 119q-8 38 -14.5 77.5t-11.5 79.5q-2 14 5.5 24t21.5 12q13 2 23.5 -6t12.5 -21q5 -39 11.5 -78 t13.5 -77q11 -63 21 -124t14.5 -122t1.5 -122.5t-18 -124.5q-35 -150 -106 -165q-52 -12 -102 52q-24 31 -37.5 66.5t-20.5 73t-8.5 75.5t-2.5 74q-1 18 -1.5 35t-1.5 33q-2 32 -2.5 63t-0.5 62q-1 18 -1 36.5v36.5q-1 8 -0.5 18.5t1.5 23.5q3 37 3 61.5t-1.5 39t-4.5 21 t-6 8.5h-1q-1 0 -1.5 -0.5t-1.5 -0.5q-12 -2 -25.5 -10t-27.5 -18q-19 -13 -40.5 -25.5t-46.5 -14.5q9 -34 15 -66t6 -59.5t-7 -50t-23 -36.5q-39 -33 -110 2q-27 13 -42 36t-22.5 50.5t-9 57.5t-1.5 56q-1 7 -1 13.5v12.5zM158 791q0 -23 1 -40v-14q1 -7 1 -13v-14 q0 -20 1 -42.5t5 -43t11.5 -36.5t21.5 -22q21 -11 30.5 -11.5t11.5 1.5t5 9.5t3 26.5t-6 52t-21 87q-2 7 -3 11t-2 7q-6 8 -12 17.5t-13 20.5q-5 9 -13 21t-15 20q-6 -14 -6 -37z" />
<glyph unicode="&#xe04;" horiz-adv-x="576" d="M104 619.5q2 49.5 13 99.5q3 13 9 35t18 44.5t29.5 42.5t43.5 31q19 8 49 8t70 -25q23 -15 41.5 -35.5t32 -43t22.5 -45t14 -41.5q39 -175 49 -343.5t10 -316.5q0 -14 -9 -23t-22 -9q-14 0 -23 9t-9 23q0 110 -5 231.5t-23 249.5q-9 -9 -19.5 -17t-22.5 -13 q-26 -12 -60 -13.5t-64 4.5q-3 -26 -6.5 -52.5t-5.5 -53.5q-2 -44 -1.5 -89t2.5 -93q2 -20 3.5 -40t3.5 -40q1 -17 1.5 -32t2.5 -31q1 -13 -7 -23t-22 -12q-13 -1 -23 7t-11 21v1l-1 1q-4 37 -6 72t-4 69q-2 8 -2 14.5t-2 14.5q-5 21 -11 43t-11 43l-10 36t-9 36 q-8 33 -14.5 73.5t-9.5 86.5t-1 95.5zM166.5 576.5q0.5 -68.5 13.5 -141.5q3 26 5 51t6 51l2 10q2 15 5 32t9 33.5t16 32t26 27.5q53 43 105 32q7 -1 12.5 -3.5t10.5 -4.5q-9 29 -28 58.5t-47 46.5q-27 17 -41.5 15.5t-19.5 -3.5q-20 -8 -37 -37t-25 -70 q-13 -61 -12.5 -129.5zM255 535q21 -5 47.5 -4.5t43.5 8.5q14 6 24 17.5t14 24.5q4 16 -6 30q-2 0 -2 3q-2 5 -11 15t-23 13q-22 4 -54 -20q-17 -13 -22.5 -36.5t-9.5 -48.5z" />
<glyph unicode="&#xe05;" horiz-adv-x="812" d="M112.5 531q-3.5 60 4.5 117t32 105.5t72 78.5q61 38 107 20q21 -8 36.5 -24.5t27 -38t20 -46t15.5 -48.5q3 -11 6 -20.5t7 -18.5q16 49 39 90.5t55 59.5q51 28 104 -9q21 -15 32 -38.5t16 -50.5t5 -55.5v-53.5q0 -8 -0.5 -14.5t-0.5 -12.5q0 -21 2.5 -59.5t5.5 -86.5 t7 -100.5t8 -101.5l12 -162q1 -13 -8 -22.5t-22 -10.5q-14 -2 -23 7t-11 22l-11 161q-4 52 -8 105t-7.5 101t-5.5 86t-2 60v30v39t-2 43t-7.5 37.5t-16.5 24.5q-13 10 -21 9.5t-15 -3.5q-17 -10 -31 -34.5t-26 -56t-20.5 -66t-13.5 -64.5l-3 -27q-1 -10 -1.5 -19.5 t-0.5 -18.5q0 -5 -2 -9l-4 -8q-2 -19 -8.5 -36t-21.5 -31q-17 -17 -38 -25t-44 -11t-46.5 -2.5t-44.5 1.5h-9q1 -14 1.5 -27t0.5 -27q2 -69 7.5 -138t29.5 -132q5 -12 -0.5 -23.5t-16.5 -16.5q-12 -5 -24 -0.5t-18 15.5v3v-1q-1 1 -1 2q-14 31 -21.5 58t-13.5 53 q-2 11 -4.5 20.5t-4.5 20.5l-9 32q-16 59 -30.5 118t-22.5 118q-8 52 -11.5 112zM176.5 536.5q1.5 -33.5 4.5 -61.5t6 -46q2 34 11.5 66.5t34.5 64.5q22 28 52.5 44t59.5 15q27 -1 50 -18q-8 16 -15 35t-13 40q-6 18 -12 36.5t-13.5 35t-16.5 28.5t-19 16q-11 5 -25.5 -0.5 t-25.5 -12.5q-27 -17 -43 -44.5t-24.5 -60.5t-10.5 -68.5t-0.5 -69zM250 408h6.5t7.5 -1q18 -1 36 -1.5t34.5 1t31 6t23.5 13.5t10.5 22.5t-2.5 29t-12.5 32.5t-19.5 33q-9 12 -22 12q-14 1 -31 -9t-29 -25q-20 -25 -26.5 -52t-6.5 -61z" />
<glyph unicode="&#xe06;" horiz-adv-x="982" d="M34 689q0 14 7 22q3 23 9 43q12 33 33.5 46t47 14.5t51.5 -5t47 -12.5l32 -10t26 -4q8 1 18.5 9.5t21.5 16.5q10 9 23 18.5t28 15t31.5 5t33.5 -11.5q11 -7 25.5 -40.5t30.5 -82t32 -108t29.5 -119.5t24.5 -115.5t16 -96.5q36 -3 70 -9q51 -11 101 -34t89 -55 q-4 35 -8 72.5t-9 76.5q-14 114 -24.5 207.5t-17.5 164t-9.5 115.5t0.5 62q2 13 13 20.5t24 5.5q13 -3 20.5 -13.5t4.5 -23.5q-2 -9 -0.5 -38t5.5 -70.5t9 -93t11.5 -107t13.5 -112.5t13 -109q10 -87 18.5 -163.5t13.5 -128.5q2 -13 -6.5 -22.5t-21.5 -11.5 q-14 -2 -23.5 6.5t-11.5 21.5q-3 30 -23 57t-50.5 49t-68.5 38t-77 24q-12 2 -25.5 4t-27.5 3q-1 -83 -36 -134t-101 -62q-31 -5 -56 4t-41 31q-18 26 -18 61t18 67q26 46 70.5 68t96.5 28q-5 41 -15 92t-22.5 103.5t-26 104.5t-26.5 94.5t-24 73.5t-18 42q-5 1 -15 -5.5 t-23 -17.5q-16 -13 -34 -25.5t-41 -14.5q-18 -2 -38.5 3.5t-43.5 12.5q-27 8 -44.5 12t-29 3.5t-17.5 -5.5t-9 -14l-3 -9q29 -2 56 -10.5t49.5 -23t39 -35.5t22.5 -48q3 -13 3.5 -34t-4 -43t-15 -41.5t-30.5 -29.5t-39 -7t-36.5 12t-31.5 21t-23 21q-14 13 -25 32.5 t-18.5 42t-11.5 47t-4 48.5q-4 7 -5 14zM103 660q2 -33 12 -64t26 -45q28 -26 41 -32t18 -4q8 5 12.5 29.5t-0.5 47.5q-4 16 -15 28.5t-26 20.5t-32.5 12.5t-35.5 6.5zM415.5 114q-1.5 -17 6.5 -28q2 -3 9 -8t25 -2q82 15 84 133q-37 -5 -67.5 -19.5t-47.5 -43.5 q-8 -15 -9.5 -32z" />
<glyph unicode="&#xe07;" horiz-adv-x="569" d="M51 210q2 13 12 21t24 6q21 -3 47.5 -12.5t55.5 -22.5t60 -29l62 -32q32 -17 65.5 -34t59.5 -27q-1 37 -6.5 87t-12.5 105.5t-15.5 112.5t-16.5 107.5t-15 90.5t-11 62q-27 -25 -64 -38.5t-69 -8.5q-48 6 -73 45q-11 17 -16.5 36.5t-7 40t1 39.5t6.5 34q10 36 36.5 62 t61.5 35q33 8 65 -1.5t55 -34.5q16 -17 26 -36.5t16.5 -40.5t10.5 -42.5t7 -42.5q2 -9 3 -17.5t3 -16.5q3 -15 10 -57.5t16.5 -100.5t19.5 -125t17.5 -130.5t12 -118.5t3.5 -88q-1 -13 -10 -21.5t-22 -8.5q-28 0 -73 20.5t-114 56.5q-28 15 -56.5 29.5t-55.5 27t-50.5 21 t-41.5 11.5q-14 2 -21.5 12.5t-5.5 23.5zM194 724.5q1 -28.5 13 -46.5q11 -16 28 -17q18 -2 42 6.5t41 24.5q7 6 13 16t6 21q-1 8 4 17q-5 19 -12.5 35.5t-18.5 28.5q-17 17 -33 18.5t-26 -0.5q-19 -5 -33 -18.5t-19 -33.5q-6 -23 -5 -51.5z" />
<glyph unicode="&#xe08;" horiz-adv-x="667" d="M108 429q0 36 18 69t50 56q17 12 39 16.5t45 3t44 -7t36 -12.5q49 -25 88 -78q18 -25 31 -51t24 -52q2 -5 4 -9q3 -9 7 -14v10q2 23 3.5 44.5t3.5 43.5q5 47 7.5 90.5t-2.5 88.5q-7 79 -39 129q-8 13 -20 26t-26 23t-30 17t-32 8q-21 1 -46 -8t-48 -23.5t-40.5 -33.5 t-23.5 -37q-5 -12 -16.5 -18t-23.5 -2q-13 5 -19 16.5t-1 23.5q10 31 35 58t57 47t66 30.5t63 9.5q25 -2 49 -11.5t44.5 -24t37.5 -32.5t28 -36q39 -62 49 -156q5 -49 2 -96.5t-8 -94.5q-2 -21 -3.5 -42.5t-2.5 -42.5q-4 -67 -4.5 -134t-1.5 -134q0 -6 0.5 -12t0.5 -11 l-1 -32q0 -14 -9 -23t-23 -9q-13 0 -22 9t-9 23v9v48q0 11 0.5 20.5t-0.5 19.5q-1 14 -5 28.5t-9 29.5q-2 9 -5 18t-5 18l-5 19q-5 20 -9.5 39t-12.5 37l-13 27q-11 23 -21.5 45t-24.5 42q-8 -23 -24 -44q-26 -30 -64.5 -47.5t-83.5 -18.5q-19 -1 -36 6t-31 21 q-16 15 -24.5 35t-7.5 43zM171 428q0 -19 13 -32q3 -3 8.5 -6t12.5 -3q30 1 57 12.5t44 31.5q20 24 18 57q-3 2 -6.5 5t-7.5 5q-9 5 -23 8t-28 4t-26.5 -0.5t-19.5 -6.5q-40 -31 -42 -75z" />
<glyph unicode="&#xe09;" horiz-adv-x="836" d="M96.5 545q4.5 27 16 51.5t25.5 42.5q23 31 60 57q-3 10 0.5 19.5t11.5 15.5q10 8 21.5 18t24.5 21q28 25 63 52.5t73 43.5t79 14t81 -36q25 -21 43 -51t30 -64t20 -71.5t14 -73.5q10 -64 11.5 -127t1.5 -125q0 -25 -1.5 -49t-3.5 -48q23 8 47 5.5t44 -22.5 q12 -12 17 -29.5t6.5 -34.5t1 -32t-1.5 -22q-2 -11 -4.5 -24.5t-8 -27.5t-14 -26.5t-20.5 -19.5q-42 -25 -79 -5q-27 14 -41 42.5t-16 54.5q-1 6 -0.5 12.5t0.5 13.5q-15 -11 -29.5 -22t-27.5 -23q-2 -2 -5 -5.5t-5 -7.5q-10 -13 -25.5 -28t-39.5 -14q-23 2 -30 25 q-4 16 -3 31.5t3 29.5q1 7 1.5 12.5t0.5 10.5q4 95 -4.5 195.5t-29.5 221.5q-3 -4 -6 -7.5t-7 -7.5q-11 -9 -21 -19l-20 -20l-31 -31q-9 -8 -21.5 -18t-27.5 -18.5t-33 -14t-37 -4.5q-46 2 -77 36q-20 22 -25.5 49t-1 54zM158.5 510q1.5 -15 10.5 -24q14 -16 33 -17 q15 0 34 10t39 28q15 13 30 30q11 10 21.5 20t21.5 21q8 8 16 22q5 7 10.5 14t12.5 14q-9 25 -24.5 34.5t-47.5 11.5q-17 1 -35 -5t-34.5 -16.5t-31.5 -24t-25 -27.5q-9 -12 -16.5 -28t-11.5 -32t-2.5 -31zM315 737h2q36 -2 60.5 -11.5t40.5 -26t25 -39t14 -49.5 q28 -143 38.5 -259.5t6.5 -224.5q-1 -1 -1 -3q15 13 30.5 25t30.5 24q3 2 7 5q3 2 5.5 3.5t3.5 2.5q10 8 23 17q1 8 1 15.5t1 15.5q2 26 4 50.5t2 49.5q0 60 -1.5 121t-11.5 121q-3 19 -8.5 49t-15.5 62t-24.5 62t-36.5 48q-21 18 -43.5 20.5t-46.5 -6.5t-50.5 -28 t-55.5 -44zM661 98q1 -14 8 -27t15 -18q2 -1 5.5 -1.5t11.5 4.5q3 3 9.5 18t8.5 40t-1 40.5t-6 18.5q-8 8 -21.5 4t-29.5 -12q-1 -34 0 -67z" />
<glyph unicode="&#xe0a;" horiz-adv-x="891" d="M84.5 653q1.5 19 6 37t12 33.5t15.5 26.5q17 24 36.5 45.5t43.5 38.5t52.5 27.5t63.5 10.5q61 1 111.5 -19.5t79.5 -55.5q22 -27 31 -56t14 -59q7 8 13.5 15t11.5 12q26 29 55.5 55.5t58.5 52.5q14 14 29 27t29 26q10 10 23 9.5t22 -10.5t8.5 -23t-10.5 -22 q-14 -14 -29.5 -27t-29.5 -27q-29 -25 -56.5 -51t-53.5 -53q-12 -13 -31 -35t-31 -46v-8q3 -17 6 -34.5t7 -34.5q14 -9 33 -16.5t38 -13.5q19 -7 36 -13.5t31 -14.5q43 -26 66.5 -62.5t31.5 -77.5t3.5 -83.5t-17.5 -81.5q-5 -17 -16 -37.5t-26 -41t-34.5 -37.5t-42.5 -26 q-23 -10 -46 -8.5t-45 12.5q-15 8 -23 20t-12 26.5t-5.5 29.5t-1.5 28l-1 6l-2 44q-2 42 -3.5 85t-1.5 87q0 37 -6 71t-14 69q-8 8 -14 17t-10 20q-7 22 -5 43.5t9 41.5q0 7 -0.5 13.5t-1.5 12.5q-2 22 -3.5 41.5t-6.5 37.5q-5 -5 -9.5 -11t-9.5 -12q-5 -7 -11 -14.5 t-13 -14.5q-15 -17 -31 -31t-39 -31q-20 -14 -48.5 -28.5t-61 -22.5t-65.5 -6.5t-61 18.5q-37 21 -46 68q-4 19 -2.5 38zM149 627q5 -19 17 -26q16 -9 38 -9t45 6t45 16.5t37 22.5q20 15 34 27.5t28 26.5q5 5 10 11.5t10 13.5q17 23 40 43q-20 23 -57 36.5t-82 12.5 q-47 0 -79.5 -26t-64.5 -70q-11 -14 -18 -38.5t-3 -46.5zM587 430q5 -23 8 -47t2 -50q0 -43 2 -84t4 -85l2 -44v-6q0 -5 0.5 -12.5t1.5 -16t2.5 -15t4.5 -7.5q19 -9 38 -1q14 6 27 18t24 27t19 31t12 28q5 14 11.5 43t4 63t-18 67.5t-54.5 56.5q-10 6 -24 11t-31 11 q-8 3 -17 6z" />
<glyph unicode="&#xe0b;" horiz-adv-x="885" d="M91 750q6 48 47 69q11 6 24.5 7.5t27.5 0.5q7 1 15 0q11 -3 20 -7q13 -3 21 -6t8 -4l11 -4q19 -9 28 -11t28 3q12 3 24.5 9.5t25.5 14.5q15 8 31.5 16.5t34.5 12.5t38 2t42 -14q15 -9 25 -22.5t15 -30.5t7.5 -36t2.5 -38q48 52 106 95.5t115 81.5q11 8 23.5 5.5 t20.5 -13.5t5 -23.5t-14 -20.5q-33 -23 -67 -46.5t-66 -49.5t-60.5 -53.5t-49.5 -57.5q-12 -18 -9 -30q2 -8 11 -16t20.5 -15t25 -13.5t24.5 -11.5l5 -2q80 -36 114 -124q15 -39 18 -81.5t-2 -83.5t-16.5 -78t-24.5 -66q-32 -65 -89 -90q-68 -30 -108 -3q-18 12 -27 31 t-12.5 41.5t-3.5 47t1 47.5q0 8 0.5 15.5t0.5 14.5v124q1 78 1 157t-4 157v28q0 10 -0.5 26.5t-2.5 32.5t-5.5 29t-10.5 17q-20 11 -37.5 5t-45.5 -22q-16 -9 -32 -17t-35 -13q-5 -2 -9 -2.5t-9 -1.5q3 -9 4 -17.5t2 -16.5q1 -35 -15 -63.5t-45 -42.5q-26 -14 -55.5 -9 t-54.5 26q-13 10 -25.5 26.5t-21.5 35.5t-13.5 39t-2.5 39zM154 743q-1 -10 2.5 -22t9.5 -24t13 -22.5t15 -16.5q23 -19 42 -8q12 5 18.5 18t5.5 29q0 14 -8.5 31.5t-40.5 30.5q-14 4 -26.5 5t-17.5 -1q-10 -5 -13 -20zM569.5 149.5q-0.5 -17.5 1 -34t4.5 -29.5t10 -17 q2 -2 12 -2.5t34 10.5q36 16 57 59q12 27 21.5 59t13.5 66.5t1.5 69t-13.5 65.5q-23 62 -80 88l-5 2q-13 6 -26.5 13t-27.5 15v-178l-1 -123v-16t-1 -17q0 -13 -0.5 -30.5z" />
<glyph unicode="&#xe0c;" horiz-adv-x="1109" d="M92 670q-15 51 30.5 95.5t147.5 78.5q70 24 136 17.5t125 -41.5q37 -23 68.5 -56t56.5 -74t42 -88t25 -98q9 -62 11 -121t2 -107q0 -3 0.5 -6t0.5 -6q14 -4 27.5 -8t27.5 -8l7 -3q20 -6 55.5 -27t86.5 -52q3 -2 6 -3.5t5 -3.5q-2 7 -2.5 13t-2.5 12q-5 20 -9 39.5 t-8 39.5q-26 144 -38 282.5t-12 280.5q0 13 9 22.5t22 9.5q14 0 23 -9.5t9 -22.5q0 -274 49 -552q4 -19 8 -37.5t9 -37.5q5 -24 10.5 -49t9.5 -50q3 -19 -13 -30q-15 -11 -33 -3q-11 6 -31 18t-44 27q-17 10 -36.5 22t-37.5 22.5t-32.5 18t-22.5 10.5l-7 2q-14 5 -32 10 q2 -33 1.5 -66t-10.5 -62q-11 -35 -36 -57t-58 -27q-31 -5 -59.5 8t-48.5 42q-33 48 -22 108q5 32 22.5 59t43.5 45q24 17 49 22.5t51 4.5v2q0 46 -2.5 103t-10.5 115q-7 44 -21.5 85t-35 76t-47 63.5t-57.5 47.5q-95 57 -208 18q-46 -15 -80 -34t-48 -36q32 -3 61.5 -22 t50.5 -51q12 -18 16.5 -40.5t5.5 -46.5t-1.5 -48t-4.5 -45l-2 -18l-6 -62q-2 -33 -5.5 -67.5t-8.5 -69.5v-5q21 -2 43.5 -9.5t38.5 -25.5q33 -34 25 -102q-2 -17 -10 -34t-20 -31t-27 -24t-31 -13q-24 -4 -44 7.5t-32 35.5q-27 56 -6 210q5 33 8 67t6 67l6 62l2 19 q1 15 3 34.5t2 39t-2 36.5t-9 28q-14 22 -37.5 37t-52.5 6q-14 -4 -25 3q-12 5 -15 18zM262 101q4 -23 7 -30t4.5 -7.5t3.5 -0.5q10 2 22 16.5t14 29.5q3 40 -9 52q-5 6 -16 9t-26 5q-4 -51 0 -74zM568.5 104q1.5 -16 12.5 -33q21 -27 47 -24q30 5 43 42q8 23 7.5 56 t-2.5 65q-18 1 -35 -2t-32 -14q-32 -22 -40 -62q-2 -12 -0.5 -28z" />
<glyph unicode="&#xe0e;" horiz-adv-x="830" d="M108 159q3 33 16.5 56t36.5 32q22 10 53 5t53 -19q6 41 9.5 79.5t3.5 67.5v16q0 45 -4 78.5t-27 68.5q-3 5 -7.5 11t-10.5 13q-11 13 -22.5 29t-19.5 33t-10 35.5t7 36.5q23 48 76 65t126 0q57 -14 98.5 -41.5t77.5 -76.5q44 -59 71.5 -141t43 -189t21 -238.5t5.5 -289.5 l1 -56q0 -31 0.5 -62.5t-1.5 -63.5q-2 -17 -15 -24q-12 -9 -28 -4q-22 8 -34 29t-21 43q-2 6 -4.5 11l-4.5 9l-2 3q-9 17 -19 33t-22 28q-15 16 -41 31q-25 -42 -51.5 -71.5t-64.5 -55.5l-15 -9t-37 -17.5t-47.5 -12t-46.5 7.5q-10 5 -22.5 20t-13.5 46q0 34 18 64t46 54 t61 40.5t62 21.5q42 7 83 -5q0 2 2 4q10 23 22 46.5t31 49.5q8 11 21 12.5t24 -6.5q10 -8 12 -20.5t-6 -23.5q-16 -21 -26.5 -42t-19.5 -42q-2 -2 -2 -3q17 -10 31 -21.5t26 -23.5q13 -13 22.5 -28t18.5 -30v11v58q0 143 -4 251.5t-11.5 190.5t-18.5 141t-25 102.5t-32 75 t-38 59.5q-29 39 -61 60.5t-79 32.5q-9 2 -27 5t-38 1.5t-38 -9.5t-27 -27q-2 -5 1.5 -13.5t10 -18.5t14 -19.5t12.5 -16.5q6 -8 11.5 -14.5t10.5 -13.5q30 -47 35 -90.5t5 -91.5v-16q0 -1 -0.5 -24.5t-4 -59t-9.5 -79t-17.5 -83.5t-28.5 -72t-42 -46q-11 -6 -32.5 -9 t-50.5 14q-14 9 -24.5 24.5t-16.5 34.5t-8.5 39.5t-0.5 39.5zM171 154q-2 -29 6 -51.5t15 -27.5q9 -5 13 -4.5t6 1.5q13 7 23.5 31.5t18.5 58.5l-4 4q-2 2 -4.5 5t-9.5 9t-24.5 9t-25.5 0q-11 -6 -14 -35zM280 -325q0 -5 0.5 -7t0.5 -3q4 -2 13 -0.5t20.5 5t24 9.5t23.5 13 q30 22 51.5 45t41.5 55q-19 4 -40 1q-20 -4 -44 -15.5t-44 -28t-33.5 -36t-13.5 -38.5z" />
<glyph unicode="&#xe0f;" horiz-adv-x="788" d="M12 -333q-4 19 1 35.5t14 30.5t20.5 25.5t20.5 19.5l4 4q23 21 45.5 36t46.5 25t51.5 15t59.5 6h2q23 38 40 75.5t29 75.5q4 13 15.5 19.5t23.5 1.5q13 -4 19 -15.5t2 -23.5q-11 -35 -25.5 -68.5t-32.5 -67.5q75 -8 121 -39q8 -5 14 -11.5t13 -14.5q3 -4 7.5 -9t8.5 -7 q2 2 3 5.5t3 5.5q3 6 6 12.5t8 12.5q8 11 21 14q15 2 24 -6q11 -8 20 -19.5t17 -22.5q-14 93 -20.5 177.5t-9.5 149.5q-4 76 -3 141q0 22 1 45.5t2 48.5q3 46 4 96t-3.5 97.5t-17.5 89t-39 70.5q-61 69 -151 67q-31 0 -61.5 -9t-59.5 -25q2 0 2 -1q30 -17 48 -52t27.5 -81.5 t12.5 -100t3 -107.5v-5q0 -51 -8 -96.5t-19 -91.5l-6 -26t-5 -27q-3 -14 -7.5 -31.5t-12.5 -34t-20.5 -31.5t-32.5 -25q-39 -17 -66 -4q-22 10 -30 31t-12 35q-5 20 -11.5 51.5t-7 64.5t9.5 63t37 48q21 14 45 13t47 -15q15 -12 25 -23q5 24 7.5 48.5t2.5 50.5v5 q0 78 -5.5 130.5t-13.5 85t-18.5 48.5t-20.5 22q-19 12 -56 -11q-11 -6 -22 -4t-19 11t-7.5 21t8.5 20q48 55 112.5 85.5t133.5 31.5q58 0 108.5 -22t89.5 -66q33 -37 49.5 -85t22.5 -101t4.5 -108t-3.5 -105q-2 -25 -3 -48t-1 -43q-1 -65 3 -141q3 -65 9.5 -148.5 t20.5 -175.5q3 -18 4 -36.5t0 -39.5q-1 -13 -10 -22t-23 -8q-30 1 -49.5 22t-34.5 42q-10 -14 -26.5 -24.5t-43.5 -1.5q-14 5 -25 15.5t-21 21.5q-4 5 -8.5 9.5l-6.5 6.5q-42 28 -119 30l-2 -2q-4 -7 -8 -13.5t-8 -13.5q-26 -43 -59 -85.5t-86 -64.5q-7 -3 -19 -6.5 t-26.5 -5t-29.5 -0.5t-29 9q-27 15 -35 49zM74 -321q1 -3 2 -4t1 -2q5 -2 19 -1t31 8q37 15 62 47.5t48 68.5q-36 -5 -64.5 -19.5t-57.5 -40.5l-5 -5q-12 -11 -25 -25.5t-11 -26.5zM176 214.5q-1 -18.5 2 -47t14 -70.5q2 -11 4 -16t4 -7q2 0 11 4q17 8 24.5 28.5t13.5 48.5 q1 5 1.5 8.5t1.5 8.5q-5 8 -3 19q2 13 -7.5 32t-26.5 30q-10 7 -15 6t-7 -3q-6 -4 -11 -13.5t-6 -28z" />
<glyph unicode="&#xe10;" horiz-adv-x="624" d="M-1 -371q1 16 9.5 32.5t20.5 30.5t26 25t26 17q29 12 56.5 13t51.5 -7q11 18 18.5 34.5t8.5 30.5q0 14 9.5 22.5t23.5 8.5q13 -1 22 -10.5t8 -22.5q-1 -23 -11 -48.5t-27 -51.5q4 -4 8 -7t7 -8q4 -6 7 -12.5t6 -13.5q2 -5 5 -11t6 -11q4 5 7.5 11t5.5 11t4.5 9t5.5 9 q9 16 29 14q8 -1 15.5 -6t10.5 -13q8 -17 17 -26.5t12 -10.5q5 0 13.5 4t16.5 11t14 14.5t8 13.5q5 18 5 36.5t-1 38.5q-23 4 -38.5 12.5t-23.5 17.5q-37 37 -31 109q2 31 19.5 53.5t43.5 27.5q19 4 41.5 -5.5t36.5 -41.5q12 -26 13.5 -52t0.5 -50q0 -8 -0.5 -15.5 t0.5 -15.5v-12.5t1 -13.5q2 -26 2 -52t-8 -53q-4 -16 -16.5 -32.5t-29 -30t-35.5 -21.5t-37 -6q-16 2 -28.5 9.5t-22.5 18.5q-10 -14 -24 -24t-35 -8q-13 1 -22.5 8t-16.5 16.5t-12.5 20t-9.5 20.5l-4 10t-4 7q-23 -25 -47.5 -44.5t-49.5 -27.5q-19 -7 -43 -9.5t-42 11.5 q-22 16 -22 46zM67 -364q4 1 8.5 2t9.5 3q14 5 29.5 16.5t30.5 26.5q-22 0 -38 -9q-11 -5 -23 -17t-17 -22zM89.5 714.5q-2.5 21.5 0.5 44t10 42.5t15 32q16 23 37 35t44 16.5t46 3.5t43 -4q16 -2 27 -5.5t22 -8.5q3 -2 6 -2.5t7 -2.5q13 -5 24.5 -6t31.5 -1q17 0 32.5 8 t33.5 19q9 5 18 11t20 11q12 5 24.5 1t17.5 -16q6 -12 1.5 -24.5t-15.5 -17.5q-8 -5 -16.5 -9.5t-16.5 -9.5q-20 -13 -43.5 -24.5t-54.5 -11.5q-21 -1 -39.5 1t-40.5 10q-10 4 -14 5q-9 4 -16 6.5t-17 4.5q-45 5 -71 -0.5t-39 -24.5q-5 -6 -8 -17.5t-5 -23t-2 -22t2 -15.5 q4 -1 15 0.5t34 9.5q29 10 52.5 15.5t56.5 3.5q97 -6 147.5 -88t50.5 -231v-259v-129q0 -14 -9 -23t-22 -9q-14 0 -23 9t-9 23q0 56 -8 109t-19 108l-10 54q-4 23 -13.5 51t-25.5 53q-8 -15 -18 -29t-21 -26t-21 -21t-17 -14q-23 -15 -49.5 -17t-52.5 10q-27 12 -44.5 35.5 t-21.5 52.5q-4 27 4.5 52t27.5 45q24 24 60 35.5t73 6.5q30 -3 54 -16t43 -32.5t33.5 -43t25.5 -47.5v22q0 42 -5.5 86.5t-21 81t-42.5 61t-69 26.5q-25 2 -43 -2.5t-42 -12.5q-8 -3 -23.5 -7.5t-33 -6t-34.5 3t-29 19.5t-14.5 36.5zM189 415q2 -12 9.5 -23t20.5 -16 q6 -2 17 -3.5t23 6.5q10 7 22 19.5t21 25.5t14.5 25t4.5 17h-1q-2 2 -3 3.5t-3 3.5q-17 8 -30 11q-23 2 -45 -4.5t-36 -20.5q-19 -19 -14 -44zM413 -109q-3 -44 14 -61q6 -7 14 -9v8q1 20 0.5 39t-8.5 34q-3 7 -5.5 9t-3.5 3q-2 0 -6 -5.5t-5 -17.5z" />
<glyph unicode="&#xe11;" horiz-adv-x="1079" d="M74 759q-5 55 45 84q22 13 41.5 15.5t37 -1.5t32.5 -12t27 -16q18 -11 30.5 -17t26.5 -4q6 1 11.5 3.5t12.5 5.5t17 7t21.5 5t24.5 -2.5t27 -14.5q22 -17 32 -47.5t18 -64.5q9 -39 15.5 -79t12.5 -81q9 26 20.5 49t27.5 41q40 44 91.5 61.5t103.5 5.5q51 -13 88.5 -51 t51.5 -95q27 -103 44 -198.5t25 -188.5l3 -27q3 -33 5 -66.5t0 -67.5q-1 -14 -10.5 -22.5t-23.5 -7.5t-22.5 11t-6.5 23q2 30 -0.5 61.5t-4.5 62.5l-3 28q-15 176 -67 376q-11 38 -35.5 65t-58.5 35q-35 8 -69.5 -4t-63.5 -44q-15 -17 -26 -43.5t-18 -57.5t-10.5 -63.5 t-3.5 -61.5q0 -35 2 -69.5t6 -69.5q5 -48 8 -93.5t3 -93.5q0 -13 -9 -22t-22 -9q-14 0 -23 9t-9 22q0 42 -3 81.5t-7 78.5q0 5 -0.5 10.5t-1.5 10.5q-3 33 -8 67t-10 71q-5 28 -9 56.5t-8 56.5q-8 56 -16 111.5t-20 109.5q-2 7 -4.5 18t-6 22t-8 21t-9.5 14t-7.5 3.5 t-14.5 -6.5q-8 -5 -18.5 -9t-23.5 -6q-8 -2 -16 -1.5t-16 1.5q4 -8 6 -17.5t2 -22.5q-2 -47 -34 -69q-34 -23 -83 -6q-18 6 -36 19.5t-33.5 31t-26.5 37.5t-13 41zM138 766q1 -11 7.5 -23t16 -22.5t21 -19t21.5 -11.5q11 -4 17.5 -4t8.5 2q6 3 6 19q1 11 -3 17t-18 19l-8 7 q-8 8 -8.5 18t4.5 20q-14 8 -26 8.5t-26 -7.5q-10 -6 -12 -12t-1 -11z" />
<glyph unicode="&#xe12;" horiz-adv-x="1170" d="M110 541q1 42 7.5 85t19 83t33.5 74q49 77 111 91q55 10 113 -28q30 -20 51.5 -46.5t37 -56.5t26.5 -62t19 -63q2 -9 3 -18l2 -18q1 -7 2 -16.5t3 -14.5q5 5 8 20.5t5 23.5q1 15 6 27q10 35 23 55.5t26.5 30.5t26.5 11.5t22 0.5q18 -3 31 -16.5t23.5 -33.5t18.5 -45.5 t16 -53.5q2 -5 3 -9.5t2 -6.5q14 -45 25.5 -89.5t22.5 -89.5l14 -58l6 -24q8 -31 15 -63t9 -66q35 -14 63 -29.5t42 -24.5q5 -3 9 -6l8 -6q6 -5 16 -12t13 -5t7 13.5t7 46.5v6q2 21 -0.5 60t-7.5 87t-11.5 100.5t-12.5 101.5q-8 60 -13.5 108t-6.5 74l-1 19q-1 16 -2 31.5 t-4 29.5q-2 13 4.5 24t19.5 14t24 -4t14 -20q5 -18 5.5 -36t1.5 -36l1 -19q2 -23 7 -70.5t13 -106.5q6 -53 12.5 -107t11.5 -103t7.5 -88.5t0.5 -63.5v-5q-1 -12 -2.5 -28.5t-7 -33t-15 -30.5t-25.5 -21q-15 -7 -29 -6.5t-26 5t-22 11.5t-17 13q-8 7 -13 9q-18 12 -37.5 23 t-39.5 19q-2 -8 -4.5 -17t-6.5 -17q-8 -17 -21.5 -32.5t-30.5 -27t-36 -17t-37 -2.5q-6 1 -15.5 5.5t-18.5 13.5t-15.5 25t-6.5 40t4 41t11.5 29.5t16 20.5t17.5 13q18 10 39.5 11.5t44.5 -2.5q-2 23 -8 47l-12 48l-6 25l-15 58q-11 44 -22 87.5t-25 86.5q-1 4 -2 9t-3 11 q-14 52 -23.5 73.5t-15.5 27.5q-4 -2 -11.5 -14.5t-15.5 -37.5q-1 -4 -1.5 -9t-2.5 -11q-4 -23 -11.5 -48.5t-29.5 -39.5q-8 -5 -20.5 -9t-29.5 1q-17 4 -27 14t-15 23t-7 26.5t-3 24.5q-1 8 -1.5 14.5t-1.5 11.5q-8 28 -17 55.5t-22 52.5t-30 46.5t-40 37.5q-36 24 -64 18 q-36 -8 -70 -63q-3 -4 -5 -9t-5 -10q29 10 52 5q39 -7 70 -45q12 -3 19 -13t5 -22q5 -9 9 -17.5t9 -17.5q19 -35 36.5 -72.5t26.5 -82.5q0 -1 3.5 -23t7 -56.5t5 -77t-3 -84t-17.5 -78t-37 -58.5q-15 -14 -42 -23.5t-69 2.5q-39 12 -68.5 44.5t-50 74t-32.5 85.5t-16 78 q-3 17 -6 46.5t-4.5 66.5t-0.5 79zM173 527q-1 -44 2 -87t8 -82q4 -29 14 -66t26 -71t36.5 -60t46.5 -33q22 -7 33 -2.5t17 9.5q18 17 27 54.5t10.5 83t-3 93.5t-11.5 86q-8 37 -22.5 69t-31.5 64q-20 -25 -45.5 -43.5t-52.5 -22.5q-18 -3 -31 0t-23 8zM194.5 604 q-0.5 -10 2.5 -17q1 -2 4 -4.5t17 -0.5q9 1 19.5 7.5t20.5 15.5t18.5 20t13.5 22q-17 21 -36 26q-18 3 -36 -12q-7 -6 -12 -16t-8 -20.5t-3.5 -20.5zM706 71q0 -12 2 -17t3 -5h3.5t8.5 2q13 4 25 15t18 24q3 7 4 14.5t3 15.5q-34 7 -50 -2q-17 -9 -17 -47z" />
<glyph unicode="&#xe13;" horiz-adv-x="1165" d="M77.5 695.5q4.5 12.5 16.5 18.5q17 8 34 19l34 22q20 14 41 27t45 24q204 89 328 31q33 -15 62 -39.5t53 -55.5t41 -67.5t25 -74.5q10 -49 18 -93.5t14 -87t9 -86t3 -89.5v-49q55 68 140 72q-18 105 -24.5 207t-6.5 215q0 13 9 22t23 9q13 0 22.5 -9t9.5 -22 q0 -115 6.5 -218.5t25.5 -210.5q38 -11 72.5 -34.5t54.5 -55.5q19 -29 22.5 -60.5t-7.5 -61.5q-13 -33 -31 -45t-32 -14q-45 -5 -79 47q-21 32 -29 59t-14 56q-2 6 -2.5 12t-2.5 13q-2 8 -3 14.5t-3 13.5q-38 0 -64 -16t-43.5 -40.5t-28 -55.5t-15.5 -61q-2 -12 -12 -19.5 t-22 -6.5q-13 1 -21 10t-8 21v141v67q0 44 -3 85.5t-9 83t-14 84.5t-18 90q-6 31 -19.5 61t-32.5 55t-42.5 45t-49.5 32q-99 44 -276 -32q-14 -6 -26 -13.5t-25 -15.5q21 -10 33 -32q22 -39 22.5 -83t-2.5 -84q-1 -10 -1.5 -19.5t-1.5 -17.5q-1 -35 -1.5 -70.5t-1.5 -69.5 q23 2 44.5 -5t39.5 -26q21 -22 34.5 -54t17.5 -66.5t-1.5 -68t-21.5 -58.5q-38 -58 -79 -66q-29 -3 -51 16q-21 18 -31.5 44t-14.5 56t-3.5 61.5t1.5 59.5q1 11 1 20.5t1 17.5l-3.5 3.5t-2.5 3.5q-6 10 -4 21t10 19q0 38 0.5 80t2.5 84q1 10 1.5 20t1.5 20q3 35 3 69.5 t-15 61.5q-6 11 -19 13t-26 -1t-23.5 -7t-11.5 -5q-11 -5 -23.5 -1t-18.5 16t-1.5 24.5zM267 186.5q-1 -25.5 1 -49.5t8 -44t18 -30l1 -1q3 1 11.5 8.5t22.5 28.5q10 16 13.5 39t0.5 47.5t-12 46.5t-22 36q-7 7 -16 11t-23 2v-5q0 -10 -0.5 -21t-0.5 -22q-1 -21 -2 -46.5z M1020 186q2 -6 3 -11.5t2 -11.5q6 -27 12 -47t22 -44q7 -11 12 -15t7 -4q2 1 4.5 4.5t6.5 13.5q12 32 -9 65q-11 16 -26.5 28.5t-33.5 21.5z" />
<glyph unicode="&#xe14;" horiz-adv-x="812" d="M86.5 607.5q0.5 14.5 5.5 28.5q2 23 7.5 48.5t17.5 50t30.5 46.5t47.5 38q37 21 82 27t89 -2.5t84.5 -31t70.5 -56.5q9 -11 28 -37t43 -69.5t49.5 -104.5t47 -141t36 -179t16.5 -218v-12v-5q0 -14 -9 -23t-23 -9q-13 0 -22 9t-9 23v6v10q-2 132 -22 244.5t-49 202 t-64.5 155.5t-69.5 106q-23 26 -54 43t-64.5 23.5t-67 3t-61.5 -19.5q-34 -20 -53 -62q28 2 53 -8q67 -31 112.5 -97.5t65.5 -165.5q9 -42 16.5 -90t10.5 -96t-2 -91t-22 -74q-23 -44 -54.5 -62.5t-63.5 -7.5q-34 13 -61 42.5t-48 66.5t-35.5 77.5t-24.5 74t-14.5 55 t-4.5 22.5q-8 44 -9 87t-2 85v52q0 4 -1 6q-3 15 -2.5 29.5zM153 581q5 -12 13 -22q19 -23 37.5 -35.5t29.5 -8.5q5 1 6.5 9t1 18.5t-2 21t-2.5 18.5q-2 9 -3 17t-1 16q-8 5 -16 10.5t-16 10.5q-10 4 -22 4.5t-20 -11.5q-1 -1 -3 -5q-1 -11 -1.5 -21.5t-0.5 -21.5zM155 481 q0 -31 2 -62t7 -60q7 -38 20.5 -84t33 -88.5t43 -74.5t50.5 -42q5 -2 17 9t23 31q39 73 -9 308q-13 63 -39 110q-2 -23 -12 -43.5t-38 -29.5q-27 -10 -52.5 -0.5t-45.5 26.5z" />
<glyph unicode="&#xe15;" horiz-adv-x="898" d="M98 649q3 31 8 52q6 24 26 39q5 30 16.5 57t37.5 47q17 14 35.5 18.5t38.5 1.5q24 -4 47 -18t43 -34.5t38.5 -44.5t33.5 -47q4 -6 8 -13t9 -16q4 -7 10.5 -17.5l13 -21t13.5 -19t12 -12.5q6 4 11 13t8 20t5 23t4 23q2 8 2.5 14.5t2.5 13.5q0 2 2 10q2 12 5 26.5t8.5 28 t14 24.5t22.5 16q18 7 36 -3q16 -9 37.5 -49t45.5 -101.5t49 -140.5t46 -167t37.5 -180.5t24.5 -180.5q2 -13 -6.5 -23t-21.5 -11q-14 -2 -23.5 6.5t-11.5 22.5q-11 122 -35.5 241t-53.5 220t-58 176t-48 110q-2 -8 -3.5 -15t-2.5 -11t-1 -7t-1 -5q-2 -8 -4 -24 q-3 -18 -7 -38t-11.5 -39t-20.5 -34t-33 -22t-37.5 0.5t-32.5 23t-28 36.5t-25 41q-5 8 -8.5 14.5t-6.5 11.5q-75 110 -119 117q-14 2 -25 -8q-8 -5 -12.5 -13t-8.5 -17q80 0 128 -129q2 -4 4 -9.5t5 -12.5q8 -8 7 -20v-2q10 -30 23 -72.5t24.5 -91.5t20 -101.5t9.5 -103 t-7.5 -96t-29.5 -79.5q-19 -30 -37.5 -37t-32.5 -5q-21 4 -37 21.5t-27.5 40.5t-19 46.5t-10.5 38.5l-6 24q-10 43 -20.5 89t-20.5 90.5t-18.5 87t-15.5 78.5q-28 25 -40 69q-8 28 -5 59zM192 637q0 -28 9 -77q5 -1 10 -1t11 2q30 8 42.5 15.5t17.5 12.5q-2 6 -4.5 12.5 t-4.5 11.5q-36 94 -78 87q-2 0 -3 -1v-43v-19zM212 497q8 -41 18 -86t19 -86.5t17.5 -77t13.5 -57.5l6 -24q8 -34 20 -60.5t21 -34.5l3.5 3.5t3.5 5.5q21 34 25.5 87t-2 113.5t-21.5 124.5t-33 120q-18 -11 -35.5 -16.5t-28.5 -8.5q-7 -2 -13.5 -2.5t-13.5 -0.5z" />
<glyph unicode="&#xe16;" horiz-adv-x="715" d="M65 687q-2 34 16 63t44.5 52.5t54 40t44.5 25.5q23 13 52 21t60 9t61 -6.5t56 -24.5q22 -15 40 -36t32 -45t26 -49t22 -48l2 -5q18 -41 27 -90.5t16 -96.5l6 -43q12 -75 13 -153t-1 -156q-1 -26 -1.5 -51.5t-0.5 -51.5q0 -13 -9 -22t-22 -9q-14 0 -23 9t-9 22 q0 26 0.5 52t0.5 52q2 76 1 152t-12 147l-6 44q-6 44 -14.5 89.5t-23.5 80.5l-3 5q-17 41 -40.5 84.5t-56.5 66.5q-17 11 -38 15.5t-43 3.5t-43.5 -6.5t-38.5 -14.5q-85 -47 -113 -87q16 2 32 3.5t31 -3.5q24 -8 37.5 -25.5t22.5 -32.5q1 -5 5 -8q12 -21 18 -45.5t8 -51 t0.5 -53.5t-2.5 -53q-1 -16 -1.5 -30t-0.5 -27q0 -5 -0.5 -13.5t-0.5 -19.5q-1 -17 -1.5 -33t-0.5 -32q4 1 7 1.5t8 0.5q19 0 40 -3.5t40.5 -11t35 -18.5t24.5 -25t12 -30.5t2 -34.5t-4.5 -35.5t-9.5 -32.5q-3 -9 -9.5 -22.5t-16 -27.5t-23 -26t-30.5 -17q-29 -9 -48.5 -3.5 t-30.5 14.5q-32 25 -45 77.5t-15 121.5q-14 17 -3 36l2 2q0 25 0.5 50.5t1.5 51.5q1 11 1.5 18t0.5 12q0 14 0.5 29t1.5 32q1 22 2 45.5t0 45.5t-5 41.5t-13 33.5q-2 2 -2.5 4.5t-2.5 4.5q-5 9 -11 18t-12 11q-7 2 -19 0.5t-24 -3.5l-24 -4t-24 -1t-20.5 9.5t-9.5 20.5z M288 238q3 -132 36 -156q2 -2 6 -3.5t15 1.5q8 2 19 16.5t20 38.5q10 26 10.5 47.5t-4.5 29.5q-2 4 -10.5 9t-20.5 9.5t-26.5 7.5t-28.5 3q-9 -1 -16 -3z" />
<glyph unicode="&#xe17;" horiz-adv-x="1024" d="M82 635.5q-1 27.5 4 54t16 50t26 40.5q80 91 155 91q58 0 104 -50q43 -47 69.5 -106.5t43.5 -126.5q11 35 28 68.5t43 70.5q32 45 71 70.5t79 29.5q60 6 110 -42q28 -27 45 -60t26.5 -69.5t13.5 -74t7 -73.5q1 -13 1.5 -25t2.5 -23q11 -100 15.5 -206t4.5 -223 q0 -14 -9 -23t-23 -9q-13 0 -22 9t-9 23q0 115 -5 219t-15 204q-2 12 -2.5 24t-1.5 25q-3 33 -6 66.5t-10.5 64t-20.5 57.5t-35 48q-29 28 -62 25q-26 -2 -53.5 -22t-50.5 -52q-26 -36 -42 -69t-24.5 -67.5t-11.5 -72.5t-3 -84q0 -23 1 -48t3 -51q0 -5 0.5 -9t0.5 -7 q0 -4 1 -7q2 -16 2.5 -32.5t-0.5 -33.5q2 -41 3 -80.5t-2 -74.5q-2 -12 -10.5 -20t-20.5 -8q-13 -1 -22 7t-10 20q-4 29 -4 59.5t2 59.5q0 11 0.5 21t0.5 20l-3 51q-1 8 -1 14.5t-1 13.5l-1 14q-5 48 -11 99.5t-16 103t-24.5 100.5t-36.5 91q-11 -24 -30 -55t-45 -58 t-57.5 -45.5t-66.5 -18.5q-71 0 -99 62q-11 23 -12 50.5zM145 642.5q1 -17.5 7 -31.5q11 -24 41 -25q21 0 43 14.5t41.5 36.5t35.5 48.5t25 49.5q6 14 21 19q-5 6 -9.5 12.5t-9.5 11.5q-27 31 -56 29q-48 0 -109 -69q-9 -10 -16 -26t-11 -34t-3 -35.5z" />
<glyph unicode="&#x2219;" horiz-adv-x="1024" d="M82 635.5q-1 27.5 4 54t16 50t26 40.5q80 91 155 91q58 0 104 -50q43 -47 69.5 -106.5t43.5 -126.5q11 35 28 68.5t43 70.5q32 45 71 70.5t79 29.5q60 6 110 -42q28 -27 45 -60t26.5 -69.5t13.5 -74t7 -73.5q1 -13 1.5 -25t2.5 -23q11 -100 15.5 -206t4.5 -223 q0 -14 -9 -23t-23 -9q-13 0 -22 9t-9 23q0 115 -5 219t-15 204q-2 12 -2.5 24t-1.5 25q-3 33 -6 66.5t-10.5 64t-20.5 57.5t-35 48q-29 28 -62 25q-26 -2 -53.5 -22t-50.5 -52q-26 -36 -42 -69t-24.5 -67.5t-11.5 -72.5t-3 -84q0 -23 1 -48t3 -51q0 -5 0.5 -9t0.5 -7 q0 -4 1 -7q2 -16 2.5 -32.5t-0.5 -33.5q2 -41 3 -80.5t-2 -74.5q-2 -12 -10.5 -20t-20.5 -8q-13 -1 -22 7t-10 20q-4 29 -4 59.5t2 59.5q0 11 0.5 21t0.5 20l-3 51q-1 8 -1 14.5t-1 13.5l-1 14q-5 48 -11 99.5t-16 103t-24.5 100.5t-36.5 91q-11 -24 -30 -55t-45 -58 t-57.5 -45.5t-66.5 -18.5q-71 0 -99 62q-11 23 -12 50.5zM145 642.5q1 -17.5 7 -31.5q11 -24 41 -25q21 0 43 14.5t41.5 36.5t35.5 48.5t25 49.5q6 14 21 19q-5 6 -9.5 12.5t-9.5 11.5q-27 31 -56 29q-48 0 -109 -69q-9 -10 -16 -26t-11 -34t-3 -35.5z" />
<glyph unicode="&#xe18;" horiz-adv-x="606" d="M106.5 722.5q1.5 19.5 8 37.5t13.5 29q31 54 84 79.5t109 14.5q13 -3 29.5 -9.5t33 -15t32.5 -19t27 -21.5q6 -6 10.5 -12t6.5 -11q5 -6 6 -7t5 -2q12 -2 22 4.5t15 10.5q10 9 23 9t22 -10q9 -9 9 -22t-10 -22q-20 -20 -44.5 -28.5t-49.5 -3.5q-23 5 -34 16.5t-17 20.5 q-5 7 -9 12q-7 7 -19 14.5t-24.5 14.5t-25 12t-21.5 7q-36 8 -70 -9.5t-55 -53.5q-8 -13 -11.5 -30.5t-0.5 -22.5q-1 1 -1 1.5t-2 1.5q-1 1 -2 1q5 -2 20 -1.5t25 1.5q13 1 23.5 1.5t19.5 -1.5q81 -13 133.5 -74t71.5 -164q8 -44 14 -95.5t6.5 -104t-6 -103.5t-23.5 -94 q-18 -43 -52 -61t-76 -7q-24 7 -44 28t-36 51t-30 67t-26 75q-2 7 -4 12.5t-4 10.5q-52 150 -52 274q0 14 9 23t23 9q13 0 22 -9t9 -23q0 -113 49 -253q2 -5 4 -11t4 -13q5 -16 15 -44.5t22.5 -57t27 -51t28.5 -26.5q3 -1 9.5 -2t13.5 1t15 9.5t14 22.5q16 39 21 88 t3.5 98.5t-7.5 95t-12 79.5q-5 28 -15.5 59t-28 57t-44 45t-64.5 25q-4 1 -12.5 0.5t-16.5 -0.5q-29 -2 -48.5 -1t-33.5 10q-17 12 -22.5 30t-4 37.5z" />
<glyph unicode="&#xe19;" horiz-adv-x="854" d="M23 686q2 34 20 67t46.5 59.5t63.5 42.5t71 17q30 1 53.5 -7t42 -21t32 -30.5t23.5 -35.5q9 0 17.5 -5t12.5 -14q8 -20 -7 -35q5 -14 7.5 -25.5t4.5 -19.5q26 -113 31.5 -227.5t5.5 -241.5q0 -12 -0.5 -24t-1.5 -25q-1 -14 -1.5 -27.5t-0.5 -26.5q18 13 36 30 q22 19 45.5 37.5t52.5 33.5q4 2 8 4.5t9 5.5q12 7 25 13.5t27 11.5q5 101 5.5 202t-0.5 201l-2 175q0 13 9.5 22t22.5 9q14 0 23 -9t9 -22l1 -174q2 -97 1.5 -195.5t-5.5 -197.5q31 -2 63 -12t50 -29q16 -15 23 -35t8 -41.5t-4 -42.5t-14 -39q-20 -38 -51 -57.5t-66 -14.5 q-30 4 -46.5 24t-24 47.5t-8 58.5t1.5 58q-5 -2 -8.5 -4.5t-8.5 -4.5t-9.5 -5t-9.5 -5q-24 -13 -44.5 -29t-41.5 -34q-20 -17 -40.5 -34t-45.5 -32q-14 -8 -28 -2q-15 7 -19 21q-8 28 -8 59.5t2 62.5q2 13 2 24v22q0 124 -5 235.5t-30 219.5q-1 2 -1 3.5t-1 3.5 q-3 -5 -6 -8.5t-6 -7.5q-23 -28 -52.5 -50t-65.5 -37q-40 -17 -78 -16.5t-66 20.5q-52 37 -49 113zM87 683q-1 -14 3 -30.5t18 -26.5q14 -11 36.5 -10.5t46.5 11.5q59 26 94 69q2 3 5 6.5t6 7.5q12 16 26 32q-17 35 -41 51t-56 16q-23 0 -47 -12t-44 -30t-33 -40.5 t-14 -43.5zM704.5 119.5q0.5 -27.5 4.5 -43.5t9 -22.5t11 -7.5q10 -2 18.5 2.5t15 11t10.5 13.5t6 10q12 24 12 49t-12 36q-8 8 -29.5 14.5t-42.5 7.5q-3 -43 -2.5 -70.5z" />
<glyph unicode="&#xe1a;" horiz-adv-x="933" d="M81 685q3 27 13.5 52t24 46.5t30 39t31.5 28.5q25 18 59.5 30t70 14.5t69.5 -5.5t60 -29q44 -36 67.5 -88t34 -111.5t11.5 -121t0 -115.5v-46v-232v-12q-1 -30 2 -41.5t17 -18.5q7 -4 21 -5.5t29.5 -1.5t32 1.5t30.5 4.5q42 9 62.5 22t22.5 31q5 32 6 89.5t0 128 t-4 147.5t-6 147t-6.5 126t-5.5 85q-1 14 7.5 23.5t21.5 10.5q14 2 23.5 -7t10.5 -22q2 -18 5 -70t6.5 -122t6.5 -150.5t4.5 -156.5t0 -139t-6.5 -99q-5 -29 -21.5 -48t-37.5 -31t-41.5 -18t-33.5 -9q-10 -2 -29 -4.5t-41.5 -3t-45.5 2.5t-40 12q-21 10 -32 24.5t-16 30 t-5.5 31.5t-0.5 30v12v232l1 47q1 57 -1 122.5t-16 125.5q-4 -6 -7 -9q-6 -9 -12 -17.5t-14 -16.5q-20 -20 -41 -37.5t-41 -29.5t-52.5 -22t-68 -12t-69.5 7.5t-57 37.5q-37 43 -29 110zM144 677q-6 -36 15 -62q11 -14 32 -19t45 -3.5t48 8.5t41 17q17 11 34 25t34 31 q5 5 10 12t10 15q8 11 17 21.5t20 20.5q-10 20 -22 37.5t-29 31.5q-16 13 -40 17.5t-49.5 2.5t-50 -10.5t-42.5 -21.5q-12 -9 -24 -22t-22 -29.5t-17.5 -35t-9.5 -36.5z" />
<glyph unicode="&#xe1b;" horiz-adv-x="934" d="M82 585.5q-1 22.5 2.5 44.5t11 42.5t17.5 36.5q17 27 38 54.5t47 51t58 39.5t71 19q60 5 112 -18t86 -68q32 -43 38 -88.5t6 -90.5q0 -11 0.5 -21.5t0.5 -21.5q3 -58 2 -116t-3 -115l-3 -84q-1 -29 4 -62t14 -67q12 -40 44 -50q17 -5 36.5 -3.5t39.5 7.5t38.5 16t32.5 22 q7 6 14 20t12.5 42t8.5 72t1 109.5t-9 155t-22 208.5q-1 5 -1 9q-1 2 -1 6v3q-10 81 -24.5 165t-28 156t-23.5 123.5t-10 67.5q0 14 9.5 23t22.5 9q14 0 23 -9t9 -23t9.5 -64.5t23 -121.5t28 -154.5t24.5 -163.5l2 -18q19 -151 26.5 -265.5t4.5 -196t-18 -131.5t-41 -71 q-19 -15 -43.5 -28.5t-52 -22t-56 -10t-54.5 6.5q-23 8 -48 28.5t-38 65.5q-11 38 -16.5 76.5t-3.5 70.5l2 85q2 57 3.5 113t-1.5 113q-1 11 -1 22.5v22.5q-1 34 -3.5 64t-15.5 56q-9 -20 -20.5 -40t-23.5 -38.5t-23 -34t-20 -25.5q-50 -63 -112.5 -88.5t-128.5 -11.5 q-24 5 -41 19t-27 36q-8 19 -9 41.5zM145 593q0 -14 5 -24q6 -15 22 -19q33 -7 62 0t52 20.5t39.5 30t25.5 27.5q13 17 27 37.5t26.5 41t21.5 40t14 34.5q-23 16 -50.5 23.5t-57.5 5.5q-28 -3 -52 -15.5t-44 -31t-37 -41.5t-32 -47q-7 -11 -12 -24.5t-7.5 -28.5t-2.5 -29z " />
<glyph unicode="&#xe1c;" horiz-adv-x="788" d="M111 460.5q-1 84.5 3 168.5q1 4 1.5 8t1.5 9q-2 2 -2 3q-6 11 -3 22t13 18q11 41 34 79t60 62q24 15 53.5 17t58.5 -5.5t55 -23.5t41 -37q21 -29 24.5 -72t-11.5 -84q-13 -32 -35 -53t-51 -26q-48 -9 -94 1t-84 35q-2 -69 -0.5 -136.5t11.5 -131t30.5 -120.5t56.5 -105 l6 12l4 8q6 25 10 50.5t9 51.5q5 32 10 63.5t14 63.5q2 5 3 14t2 19q5 41 12.5 68t24.5 40q25 19 52 11q32 -10 51 -46t34 -78q2 -5 3 -8.5t2 -5.5q5 -14 10.5 -28t11.5 -30q12 -34 26 -68t32 -60q10 27 14 79t3.5 117t-3.5 137t-7 140q-3 63 -5.5 119.5t-2.5 101.5 q0 14 9.5 23t22.5 9q14 0 23 -9t9 -23q0 -43 2.5 -99t5.5 -119q4 -78 7 -155.5t3 -145.5t-5.5 -121.5t-18.5 -83.5q-8 -17 -17 -32t-29 -18q-18 -3 -30.5 8t-20.5 20q-27 31 -45 74t-33 85q-5 14 -10.5 28t-10.5 26q-1 6 -6 17q-14 40 -23.5 57.5t-15.5 23.5 q-4 -11 -7 -30.5t-5 -31.5q-2 -13 -3.5 -23.5t-3.5 -18.5q-8 -29 -13 -58.5t-10 -60.5l-8 -54t-12 -55q-8 -22 -18 -40q-8 -16 -19.5 -29.5t-24.5 -16.5q-8 -2 -18 0.5t-16 9.5q-53 58 -82.5 129t-42 150.5t-13.5 164zM184 663q25 -32 68.5 -48t89.5 -7q17 4 26 18.5 t13 22.5q9 24 7.5 51t-12.5 43q-9 12 -24.5 21.5t-33.5 15t-35.5 5t-29.5 -8.5q-26 -17 -43.5 -48.5t-25.5 -64.5z" />
<glyph unicode="&#xe1d;" horiz-adv-x="800" d="M87 562.5q0 39.5 3 86.5t12 90.5t25.5 78t43.5 47.5q8 4 18.5 6t23 0t28 -9.5t32.5 -22.5q21 -20 38.5 -50t28 -64t11.5 -69.5t-11 -65.5q-28 -72 -110 -72q-20 0 -35.5 7t-29.5 15q-6 4 -15 8q1 -19 1 -37t2 -35q6 -71 15 -141t18 -134l2 -18q2 -16 5 -35.5t8 -37.5 t12 -31.5t18 -17.5q6 -2 8 -1.5t3 0.5q8 5 14.5 21.5t11 39t7.5 47.5t6 46q5 36 10.5 70.5t14.5 63t23 49.5t36 30q48 20 112 -31q38 -30 63 -72t48 -85q22 -45 48 -85q1 17 1.5 32t1.5 23q1 13 1 18.5v8.5q3 25 4.5 73.5t1 113t-2 140.5t-4 155t-6 156.5t-8 145t-9.5 121.5 t-10 85q-2 14 5.5 24.5t20.5 12.5q14 2 24.5 -5.5t12.5 -20.5q5 -32 10 -86.5t9.5 -123.5t8 -148t6 -159.5t4 -158t2 -143t-1 -115t-4.5 -74.5v-8.5t-1 -13.5q-2 -46 -4 -74.5t-5.5 -44.5t-9 -23t-14.5 -11q-8 -4 -18 -2t-17 8q-35 29 -58.5 68.5t-44.5 81.5q-20 41 -42 77 t-51 59q-20 16 -32 20t-17 2q-9 -4 -16.5 -21t-12.5 -41t-9 -50.5t-7 -49.5q-4 -34 -8.5 -65.5t-12 -58t-19 -46t-29.5 -30.5q-10 -6 -26.5 -9.5t-39.5 4.5q-24 9 -39 28t-24 43.5t-13.5 51.5t-7.5 51l-2 17q-9 65 -18.5 136t-14.5 143q0 1 -1.5 26.5t-1.5 65zM152 613 q13 -2 24 -7t21 -11q9 -5 17.5 -9.5t15.5 -4.5q39 0 51 32q7 18 6 42.5t-8.5 50t-20 48.5t-28.5 38q-11 9 -19 13.5t-13 2.5q-9 -5 -17 -22.5t-13.5 -44t-9.5 -59.5t-6 -69z" />
<glyph unicode="&#xe1e;" horiz-adv-x="1018" d="M93.5 577.5q1.5 28.5 10.5 56.5q8 25 29 56t48.5 59.5t58.5 49.5t59 25q47 6 85.5 -24.5t65.5 -94.5q20 -49 29 -102.5t11 -108.5q12 19 27 35t35 29q27 17 49 17t37 -6q32 -12 57.5 -46t47.5 -85t42 -116.5t41 -140.5q3 -11 6 -23t7 -24q2 48 3 111.5t1.5 134.5 t-0.5 145t-2 143.5t-3 130t-4 104.5q-1 13 8 22.5t22 10.5q14 1 23.5 -8t10.5 -22q0 -2 1 -38t2.5 -95t3 -134.5t2 -156t0 -160t-3 -145.5t-7.5 -113.5t-13 -63.5t-26 -18q-16 -1 -27 8.5t-21 31t-20.5 57t-24.5 85.5q-12 45 -28 101.5t-35 108t-41 89.5t-45 47q-5 2 -11 2 t-17 -7q-37 -24 -57 -65.5t-28.5 -92.5t-9.5 -106t0 -106q0 -20 0.5 -38t-0.5 -35v-1q0 -13 -9 -22t-23 -9q-13 1 -22 10t-9 22q0 27 -0.5 54.5t-1.5 54.5q0 21 -0.5 43t-1.5 44q0 21 0.5 42t1.5 44q2 72 0 143.5t-18 135.5q-24 -45 -56.5 -87.5t-67.5 -73.5 q-33 -29 -68.5 -33.5t-66.5 15.5q-20 13 -33 34t-19 46t-4.5 53.5zM159 541.5q8 -32.5 26 -44.5q16 -10 31.5 -3.5t26.5 16.5q43 37 80 91.5t55 107.5q-12 21 -30 38t-41 14q-15 -2 -36.5 -17.5t-43 -37.5t-39 -46.5t-24.5 -45.5q-13 -40 -5 -72.5z" />
<glyph unicode="&#xe1f;" horiz-adv-x="1067" d="M104.5 622.5q-7.5 47.5 8.5 99.5q13 42 38 74.5t58.5 53.5t74 29.5t84.5 1.5q72 -12 124 -73t79 -164q8 -30 14 -61t11 -63l9 9t9 8q41 29 91 8q31 -13 61.5 -44.5t59 -72.5t54 -88.5t45.5 -92.5q0 32 -0.5 63t-1.5 63q-1 34 -1.5 68.5t-0.5 69.5q0 19 -3 63.5t-7.5 105 t-10.5 132t-12 144.5q-6 78 -12.5 128.5t-11.5 84.5t-8 56.5t-3 45.5q0 14 9 23t22 9q14 0 23 -9t9 -23q0 -21 3 -43t8 -55.5t11.5 -83.5t13.5 -128q6 -77 12 -149t10.5 -132.5t7.5 -104.5t3 -64q0 -34 0.5 -68t1.5 -69q2 -74 2 -149t-5 -149q-2 -12 -10.5 -20.5t-20.5 -9.5 q-12 0 -21 7.5t-11 19.5q-3 19 -15.5 54t-31 77.5t-42 88t-49.5 85t-52.5 69t-50.5 39.5q-11 5 -18 4t-12 -5q-12 -9 -19.5 -24t-11.5 -34t-5.5 -40.5t-1.5 -41.5q3 -54 4 -107.5t1 -107.5l1 -110q0 -11 -7.5 -20t-18.5 -11q-12 -2 -22 4t-14 17q-15 47 -14.5 102.5 t3.5 108.5q2 21 3 41t1 37v15v33q-4 72 -12.5 142t-26.5 139q-4 13 -8 25.5t-9 26.5q-18 -27 -39 -55.5t-44.5 -53t-51 -43t-58.5 -25.5q-50 -11 -90.5 -0.5t-68.5 40.5q-29 32 -36.5 79.5zM166 637q4 -31 22 -51q32 -35 99 -21q22 5 43 20.5t40.5 36.5t37 46t33.5 48 q5 8 10 14.5t10 14.5q-19 28 -44 48t-59 25q-32 5 -61.5 -0.5t-54 -20.5t-42.5 -38.5t-27 -54.5q-11 -36 -7 -67z" />
<glyph unicode="&#xe20;" horiz-adv-x="879" d="M94 163q2 22 8.5 47.5t17.5 49.5t26 45.5t35 36.5q44 34 101 26q1 -1 1.5 -1t1.5 -1v20.5t1 20.5q2 39 3 77.5t-3.5 75.5t-16 70t-35.5 61q-2 3 -10.5 9t-16.5 12q-16 10 -33.5 23.5t-30 29.5t-16.5 33.5t8 37.5q19 30 51 46.5t71 23.5t82 7t83 -3q94 -7 157.5 -47.5 t104 -102.5t61 -139.5t29.5 -159.5t9 -163.5t-1 -149.5q-1 -26 -1.5 -49.5t-0.5 -44.5q0 -13 -9 -22.5t-23 -9.5q-13 0 -22 9.5t-9 22.5v45.5t1 49.5q2 89 0.5 173.5t-10.5 160t-28.5 140t-53.5 112t-85 76.5t-124 35q-17 1 -48.5 3t-65.5 -1t-64.5 -12.5t-45.5 -29.5 q5 -9 22 -21.5t28 -20.5q13 -10 23 -17t17 -15q30 -35 44.5 -75.5t20.5 -82.5t5 -85.5t-3 -84.5q-3 -44 -3 -83q0 -16 1 -32.5t3 -33.5q4 -45 4.5 -90t-18.5 -89q-10 -23 -31.5 -40t-50.5 -25q-32 -8 -61.5 -5t-49.5 18q-59 41 -50 139zM157 157q-4 -41 5 -58t19 -24 q7 -5 22.5 -6.5t34.5 3.5q15 5 26 12.5t15 15.5q14 33 13.5 70.5t-4.5 78.5q-2 14 -2.5 28.5t-1.5 28.5q-5 -3 -13 -1q-28 4 -51 -13q-14 -11 -24.5 -26.5t-18.5 -34t-13 -38t-7 -36.5z" />
<glyph unicode="&#xe21;" horiz-adv-x="843" d="M85 683.5q-2 28.5 4 57t18.5 55t31.5 45.5q26 26 58.5 33t66.5 -7q40 -17 63.5 -49.5t36 -70t17.5 -76t8 -66.5q6 -76 9.5 -157.5t4.5 -170.5q26 -4 55 -14q84 -27 138 -78q15 -14 27.5 -31.5t25.5 -35.5q8 -13 17 -25t18 -22q2 18 1.5 39t-2.5 36q0 10 -0.5 18.5 t-0.5 16.5q0 15 -3.5 48.5t-9.5 76.5t-13 93t-14 98q-22 152 -32 230t-7 98q2 14 12.5 21.5t23.5 5.5q14 -2 21.5 -12.5t5.5 -23.5q-1 -9 2.5 -41.5t9.5 -77t13 -95.5t14 -96q7 -54 14.5 -105t13 -94.5t9 -76t3.5 -49.5q0 -6 0.5 -14t1.5 -17q1 -20 2 -42t-1.5 -43 t-10 -39.5t-22.5 -30.5q-8 -7 -18 -8t-18 4q-26 15 -45.5 40t-37.5 51q-11 17 -22 31.5t-22 25.5q-43 41 -114 64q-19 6 -35 9q0 -25 -2 -53.5t-11 -56t-26.5 -51t-47.5 -37.5q-17 -8 -31.5 -9t-26.5 1.5t-20.5 7t-14.5 9.5q-14 12 -22.5 28t-12.5 34.5t-3.5 37t4.5 34.5 q18 70 76 102q16 8 35 12.5t39 6.5q-1 88 -4 167.5t-10 154.5q-2 26 -6.5 61t-15.5 68q-8 -21 -19.5 -48t-27.5 -51.5t-35.5 -42.5t-42.5 -20q-9 0 -19 2t-20.5 9t-21.5 20t-20 34q-10 23 -12 51.5zM148 690.5q1 -18.5 7 -32.5q7 -16 11.5 -21t6.5 -6q8 2 19.5 17.5t23 37.5 t21.5 46.5t15 45.5q2 5 4.5 8.5t5.5 7.5q-5 4 -10.5 7.5t-12.5 6.5q-30 13 -55 -12q-12 -12 -20.5 -30t-12.5 -37.5t-3 -38zM249 101q4 -21 15 -29q2 -2 7.5 -4t18.5 4q16 7 25.5 21t15 33t7 42t1.5 47q-12 -2 -23.5 -4.5t-20.5 -7.5q-33 -19 -45 -62q-5 -19 -1 -40z" />
<glyph unicode="&#xe22;" horiz-adv-x="794" d="M100 718q6 85 73 143q17 14 37.5 23t41.5 12t42 0t39 -13q29 -16 42 -45.5t8 -67.5q-9 -57 -48 -84q-18 -12 -39.5 -16t-44 -3t-44.5 5.5t-41 9.5q7 -40 38 -74q22 -23 54 -30.5t77 -8.5q4 0 8 0.5t9 0.5q23 0 47.5 -2.5t39.5 -22.5q20 -26 8 -67q-5 -22 -15.5 -41.5 t-21.5 -39.5q-8 -14 -15.5 -27t-12.5 -27q-6 -17 -14 -44.5t-10 -58.5t4.5 -62t28.5 -54q15 -15 35.5 -28t43 -20.5t45 -9.5t40.5 6q33 13 49.5 52t22.5 91.5t2.5 114.5t-11.5 122.5t-17.5 114.5t-16.5 90q-8 38 -11.5 58t-3.5 31v28v13q0 14 9 23t23 9q13 0 22.5 -9 t9.5 -23v-13v-27q0 -7 4 -29t9 -49q10 -51 21 -114t18.5 -130t8.5 -132.5t-9.5 -121.5t-35.5 -98t-69 -60q-29 -12 -61 -11t-64 11.5t-60.5 28t-49.5 38.5q-32 33 -42 73.5t-8.5 80.5t10.5 75.5t17 56.5q7 17 15.5 32.5t17.5 30.5q10 17 18.5 33t12.5 32q1 4 1.5 6.5 t0.5 4.5q-5 1 -16 1h-19h-19q-24 0 -48 2.5t-46.5 8.5t-43.5 17.5t-39 30.5q-30 32 -44.5 71.5t-12.5 81.5zM170 747q14 -4 32 -8.5t36 -7t34.5 -1t27.5 8.5q3 2 10 10t10 30q2 13 0 22t-5 14.5t-7 8t-6 3.5q-17 10 -43 5.5t-45 -20.5q-32 -27 -44 -65z" />
<glyph unicode="&#xe23;" horiz-adv-x="703" d="M98 667q-2 25 1 54t11.5 57t23 52t36.5 39q48 33 110 23t128 -63q4 -3 12.5 -9.5t18.5 -12.5t20 -10t18 -3q13 3 27 26q12 19 19 41.5t9.5 45t0.5 43.5t-9 38q-6 12 -1.5 24.5t16.5 17.5t24.5 0.5t17.5 -15.5q12 -27 15 -57.5t-1 -61.5t-14 -59.5t-23 -50.5 q-28 -46 -71 -54q-32 -6 -62.5 10.5t-56.5 36.5q-11 9 -30 21.5t-41.5 21t-46 9t-44.5 -13.5q-17 -12 -27 -37t-15 -54q27 15 57.5 24t65.5 4q60 -9 103 -40t72 -75t46.5 -98t26.5 -110t11 -109.5t1 -97.5q2 -4 2 -7q1 -5 -3 -15q-1 -32 -2.5 -55t-3.5 -32q-3 -27 -11 -52 t-30 -41q-33 -22 -89 -9q-41 10 -63 33.5t-32.5 51t-12 54t-1.5 42.5q0 13 1.5 37.5t9 50t24 48.5t46.5 33q43 15 85 -11q5 -3 8 -6.5t7 -7.5q-4 62 -17 122t-37 108.5t-61 81.5t-90 41q-30 5 -58.5 -8.5t-57.5 -31.5l-16 -9q-15 -10 -31 -1q-16 8 -16 26zM365 194 q-1 -57 13 -84.5t47 -35.5q29 -6 37 0q4 3 6.5 9t4.5 13.5t3 14.5t1 11q2 22 4 45.5t3 49.5q-5 21 -18.5 45t-32.5 36q-11 7 -18 7t-12 -2q-38 -12 -38 -109z" />
<glyph unicode="&#xe24;" horiz-adv-x="752" d="M78 678q-2 34 16 63.5t44 52.5t53.5 39.5t44.5 25.5q24 13 53 21t60 9t61 -6t55 -25q22 -15 40 -36t32.5 -44.5t26 -48.5t21.5 -48l2 -6q19 -41 27.5 -90t15.5 -96l7 -43q4 -25 6.5 -69.5t3.5 -98.5t1.5 -112.5t0.5 -113t-0.5 -99.5t-0.5 -71t-0.5 -51.5t-0.5 -50.5 q0 -14 -9 -23t-23 -9q-13 0 -22 9t-9 23v52t1 52q0 25 0.5 69t0.5 97.5t-0.5 111.5t-1.5 111t-3.5 96t-6.5 67l-6 44q-7 44 -15 89.5t-23 80.5l-3 5q-17 41 -40.5 84.5t-56.5 66.5q-17 11 -38 15.5t-43.5 4t-43.5 -6.5t-38 -15q-45 -24 -72 -45.5t-41 -41.5q16 2 31.5 3.5 t31.5 -3.5q24 -8 37.5 -25.5t21.5 -32.5q4 -6 5 -8q13 -21 19 -45.5t8 -51t0.5 -53.5t-2.5 -53q-1 -15 -1.5 -29.5t-0.5 -27.5q0 -5 -0.5 -13t-1.5 -19q-1 -18 -1 -34t-1 -31q4 0 7.5 0.5t7.5 0.5q19 0 40 -3.5t40.5 -11t35.5 -18.5t25 -25t12 -30.5t2 -34.5t-4.5 -35.5 t-9.5 -32.5q-3 -9 -9.5 -22.5t-16 -27.5t-23 -26t-30.5 -17q-29 -9 -48.5 -3t-31.5 15q-32 24 -45 77t-15 121q-14 17 -3 36l2 2q0 51 3 102q1 11 1 18.5v11.5q0 28 3 61q1 22 2 45.5t0 45.5t-5 41.5t-13 33.5l-6 9q-5 9 -11 18t-11 11q-7 2 -19 0.5t-24 -3.5l-24 -4t-24 -1 q-13 1 -21 9.5t-9 20.5zM301 230q3 -133 35 -157q2 -2 6.5 -3.5t14.5 1.5q8 3 19.5 17.5t20.5 37.5q9 26 9.5 47.5t-4.5 29.5q-2 4 -10.5 9t-20.5 9.5t-26 7.5t-29 3q-5 0 -8.5 -0.5t-6.5 -1.5z" />
<glyph unicode="&#xe25;" horiz-adv-x="739" d="M116 601q0 23 1.5 47t11.5 49q8 19 21.5 42.5t32 47t42 45t51 35.5t58 19t64.5 -4q32 -9 56.5 -28.5t43 -44t32 -51.5l24.5 -49l8 -18q30 -62 43 -125t22 -126l6 -43q11 -69 23.5 -142t31.5 -145q3 -13 -3.5 -24t-18.5 -14q-13 -4 -24 2t-15 18q-26 82 -52.5 151.5 t-63.5 142.5q-16 31 -36.5 46t-53.5 20q-21 3 -34.5 2.5t-24.5 -5t-20.5 -13.5t-21.5 -22q-10 -11 -18 -23t-16 -25q44 -19 81 -50t62 -73q25 -44 30.5 -87.5t-9.5 -81.5q-13 -35 -38.5 -55.5t-59.5 -23.5q-39 -4 -77 16.5t-61 57.5q-35 57 -36.5 125t20.5 132 q-9 5 -14.5 13.5t-3.5 19.5q2 13 12.5 21t23.5 6q2 0 3.5 -1t3.5 -1q11 20 23.5 38.5t26.5 34.5q15 16 29.5 28.5t32.5 21t41 10.5t55 -3q48 -7 80 -30t55 -66l-2 13q-9 62 -20.5 119.5t-38.5 113.5l-9 18q-9 19 -20 41t-24.5 42t-31 35t-38.5 21q-33 9 -64 -4t-57 -37 t-45 -53t-28 -53q-7 -17 -8 -34.5t-1 -38.5q0 -14 -9 -23t-22 -9q-14 0 -23 9t-9 23zM241.5 201q0.5 -55 26.5 -99q14 -21 35.5 -33.5t42.5 -10.5q31 3 45 38q20 52 -17 114q-20 33 -50 58.5t-65 40.5q-18 -53 -17.5 -108z" />
<glyph unicode="&#xe26;" horiz-adv-x="861" d="M86 163q2 22 8.5 47.5t17.5 49.5t26.5 45.5t35.5 36.5q44 35 100 26q1 0 1.5 -0.5t1.5 -0.5q1 10 1 20t1 20q2 39 2.5 77.5t-4 75.5t-16 70t-35.5 61q-2 3 -10.5 9.5t-16.5 11.5q-15 11 -33 24.5t-30.5 29t-16 33.5t8.5 37q19 31 51 47.5t71 23.5t81.5 6.5t82.5 -3.5 q70 -5 123 -40.5t92 -92t65 -129.5t42.5 -154t25 -165.5t11.5 -164t2.5 -149.5t-1.5 -121q-1 -25 -1 -48.5v-44.5q0 -14 -9.5 -23t-22.5 -9q-14 0 -23 9t-9 23q0 22 0.5 45.5t0.5 49.5q2 88 1 191.5t-10.5 207.5t-28.5 201t-53.5 173t-85.5 124t-124 54q-17 1 -48.5 3 t-65.5 -1t-64.5 -12.5t-45.5 -29.5q3 -5 9 -10.5t13.5 -11.5t15 -11.5t12.5 -9.5q28 -19 40 -32q30 -35 45 -75t20.5 -82.5t4.5 -86t-3 -84.5q-3 -44 -3 -82q0 -16 1 -32.5t3 -34.5q5 -45 5 -90t-19 -89q-9 -23 -30.5 -39.5t-51.5 -25.5q-31 -8 -61 -4.5t-50 17.5 q-59 42 -50 139zM149 158q-4 -41 5 -58t19 -24q7 -5 22.5 -6.5t34.5 3.5q15 4 26 11.5t15 16.5q14 32 13.5 69.5t-4.5 78.5q-2 14 -2.5 28.5t-1.5 28.5q-4 -1 -13 -1q-28 5 -51 -13q-13 -10 -24 -26t-19 -34t-13 -37.5t-7 -36.5z" />
<glyph unicode="&#xe27;" horiz-adv-x="673" d="M55.5 762q-1.5 13 6.5 24q26 33 62.5 59t79 39.5t87.5 12t87 -24.5q49 -26 84 -66.5t58 -87.5t36 -98t20 -99.5t9 -91.5t3 -74v-15.5t1 -13.5q0 -7 0.5 -15.5t1.5 -18.5q3 -41 4.5 -79.5t-1.5 -71.5t-12.5 -59t-28.5 -41q-40 -32 -71 -33.5t-51 7.5q-21 10 -36.5 27.5 t-26 39.5t-16 46t-6.5 46q-2 47 13.5 84t46.5 60q19 14 36 18.5t32 3t28 -6.5t24 -11l-1 1v14.5t-1 16.5q-1 28 -2.5 66.5t-7.5 82.5t-17 90t-30.5 88t-48.5 77.5t-70 57.5q-31 17 -64.5 17.5t-65 -10t-59 -31t-47.5 -45.5q-8 -11 -21 -12.5t-24 6.5q-10 8 -11.5 21z M409 176q1 -17 5 -34t10.5 -31t15 -24t17.5 -14q23 -11 55 17q9 7 13.5 25t6 41t0.5 48t-2 47q-3 0 -4 1q-8 3 -15 6.5l-13 6.5q-20 10 -29.5 11.5t-24.5 -9.5q-11 -9 -18 -20t-11 -23t-5 -24.5t-1 -23.5z" />
<glyph unicode="&#xe28;" horiz-adv-x="691" d="M82.5 642.5q-1.5 28.5 1 57t11 56t25.5 49.5q65 84 141 74q42 -6 78 -38t66 -77q3 5 6 8.5t6 8.5q33 50 71 109.5t70 123.5q5 12 17.5 16t24.5 -1q12 -6 16 -18.5t-1 -24.5q-32 -66 -71.5 -127.5t-74.5 -112.5q-15 -23 -27 -42q18 -34 32.5 -67t25.5 -61q17 -44 28 -81.5 t17 -72.5l13 -70q15 -82 27 -161t12 -167q0 -14 -9.5 -23t-22.5 -9q-14 0 -23 9t-9 23q0 83 -11.5 159.5t-26.5 156.5l-12 71q-2 13 -5.5 27t-7.5 28q-13 -30 -35 -51.5t-52 -32.5q-49 -18 -102.5 -17t-98.5 26q2 -25 4.5 -50.5t6.5 -52.5q2 -4 6 -14q8 -17 14 -36t8 -42 q2 -13 2.5 -24.5t1.5 -22.5q9 -32 16.5 -64t5.5 -66q0 -11 -8 -19.5t-20 -10.5q-11 -2 -20.5 4.5t-13.5 17.5q-10 34 -15 64t-8 62q0 2 -0.5 2.5t-0.5 2.5q-5 15 -9 30l-8 30q-4 18 -6.5 35t-5.5 34q-4 10 -7 20t-5 22q-7 43 -13.5 90t-11.5 96q0 1 -0.5 1.5t-0.5 1.5 q-2 17 -4 35t-3 35l-1 18q-2 24 -3.5 52.5zM145.5 640q1.5 -24 3.5 -46l1 -17v-2l16 26t18 28l2 4q10 15 25 29.5t33 27t39 22t43 12.5q15 2 29 0q-26 41 -53 64.5t-50 27.5q-39 6 -82 -49q-12 -15 -17.5 -36t-7 -44t0 -47zM181 473q16 -18 37.5 -28.5t45.5 -14t49 -1 t48 11.5q15 6 25.5 15t17.5 19.5t10 21.5t5 19q5 29 -1.5 59t-22.5 53q-14 -14 -35 -6q-11 5 -16 16t-1 23q-2 0 -4 0.5t-4 -0.5q-28 -4 -55 -23.5t-41 -39.5l-2 -3q-25 -38 -38.5 -63.5t-17.5 -58.5z" />
<glyph unicode="&#xe29;" horiz-adv-x="982" d="M55.5 642.5q-3.5 51.5 17.5 110.5q17 45 56 79.5t91 49.5q45 14 87 7.5t74 -31.5q44 -34 70 -85.5t38.5 -109.5t16 -118.5t2.5 -112.5q-1 -16 -1.5 -32t-1.5 -33q-2 -35 -2.5 -69.5t2 -67.5t10.5 -64t25 -58q35 -58 124 -40q23 5 37 19t21 36.5t8.5 53t0.5 67.5 q-1 27 -2 60t-2 70q-16 -3 -38 -1q-27 2 -47 9t-36 18.5t-29 27.5t-25 36q-13 21 -20 45t-7 47t6 44t19 37q21 27 54 34.5t72 -5.5q14 -4 24.5 -9.5t19.5 -12.5q-1 37 -1.5 69.5t-1 57t-0.5 40.5v19q0 13 9.5 22.5t22.5 9.5q14 0 23 -9.5t9 -22.5q0 -5 0.5 -32.5t1 -70.5 t1.5 -96.5t2 -110.5q2 -9 3 -18.5t1 -18.5q40 31 74 63.5t54 77.5q5 13 17.5 17.5t24.5 -0.5t16.5 -17t-0.5 -25q-26 -59 -68.5 -99t-87.5 -74l-4 -3l-11 -8q-7 -7 -14 -11v-24q0 -1 -0.5 -1.5t-0.5 -1.5q1 -37 2 -70t2 -60q1 -26 1 -63.5t-10.5 -73.5t-35.5 -65t-73 -39 q-64 -13 -113 4.5t-77 65.5q-20 33 -30 69.5t-14 74.5t-3 76t3 74q1 17 1.5 32.5t0.5 30.5q1 55 -2.5 118.5t-20.5 121.5q-14 -31 -32.5 -60t-41.5 -52t-51 -38.5t-60 -19.5q-31 -3 -55 1t-42 11.5t-30.5 18t-21.5 21.5q-28 36 -31.5 87.5zM118.5 653q1.5 -36 18.5 -58 t43 -26.5t49 -1.5q27 3 51.5 20.5t44.5 44.5t35.5 59.5t24.5 64.5q0 1 1 1q-9 14 -19.5 27t-24.5 23q-20 16 -47.5 19.5t-57.5 -5.5q-36 -11 -64.5 -35t-39.5 -55q-16 -42 -14.5 -78zM588 552q2 -29 18 -55q10 -16 18.5 -27t18.5 -18t22 -11t29 -5q18 -1 31 3q-1 19 -1 37.5 t-1 37.5q-5 35 -20 58.5t-46 33.5q-40 13 -57 -8q-14 -17 -12 -46z" />
<glyph unicode="&#xe2a;" horiz-adv-x="752" d="M78 540q6 33 15 72t22 78.5t32 76t46 65t63.5 45.5t85.5 18q75 0 135 -63q24 57 42 117t28 122q2 13 12 20.5t24 5.5q13 -2 20.5 -12.5t5.5 -23.5q-11 -75 -34 -147t-55 -138q21 -35 39.5 -78.5t33.5 -97.5q28 -95 38 -193.5t16 -201.5v-4l9 -165q1 -14 -8 -23.5 t-22 -10.5q-14 -1 -23.5 8t-10.5 22v1v2l-2 41q-2 36 -5 74t-10 75t-18 71.5t-30 63.5q-17 27 -42.5 48.5t-54.5 32.5t-60 10.5t-59 -17.5q-71 -42 -81 -129q21 -2 43.5 -7t43.5 -16t39.5 -28.5t32.5 -44.5q7 -13 12.5 -35t7 -47.5t-3.5 -51t-18 -44.5q-30 -41 -85 -32 q-23 4 -41 19t-32 34.5t-24 39t-15 32.5q-11 26 -16 54.5t-8 56.5v10q-12 1 -21 9.5t-9 21.5t9 22t22 9q12 122 112 181q38 22 78 25.5t78 -8t71.5 -35.5t58.5 -56q-5 44 -13 85.5t-20 83.5q-11 37 -22.5 68t-24.5 57q-11 -17 -21 -34t-21 -33q-8 -11 -20.5 -12.5t-23.5 6.5 t-13 20.5t6 23.5q15 20 28.5 43t27.5 48q-47 62 -105 61q-50 0 -83.5 -26t-56.5 -68.5t-37.5 -97t-25.5 -111.5q-2 -14 -13 -21t-24 -5q-13 3 -20 13.5t-5 24.5zM229 241q2 -24 6.5 -48.5t13.5 -44.5q14 -34 32 -59t32 -27q11 -2 15.5 1t6.5 6q6 9 8.5 23.5t1.5 31t-4 31.5 t-8 24q-16 30 -41 43.5t-63 18.5z" />
<glyph unicode="&#xe2b;" horiz-adv-x="903" d="M82 569q-3 29 5.5 65.5t25.5 71.5t41.5 64.5t54.5 44.5q32 17 65 13t62 -28q27 -23 42 -59t23 -77t10 -82t3 -73v-7v-18q4 -2 5 -4q9 -10 8 -23t-11 -22q-2 -1 -4 -3q-2 -34 -4 -81.5t0 -95t9 -87.5t23 -58q5 -5 8.5 -6.5t6.5 -1.5q6 0 16 8t23 21t27.5 30.5t28.5 37.5 q18 26 33.5 54t32.5 57q-4 11 -7 20.5t-7 20.5q-15 48 -26.5 104t-15 112.5t1.5 111t23 99.5q5 13 14.5 34t24.5 40.5t35 32t46 8.5q80 -10 82 -176q1 -118 -22 -214t-71 -182l-9 -16q14 -39 31 -75t38 -67.5t47 -57.5t58 -43q12 -6 16 -18.5t-3 -24.5q-6 -11 -18.5 -15 t-24.5 2q-66 35 -110 95.5t-74 131.5q-10 -17 -20.5 -35t-21.5 -35q-10 -14 -26.5 -35.5t-37 -42t-43 -34.5t-43.5 -13q-36 2 -60 29q-20 21 -30.5 56t-15 78.5t-4 93.5t2.5 102q-28 -6 -57.5 0.5t-64.5 21.5q-23 9 -46.5 20.5t-44 29t-34.5 41.5t-17 59zM145 574 q4 -39 31.5 -58.5t75.5 -39.5q36 -15 57 -18t41 8q0 11 0.5 20t0.5 14v7q-1 25 -2.5 60.5t-7.5 71t-16.5 66.5t-29.5 46q-28 24 -57 8q-20 -11 -37.5 -33t-30.5 -49t-20 -54.5t-5 -48.5zM623.5 576.5q3.5 -48.5 12.5 -96.5t21 -90q34 72 50.5 151t16.5 175q0 34 -3.5 56 t-8 34.5t-9 18t-7.5 5.5q-2 0 -6 -1t-11 -8.5t-15.5 -23t-19.5 -42.5q-15 -38 -19.5 -84t-1 -94.5z" />
<glyph unicode="&#xe2c;" horiz-adv-x="880" d="M97.5 709.5q6.5 46.5 28 86t59.5 60.5q30 17 63.5 18t65.5 -13q44 -20 78 -63.5t47 -97.5q9 -7 11.5 -17.5t-2.5 -21.5q0 -1 -0.5 -1t-0.5 -1q12 -60 20 -118t11 -118q10 23 22 39.5t29 24.5q13 7 33.5 8t46.5 -16q27 -17 48 -44t37 -59t29 -67t24 -69v55.5t-1 54.5l-1 4 q-2 65 -5 131t-9 132t-16 131t-27 128l-9 35q-4 14 -8 29.5t-9 32.5q-8 -3 -16.5 -6t-17.5 -5q-25 -6 -50 -1t-48 19q-29 19 -50.5 50t-29.5 69q-7 31 1 59.5t28 48.5q38 36 91 22q24 -6 43.5 -21.5t35.5 -37.5t28.5 -49.5t23.5 -56.5q31 21 58.5 49.5t48.5 62t32.5 70.5 t10.5 74q-1 13 8 22.5t23 9.5q13 1 22.5 -8t10.5 -22q1 -49 -14 -96t-42 -89t-63 -77t-76 -59q6 -20 10.5 -38.5t9.5 -35.5l9 -34q18 -66 28.5 -133t17 -134.5t9.5 -135t5 -134.5v-4q2 -59 2.5 -118.5t0.5 -118.5l1 -83q0 -12 -8 -21t-19 -11q-12 -2 -22 4.5t-13 17.5 q-4 11 -6.5 20.5t-4.5 19.5q-3 14 -6.5 26.5t-8.5 25.5q-10 22 -18.5 47t-17.5 52q-10 31 -21.5 63t-25 61t-30 52t-37.5 37q-4 2 -9 4t-8 0q-5 -2 -11.5 -11.5t-13.5 -31t-14 -59.5t-12 -97l-1 -16q-2 -18 -5.5 -34.5t-6.5 -33.5q-5 -23 -9 -44.5t-3 -42.5v-2q0 -13 -9 -22 t-22 -9t-22.5 8.5t-9.5 22.5v1v175v79q0 65 -5 126.5t-14 124.5q-17 -29 -37.5 -55t-50.5 -41q-56 -29 -106 -13t-80 73q-21 39 -28 87t-0.5 94.5zM159 694q-4 -35 2 -71.5t21 -64.5q13 -25 28.5 -34.5t29.5 -10.5t25.5 3.5t17.5 7.5q29 15 49 49.5t38 72.5q3 6 5.5 11.5 t5.5 10.5l-3 15q-4 19 -13 38t-21 35t-26.5 28t-29.5 19q-37 16 -72 -2q-24 -14 -38.5 -43t-18.5 -64zM512 1113q5 -25 19 -46.5t33 -32.5q25 -16 50 -10q8 2 15 4.5t14 5.5q-8 24 -17.5 46.5t-20.5 40.5t-24 30.5t-27 16.5q-19 5 -31 -7q-17 -17 -11 -48z" />
<glyph unicode="&#xe2d;" horiz-adv-x="727" d="M78 530q0 40 8.5 81.5t24 80t36.5 72.5t47 58q27 26 62 43.5t72 23t74 -3.5t69 -37q27 -24 46 -53t32.5 -60.5t23 -64.5t17.5 -64l6 -24q6 -23 10.5 -45.5t9.5 -45.5q9 -19 14.5 -40t3.5 -44q0 -4 -1 -7.5t-1 -7.5q1 -11 2.5 -22.5t2.5 -22.5q2 -26 -1.5 -69t-15 -89 t-33.5 -89t-56 -68q-11 -8 -24.5 -14.5t-31 -9.5t-38 -1t-44.5 11q-72 28 -114.5 103t-47.5 186q-3 45 2 92t18 86v2q0 2 1 4l2 4q11 30 25.5 52.5t34.5 32.5q25 13 53.5 16.5t57 0t56.5 -11.5t54 -18l-6 24l-16 58t-19.5 56t-26.5 51t-37 43t-47.5 24.5t-51 1t-50 -17.5 t-43.5 -31q-24 -23 -42 -53.5t-30 -63.5t-18.5 -66.5t-6.5 -62.5q0 -13 -9 -22.5t-23 -9.5q-13 0 -22 9.5t-9 22.5zM293.5 350.5q-0.5 -19.5 0.5 -40.5t6 -55t18 -68.5t36.5 -64.5t61.5 -45q44 -18 77 6q20 15 35 41.5t24.5 58t15 64t6.5 60.5l-12 -6t-13 -5 q-21 -6 -53.5 -0.5t-68.5 18.5t-71 32t-60 41v1q-2 -18 -2.5 -37.5zM314 475q-2 -17 25 -40q21 -19 49.5 -35t57 -26.5t52 -15t35.5 -1.5q16 5 23.5 14.5t11.5 20.5q-3 20 -5.5 39.5t-6.5 40.5q-7 11 -15 19.5t-18 12.5q-22 8 -46 16t-47.5 12t-46 2.5t-40.5 -10.5 q-8 -4 -15 -16.5t-14 -32.5z" />
<glyph unicode="&#xe2e;" horiz-adv-x="636" d="M80.5 766q-2.5 46 33.5 82q42 44 100 39q29 -2 56.5 -14.5t51.5 -29.5t42.5 -35.5t29.5 -33.5q11 -14 20 -29t18 -31q7 4 13.5 8.5t12.5 10.5q21 19 41.5 44.5t40 54.5t35.5 60.5t28 61.5q1 3 3 7q2 7 3 9.5t1 5.5q-2 13 6 23t22 12q13 1 23 -7t12 -21q2 -16 -1.5 -27 t-7.5 -20q-2 -4 -2 -5q-13 -33 -31 -67.5t-39 -66.5t-44.5 -60.5t-46.5 -50.5q-18 -17 -43 -30q13 -33 22.5 -69t15.5 -77q2 -11 3 -21.5t2 -21.5q14 -24 23 -54t-1 -61q-8 -24 -22 -35q-1 -38 -6 -76l-2 -28q-17 -198 -140 -212q-29 -3 -52 3t-41 17.5t-32 26t-25 29.5 q-23 31 -41 73t-28 89.5t-10.5 96t11.5 92.5q-2 15 9 26q18 45 50 76.5t77 46.5q38 12 78 3.5t74 -29.5q-9 43 -24 81q-24 -6 -49 -9.5t-48 -5.5q-21 -2 -44 -2t-46.5 5t-46 17.5t-42.5 35.5q-40 47 -42.5 93zM144.5 776q-1.5 -11 3.5 -26t23 -35q24 -27 55 -33.5t69 -1.5 q22 2 41 4.5t36 6.5q-7 12 -13.5 23t-14.5 21q-12 16 -28 31.5t-34 28t-36.5 20.5t-35.5 9q-28 1 -51 -20q-3 -3 -8 -10t-6.5 -18zM188 363q-3 -33 1 -68t13 -67.5t22.5 -61.5t29.5 -51q23 -31 44 -42t49 -9q70 7 83 155l2 27q2 12 2.5 24t1.5 24q-8 -1 -16 -0.5t-16 0.5 q-5 0 -9 0.5t-8 0.5q-21 0 -46.5 4.5t-52.5 13.5t-53 21.5t-47 28.5zM204 434q13 -16 35 -29.5t47.5 -24t52 -16.5t48.5 -6h10t10 -1h19t14 1q1 23 1 45t-2 44q-1 2 -1 3t-2 3q-10 16 -27 30t-37 23.5t-41.5 13t-39.5 -2.5q-61 -21 -87 -83z" />
<glyph unicode="&#xe2f;" horiz-adv-x="797" d="M55 718q-4 45 17 88.5t64 82.5q14 11 30.5 10.5t28.5 -13.5q11 -13 10 -30t-14 -28q-29 -26 -42.5 -52.5t-11.5 -49.5q2 -22 14 -35.5t25 -21.5q99 -61 234 25q30 19 58 42.5t52.5 47.5t45 46.5t36.5 40.5l21 24q9 10 21.5 12.5t24.5 -2.5t19 -16t6 -24q0 -12 0.5 -33.5 t2 -48.5t4 -58t4.5 -62q2 -32 4.5 -62.5t4 -57t2 -47.5t0.5 -34q-2 -44 -7 -97t-18 -110t-35.5 -116t-58.5 -114q-10 -14 -26.5 -17.5t-30.5 6.5q-9 5 -13.5 14t-4.5 20t6 22q49 75 75 171t31 225v9q0 13 -1 33t-2.5 44t-3.5 51l-4 54q-2 29 -3.5 56t-3.5 52 q-32 -35 -73 -72t-89 -68q-77 -50 -152 -61q-90 -14 -169 35q-35 22 -55 52.5t-23 66.5z" />
<glyph unicode="&#xe30;" horiz-adv-x="570" d="M80 147q-3 25 0 50t13 46q13 26 36 43t53 20q29 3 54.5 -8t43.5 -34q13 -17 17 -38.5t1.5 -44t-11.5 -43t-22 -35.5q-11 -12 -27.5 -22t-38.5 -13q28 -9 55.5 -3t41.5 13q47 20 71 53.5t41 80.5q4 11 14.5 16t21.5 1t16.5 -15t1.5 -22q-9 -24 -20 -48t-27.5 -46 t-40 -40.5t-55.5 -32.5q-61 -26 -115 -17.5t-89 50.5q-15 18 -23.5 41t-11.5 48zM96 666q-5 12 2 24q5 105 74 135q20 9 43.5 11.5t46 -2t42.5 -15.5t32 -29q14 -20 17.5 -43.5t-4.5 -47.5q-9 -28 -30.5 -49.5t-49.5 -31.5q-23 -8 -48.5 -8t-51.5 8l-5 1q-1 1 -3 1 q3 -8 7 -14.5t12 -11.5q18 -15 48.5 -21.5t62.5 -1.5q57 8 92 48t35 96q0 12 8.5 20.5t20.5 8.5t20.5 -8.5t8.5 -20.5q0 -38 -13.5 -72.5t-37 -61t-56 -44.5t-70.5 -23q-17 -2 -37.5 -2t-41 4t-40.5 12t-36 21q-41 32 -46 84q-1 8 -0.5 15t0.5 15q0 1 -2 3zM136.5 180.5 q-1.5 -21.5 3.5 -41.5q1 0 1 -1q35 -18 52.5 -13t28.5 17q7 7 12 19t7 24.5t0.5 24t-7.5 19.5q-17 23 -46 20q-14 -2 -25.5 -10t-16.5 -20q-8 -17 -9.5 -38.5zM154 685q6 -4 14 -6.5t13 -4.5l5 -1q33 -11 64 -1q15 5 27 17.5t17 28.5q8 21 -5 40q-6 9 -17 14t-24.5 6.5 t-27.5 0t-25 -6.5q-22 -10 -30.5 -34t-10.5 -53z" />
<glyph unicode="&#xe31;" d="M-353 1111q2 40 27 64.5t66 27.5q25 2 52 -5t50.5 -21.5t40.5 -35t22 -45.5q6 -33 -13 -63h26q49 1 88.5 10t74 26.5t65.5 45t61 66.5q4 6 9 10.5t9 7.5v1q11 9 24 8t21 -11q9 -10 8 -23t-11 -22q-2 -2 -5 -4.5t-5 -4.5q-34 -45 -70 -77t-77 -53t-88 -31.5t-102 -11.5 q-34 -1 -69 0.5t-67 7t-59.5 17t-46.5 31.5q-34 36 -31 85zM-289 1108q-1 -24 13 -38q10 -10 25.5 -16.5t33.5 -10.5q6 2 9 2q14 0 26.5 5.5t19.5 13.5t4 20q-2 11 -11.5 21.5t-23.5 18.5t-30.5 12.5t-31.5 3.5q-22 -2 -28 -11.5t-6 -20.5z" />
<glyph unicode="&#xe32;" horiz-adv-x="545" d="M68 639q9 27 26.5 60t41.5 62.5t53.5 51t61.5 26.5q12 1 27 0t31 -8t32.5 -20.5t32.5 -37.5q26 -39 33.5 -84.5t10.5 -88.5q2 -14 2.5 -26.5t2.5 -23.5q13 -98 14 -196.5t0 -195.5l-1 -111q0 -14 -10 -24.5t-25 -10.5q-14 0 -24 10.5t-10 24.5l1 112q1 95 0 191t-14 191 q-2 13 -2.5 26.5t-2.5 27.5q-2 38 -7.5 74.5t-25.5 65.5t-35 32.5t-20 2.5q-19 -3 -39 -19t-37 -38.5t-30.5 -48t-20.5 -46.5q-5 -14 -17 -20.5t-26 -2.5q-14 5 -21 17.5t-2 26.5z" />
<glyph unicode="&#xe33;" horiz-adv-x="503" d="M-301.5 1030q-4.5 28 4.5 61q7 26 21.5 51t35.5 43t47 27.5t56 5.5q20 -2 41.5 -12t38.5 -24q26 -21 41 -55.5t16 -75.5q2 -42 -18 -74q-26 -45 -66.5 -62t-90.5 -3q-4 1 -14 4t-22.5 8.5t-26 13t-25.5 17.5q-4 3 -7 6.5t-6 6.5q-3 4 -7 12q-14 22 -18.5 50z M-241.5 1051.5q-1.5 -15.5 4.5 -31.5q2 -2 6 -8q5 -11 27 -22.5t45 -17.5q57 -17 88 36q10 19 9 41q0 21 -8 45.5t-26 39.5q-11 8 -24.5 14.5t-24.5 8.5q-16 2 -31 -4t-27 -18t-21.5 -27.5t-13.5 -32.5q-2 -8 -3.5 -23.5zM12 655q9 27 26.5 60t41.5 62.5t53.5 51t61.5 26.5 q12 1 27 0t31 -8t32.5 -20.5t32.5 -37.5q26 -39 33.5 -84.5t11.5 -88.5q1 -14 1.5 -26.5t2.5 -23.5q13 -98 14.5 -196.5t-0.5 -195.5l-1 -111q0 -14 -10 -24.5t-24 -10.5q-15 0 -25 10.5t-10 24.5l1 112q1 95 0 191t-14 191q-2 13 -2.5 26.5t-2.5 27.5q-2 38 -7.5 74.5 t-25.5 65.5t-35 32.5t-20 2.5q-19 -3 -38.5 -19t-37 -38.5t-31 -48t-20.5 -46.5q-5 -14 -17 -20.5t-26 -2.5q-14 5 -21 17.5t-2 26.5z" />
<glyph unicode="&#xe34;" d="M-603 1112q0 17 8.5 34t21.5 33.5t29.5 31.5t33.5 29q46 38 103 53.5t113 4.5q51 -10 92 -40t67 -77q14 -28 24.5 -60.5t13.5 -62.5q2 -14 -6.5 -23.5t-21.5 -11.5h-4q2 -11 3 -22t1 -24t-9 -22.5t-23 -9.5q-13 0 -22 9.5t-9 22.5q0 60 -25 87t-85 33q-32 3 -62.5 -3 t-63.5 -14q-10 -2 -20 -5t-21 -5q-3 0 -11 -2q-36 -10 -62.5 -13t-43.5 11q-11 8 -16 20t-5 26zM-537 1119q11 2 24.5 5t19.5 5q5 1 8.5 2t6.5 1q10 2 19.5 5t19.5 5q35 8 71.5 15t75.5 3q74 -7 116 -46q-7 22 -15 37q-39 69 -115 85q-42 8 -85.5 -4t-78.5 -42 q-35 -29 -49 -46t-18 -25z" />
<glyph unicode="&#xe35;" d="M-630 1146q-2 12 1 28q2 14 9 32t24 41q13 20 29.5 36.5t34.5 30.5q48 36 93.5 39.5t85 -10.5t72.5 -38.5t57 -44.5q9 -8 20 -19.5t22 -26.5q0 10 0.5 19.5t0.5 19.5v5q-1 42 -1.5 87.5t-0.5 90.5q0 14 9 23t22 9q14 0 23 -9t9 -23q0 -45 0.5 -90t1.5 -87l1 -5 q0 -25 -1 -49.5t-2 -48.5q-2 -20 -3 -40t-1 -40v2v-3q0 -13 -9.5 -22t-22.5 -8q-13 0 -22 9t-9 22v2q1 12 -6.5 30.5t-19 37.5t-25.5 37t-27 29q-34 28 -63.5 47.5t-57 27.5t-54 2.5t-54.5 -26.5q-14 -11 -26.5 -24t-23.5 -27q-1 -2 -3.5 -7.5t-6.5 -13.5h20q45 1 91 -1.5 t94 -24.5q56 -25 98.5 -70t64.5 -102q5 -12 -0.5 -24t-18.5 -17q-12 -5 -24 1t-17 18q-17 45 -50.5 80.5t-78.5 55.5q-38 17 -77 19.5t-81 1.5q-34 -1 -70 0q-8 1 -15.5 5.5t-11.5 12.5z" />
<glyph unicode="&#xe36;" d="M-960.5 1058q3.5 25 16.5 50.5t32 50.5t39 46q38 41 83.5 63t95.5 26q33 2 71.5 -4t75.5 -20.5t70.5 -37.5t56.5 -55q5 -7 9.5 -15t9.5 -16q16 45 46 83.5t81 57.5q34 13 73.5 10t73.5 -22q30 -16 50 -40.5t28 -56.5q9 -36 0 -75t-35 -71q-26 -33 -61.5 -50.5 t-74.5 -17.5q-21 0 -46 5.5t-54 13.5q-8 -9 -19.5 -11t-21.5 5q-11 7 -19.5 16t-16.5 19q-10 5 -14 12q-1 0 -1.5 0.5t-1.5 0.5q-12 8 -23.5 15t-22.5 10q-48 16 -109.5 21t-123.5 -0.5t-118.5 -23t-93.5 -46.5q-12 -10 -26 -7q-13 3 -22 17q-11 22 -7.5 47zM-883 1087 q46 22 100.5 34t111.5 15t112.5 -2.5t102.5 -18.5q-8 14 -16 25q-18 24 -44 42t-56 29t-61 16t-57 3q-48 -3 -82 -25t-54 -44q-40 -41 -57 -74zM-353 1063q5 -3 9.5 -5.5t9.5 -4.5q73 -25 114 -25q24 0 46.5 11t39.5 32t23 45.5t0 47.5q-5 22 -19 35t-27 20q-22 12 -47.5 14 t-47.5 -6q-24 -9 -42 -26t-30.5 -39.5t-19.5 -48t-9 -50.5z" />
<glyph unicode="&#xe37;" d="M-829 1061q-11 20 5 38q8 8 15 15.5t14 15.5q20 22 40.5 43t46.5 39q45 32 96 43.5t103.5 5.5t103.5 -26.5t96 -51.5q-1 8 -1.5 16.5t-1.5 17.5q-4 40 -7.5 81.5t-3.5 85.5q0 13 9 22t23 9t23 -9t9 -22q0 -42 3 -82t7 -79q2 -24 4 -49l4 -50q4 -5 8 -8.5t8 -8.5 q13 -17 20 -30q5 -10 10 -15q6 -4 9 -7q5 31 7 76.5t1.5 92t-4 87.5t-9.5 64q-4 13 2.5 24t19.5 15q13 3 24 -3.5t15 -19.5q5 -17 8.5 -50t5.5 -74.5t2 -87t-3.5 -86.5t-11.5 -73.5t-21 -47.5q-11 -14 -31 -11q-19 5 -24 24q0 2 -2.5 5t-5.5 6q-4 1 -12 5q-3 2 -5.5 5 t-4.5 5q-6 4 -14 7t-17 7q-1 0 -2 -0.5t-2 -0.5q-11 0 -21 8q-4 2 -7 2.5t-8 2.5q-120 29 -244 31t-245 -23q-23 -3 -34 16zM-717 1121q103 12 206 7.5t203 -27.5q-38 34 -84 59t-94.5 35t-96 2.5t-88.5 -36.5q-13 -9 -24 -19t-22 -21z" />
<glyph unicode="&#xe38;" d="M-400 -226q1 22 7.5 45t17 42.5t26 34.5t35.5 21q43 13 72.5 5.5t46.5 -20.5q32 -24 50 -68.5t26 -100t8.5 -119t-1.5 -125.5q-1 -14 -1 -26v-21q0 -13 -9.5 -22.5t-22.5 -9.5q-14 0 -23 9.5t-9 22.5v22.5t1 26.5q1 24 1.5 55.5t0 65.5t-3 69t-8.5 66q-9 -29 -24.5 -56 t-39.5 -43q-15 -9 -38.5 -13t-55.5 11q-30 14 -45 48t-11 80zM-337 -231q-2 -24 4 -42.5t17 -23.5q13 -6 20 -5t12 4q11 7 20 23t15.5 35.5t10 40.5t3.5 38q0 5 2 11v1q-8 6 -22 9.5t-40 -4.5q-13 -4 -26.5 -28.5t-15.5 -58.5z" />
<glyph unicode="&#xe39;" d="M-566 -224.5q1 22.5 9.5 45t22.5 43t34 36.5q32 26 68 30.5t68 -13.5q32 -19 51 -46.5t29 -58.5t14 -64t6 -63l2 -26l1 -5q1 -10 2.5 -27.5t5 -35t8.5 -32t12 -17.5q2 -1 11 2t26 16q15 11 22 36t8.5 56.5t-1 67.5t-7 70t-10 63t-8.5 47l-4 24q-2 14 5 24.5t20 12.5 t24 -5t13 -21l5 -23q12 -65 20.5 -127.5t7.5 -116t-13.5 -95t-42.5 -64.5q-59 -44 -102 -24q-20 9 -32 27t-18.5 41t-9.5 48t-5 48l-1 5l-2 26q-2 32 -6 63t-14 57q-3 -4 -5.5 -8t-6.5 -8q-14 -21 -30 -43t-33.5 -39.5t-36.5 -28t-40 -7.5q-42 6 -62 68q-6 19 -5 41.5z M-502.5 -224q-1.5 -13 1.5 -23q4 -12 7 -17t5 -6q7 1 18 12t22.5 25.5t22 29t15.5 22.5q8 11 14 20t11 15q-2 2 -4.5 4t-5.5 4q-19 11 -35.5 5t-28.5 -16q-12 -9 -21 -22t-14.5 -26.5t-7 -26.5z" />
<glyph unicode="&#xe3a;" d="M-184 -130q0 21 15 36t36 15h25q21 0 36 -15t15 -36q0 -22 -15 -37t-36 -15h-25q-21 0 -36 15t-15 37z" />
<glyph unicode="&#xe3b;" />
<glyph unicode="&#xe3c;" />
<glyph unicode="&#xe3d;" />
<glyph unicode="&#xe3e;" />
<glyph unicode="&#xe3f;" horiz-adv-x="728" d="M78 1056q0 16 1 23q3 18 10.5 31t16.5 23.5t18.5 18.5t18.5 14q4 3 10 7q41 30 88 33q2 6 4 11.5t4 10.5q6 16 21.5 23t31.5 1t23 -21.5t1 -31.5q-1 -2 -1.5 -4t-1.5 -4q24 -11 45.5 -29.5t39 -42t29.5 -51t17 -55.5q11 -66 -1.5 -129t-44.5 -119q80 -5 141.5 -54.5 t94.5 -137.5q23 -60 23.5 -128t-15.5 -134t-44.5 -126t-63.5 -105q-32 -40 -88 -61.5t-122 -17.5q-5 0 -9.5 0.5t-8.5 0.5v-76q0 -17 -12 -29t-29 -12t-29 12t-12 29v96q-63 26 -95 76q-6 11 -7 19q-4 8 -4 20q0 68 -2.5 135.5t-5.5 134.5l-2 68q-1 12 -2.5 35.5t-4 54.5 t-5 67.5t-5.5 74.5q-9 115 -14 185t-7 109t-2 55zM159 1064q0 -9 2 -47t6 -89t8 -108t8 -105q2 -25 3 -48t3 -46q9 15 20 30.5t25 32.5v10q0 31 -2 66t-4 73q-5 69 -8 140t4 137q-8 -2 -14 -5.5t-12 -8.5q-2 -2 -5 -3.5t-5 -3.5q-26 -19 -29 -25zM200 467l2 -56 q2 -65 4.5 -131.5t3.5 -132.5q10 -14 24 -22v397q-5 -8 -8 -16l-6 -16q-6 -17 -20 -23zM302 971.5q3 -67.5 8 -132.5q1 -16 1.5 -31t1.5 -30q5 6 9.5 12.5t9.5 13.5q29 42 39 92t2 102q-5 29 -24 57t-44 44q-6 -60 -3 -127.5zM316 94q5 -1 10.5 -1.5t11.5 -0.5 q46 -2 86 11.5t59 37.5q28 36 51.5 85.5t37 103.5t14 108.5t-16.5 99.5q-27 72 -80 107.5t-122 27.5q-10 -2 -21.5 -7.5t-22.5 -13.5q-3 -3 -7 -9v-549z" />
<glyph unicode="&#xe40;" horiz-adv-x="412" d="M106 660q-1 83 1 150q0 13 9 21.5t22 8.5q12 -1 20.5 -10t8.5 -21q-2 -50 -1 -107t3 -115.5t6 -117.5t10 -113q2 -11 12 -11q78 -7 124 -58q15 -16 25 -43t14.5 -58.5t1 -63t-15.5 -55.5q-29 -57 -93 -49q-33 4 -57 46t-40.5 108t-27 149t-16 169.5t-6.5 169.5zM210 268 q11 -71 24 -118.5t30 -58.5h-2l2 -1h1l-1 1q12 -1 17 9q7 13 8.5 33.5t-1 41.5t-8.5 38t-13 25q-21 22 -57 30z" />
<glyph unicode="&#xe41;" horiz-adv-x="660" d="M114 654.5q-1 83.5 1 150.5q1 13 9.5 21.5t21.5 7.5q12 0 21 -9t8 -22q-2 -50 -1 -106.5t3 -115t6.5 -117.5t10.5 -113q0 -10 11 -12q77 -7 124 -57q15 -16 25 -43.5t14.5 -59t1 -63t-15.5 -55.5q-14 -27 -38 -40t-55 -8q-33 4 -57 46t-40.5 107.5t-27 148.5t-16 169.5 t-6.5 170zM218 262q11 -71 24 -118.5t30 -58.5q7 0 10.5 1.5t6.5 8.5q7 13 8.5 33.5t-1 41t-8.5 37.5t-13 25q-21 22 -57 30zM361 654.5q-1 83.5 1 150.5q0 13 9 21.5t22 7.5q12 0 20.5 -9t8.5 -22q-2 -50 -1 -106.5t3 -115t6 -117.5t10 -113q1 -10 12 -12q77 -7 124 -57 q15 -16 25 -43.5t14.5 -59t1 -63t-15.5 -55.5q-14 -27 -38 -40t-55 -8q-33 4 -57 46t-41 107.5t-27 148.5t-15.5 169.5t-6.5 170zM465 262q11 -71 24 -118.5t30 -58.5q6 0 10 1.5t7 8.5q7 13 8.5 33.5t-1.5 41t-8.5 37.5t-12.5 25q-11 12 -25.5 19t-31.5 11z" />
<glyph unicode="&#xe42;" horiz-adv-x="413" d="M-26 1223q5 14 10 21q9 9 20.5 14t25 6t27.5 0t26 -4q17 -5 32.5 -13t29.5 -17q13 -8 25 -14t21 -6q14 0 22.5 7t10.5 15l2 11q6 26 10 48.5t0 48.5q-2 13 5.5 23.5t20.5 12.5t23.5 -5.5t12.5 -21.5q5 -35 1 -63.5t-11 -56.5l-3 -11q-7 -31 -33.5 -51t-59.5 -21 q-23 0 -43 10t-37 21q-11 7 -22 12.5t-20 7.5q-8 2 -13.5 2.5t-10.5 0.5q-8 6 -9 9q-1 1 -1 2q0 -3 -2 -6.5t-5 -4.5q2 0 6 0.5t11 -0.5l8 -6t7 -5q8 -5 14.5 -10t12.5 -10q24 -25 34.5 -61.5t16.5 -68.5l2 -12t2 -11q21 -99 34 -198t24 -197l8 -69q5 -41 8 -81.5t7 -81.5 l3 -39q2 -21 2.5 -42t1.5 -42v-22q-33 3 -63 -11v15.5t-1 15.5q0 42 -3 80l-4 40q-3 40 -6.5 80.5t-8.5 80.5l-7 69q-11 97 -23.5 194.5t-33.5 193.5q-2 6 -2.5 12.5t-2.5 13.5q-5 26 -12 54t-21 42q-3 2 -8 5.5t-10 6.5q-14 10 -28 21.5t-20 28.5q-8 23 -3 37zM29 1200 q3 1 5 4.5t2 6.5l1 -2v-1v1q1 -3 9 -9q-7 1 -11 0.5t-6 -0.5zM37 1208v1v-1zM140 203q1 13 12 21q4 3 8 5l8 4q1 -17 1.5 -32.5t2.5 -32.5q-7 0 -13.5 2.5t-11.5 8.5q-8 11 -7 24zM168 233q30 14 63 11q1 -17 1.5 -33t2.5 -32q-13 2 -24.5 1.5t-19.5 -6.5t-19 -6 q-2 17 -2.5 32.5t-1.5 32.5zM172 168q11 0 19 6t19.5 6.5t24.5 -1.5q2 -26 7 -50t14 -47l1.5 -3l1.5 -3q-6 -9 -8 -11q3 2 7.5 1.5t6.5 -2.5q-1 1 -2 3l-2 4t-2 5q4 7 7.5 16.5t6.5 19.5t4.5 20t0.5 17q-3 17 -29 27q-4 2 -7 2t-7 1q-2 16 -2.5 32t-1.5 33q21 -2 42 -9 q29 -11 46.5 -31.5t20.5 -45.5q3 -17 -1 -41t-13 -47t-23 -41.5t-33 -23.5q-7 -2 -16 -2t-19 5.5t-20 17t-18 33.5q-11 26 -16.5 53.5t-8.5 55.5zM251 65q2 2 8 11q1 -3 2 -5l2 -4t2 -3q-2 2 -6.5 2.5t-7.5 -1.5z" />
<glyph unicode="&#xe43;" horiz-adv-x="697" d="M-61 1076q-11 57 3 117q15 63 53 111t91 71q73 31 137 -10q40 -25 73 -76.5t59.5 -120t47.5 -150.5t36.5 -168t27 -172.5t19.5 -164.5t13 -143t7 -108q26 9 45.5 3.5t28.5 -11.5q20 -12 33.5 -33t20.5 -45.5t7.5 -50.5t-5.5 -48q-10 -35 -34 -54.5t-58 -20.5 q-35 0 -60 23q-14 13 -21.5 32t-11.5 39t-4.5 40.5t-0.5 37.5v9t-1 8q-2 42 -5.5 101.5t-9.5 129.5t-15 147.5t-21 156t-27 155.5t-33 146q-2 -20 -7 -40.5t-13.5 -38.5t-20 -32.5t-24.5 -23.5q-41 -26 -83 -25t-80 17.5t-69.5 43t-51.5 50.5q-35 41 -46 98zM-2 1143.5 q-1 -17.5 1 -34.5q3 3 5 7q2 2 3 3.5t3 3.5q27 36 70 54t94 13q42 -4 75.5 -22.5t56.5 -47.5q-24 69 -53 119t-64 72q-37 24 -78 6q-38 -17 -67 -54t-40 -85q-5 -17 -6 -34.5zM33 1018q15 -17 38 -37t50.5 -33.5t57 -16.5t56.5 14q9 6 17 21.5t13 34t6 36t-4 27.5 q-13 26 -39 43t-60 20q-33 3 -61.5 -8t-45.5 -34q-2 -2 -3.5 -4t-3.5 -4q-8 -11 -9.5 -14t0.5 -11q2 -10 -1.5 -18.5t-10.5 -13.5v-2zM509 174q0 -11 0.5 -26t2.5 -30t5.5 -28t10.5 -19q2 -2 5 -4t10 -2q5 1 15.5 4.5t16.5 25.5q4 14 3.5 30t-4.5 31t-11 26.5t-16 17.5 q-3 2 -12 3t-26 -11v-18z" />
<glyph unicode="&#xe44;" horiz-adv-x="691" d="M-209.5 1043.5q-4.5 12.5 0.5 24.5q92 207 322 109q43 -18 77 -38t65 -57q5 -6 11 -14q5 -7 11 -15.5t14 -18.5q10 81 17 166.5t9 172.5q0 14 9.5 23t22.5 9t22 -9t10 -23q1 -89 9 -177t18 -176q11 -94 20 -189t9 -192q0 -87 3 -174t17 -175h8q24 0 47 -1.5t43 -10 t36.5 -27.5t27.5 -54q3 -12 7 -33.5t3.5 -46t-6.5 -48.5t-22 -41q-9 -9 -28.5 -18.5t-53.5 -1.5q-26 6 -44 26t-30 45.5t-19 53t-12 49.5q-2 5 -2.5 10t-2.5 10q-27 109 -31.5 221.5t-4.5 215.5q0 87 -7.5 173.5t-17.5 172.5q-2 -13 -3 -25.5t-3 -24.5q-2 -13 -12 -21 t-23 -6q-11 2 -18 8.5t-9 15.5q-2 6 -12 21t-22 32.5t-23 33.5t-17 23q-12 15 -24.5 25.5t-27 19.5t-31 16.5t-35.5 15.5q-91 38 -147.5 20t-91.5 -97q-5 -12 -17.5 -16.5t-24.5 0.5t-16.5 17.5zM469 227q1 -3 1 -5.5t1 -4.5q2 -5 2.5 -10.5t2.5 -10.5q3 -15 8 -35.5t12 -40 t17 -34t22 -17.5q11 -2 14.5 -0.5t5.5 3.5q6 6 8.5 18t2.5 27.5t-2 31.5t-6 29q-6 18 -12 28t-16 14.5t-24.5 5.5t-36.5 1z" />
<glyph unicode="&#xe45;" horiz-adv-x="576" d="M84 654q9 27 26.5 60t41.5 62.5t53.5 50.5t61.5 26q25 4 58 -7t65 -58q27 -39 34 -85t11 -88q1 -14 1.5 -26.5t2.5 -24.5q4 -32 7 -83.5t4.5 -112.5t2.5 -126.5t1 -126.5t-0.5 -112.5t-0.5 -83.5l-1 -111q0 -14 -10 -24.5t-24 -10.5t-24.5 10.5t-10.5 24.5l1 112 q0 31 0.5 82t0.5 111t-1 125t-2.5 125t-4 110.5t-6.5 81.5q-2 14 -3 27.5t-2 27.5q-3 38 -8.5 74.5t-24.5 64.5q-10 15 -19 22.5t-16.5 10.5t-12.5 3h-8q-19 -3 -38.5 -19t-37 -38.5t-31 -48t-20.5 -46.5q-5 -14 -17 -21t-26 -2t-21 17.5t-2 26.5z" />
<glyph unicode="&#xe46;" horiz-adv-x="555" d="M46 474v7q0 57 36 93q15 15 35 24q2 11 11 18t21 6q20 -2 35 -12q14 -1 24 -13q10 -14 25 -17q17 -2 38.5 8t43.5 29q12 10 27 6q16 -3 21 -18q21 -56 24 -106.5t1 -100.5q0 -11 -0.5 -22t-0.5 -22v-21h24.5t23.5 -1q11 0 22 -0.5t21 -0.5q14 0 22.5 -8.5t8.5 -21.5 t-8.5 -22t-22.5 -9h-22t-22 1h-47q0 -12 -0.5 -24.5t-0.5 -24.5h33l43 -1q13 0 22 -9t9 -22t-9 -22t-22 -9l-43 1h-17.5t-16.5 1q-1 -40 -2 -79t-2 -77q-2 -86 -4.5 -173t-2.5 -174q0 -13 -9 -22t-22 -9t-21.5 9t-8.5 22q0 88 2 175t5 174q1 38 1.5 76t2.5 76q-26 -2 -51 -7 t-49 -15q-12 -5 -23.5 0t-16.5 17t0 23.5t17 16.5q31 13 61.5 18.5t62.5 7.5v49q-28 -3 -53 -10t-48 -21q-11 -7 -23 -4.5t-19 13.5t-4 23.5t14 19.5q31 19 65 28t69 13v23v45q1 11 1 21.5v21.5q0 26 -2 51t-8 51q-19 -11 -42 -19.5t-48 -5.5q-5 1 -9 1.5t-8 2.5 q-2 -20 -7.5 -36t-10.5 -26q-8 -13 -19 -24.5t-24 -19.5t-27.5 -11.5t-29.5 0.5q-5 1 -12.5 4.5t-14.5 11t-12.5 20t-6.5 32.5zM108 476q0 -4 0.5 -6t0.5 -4q6 2 14.5 8.5t15.5 17.5q5 8 8 23.5t3 27.5v1q-14 -3 -25 -14q-17 -17 -17 -49v-5z" />
<glyph unicode="&#xe47;" d="M-552.5 1177.5q3.5 61.5 19.5 133.5l5 21q5 24 12 51t18 53t27.5 48.5t42.5 37.5q17 10 34.5 13t34 1.5t32.5 -6t30 -8.5q32 -11 48.5 -12.5t29.5 11.5q5 5 12 16.5t14 25t13 27t9 24.5q3 10 7 23.5t7.5 27.5l6.5 26t5 19q5 12 16.5 18t23.5 1q13 -4 19 -16t1 -24 q-1 -3 -3.5 -13.5t-6 -24.5t-7.5 -29t-8 -27q-3 -11 -10 -27t-15.5 -33.5t-18.5 -33t-20 -25.5q-18 -17 -36.5 -23.5t-37 -6t-36.5 5t-33 9.5q-27 9 -45.5 12t-33.5 -6q-17 -9 -28 -26t-19 -37t-13.5 -42t-9.5 -43l-5 -22q-14 -66 -18 -121.5t3 -106.5q12 16 20 32 q13 23 29.5 47.5t38 41.5t49 22.5t63.5 -9.5q29 -12 46 -31.5t30 -38.5q3 -5 6.5 -9t6.5 -8q2 11 2.5 25.5t-0.5 28.5q-1 6 -1.5 15t-1.5 19q-28 -8 -54.5 -6t-47.5 16q-26 16 -39.5 42.5t-15.5 61.5q-1 25 3.5 42.5t11.5 29t16 17t18 8.5q19 6 39.5 -0.5t39.5 -20t34 -30.5 t24 -33q20 -33 27 -74t10 -83q1 -13 1 -33.5t-3.5 -40.5t-12.5 -37t-25 -24q-11 -5 -28.5 -2t-37.5 28q-7 8 -13 16t-11 16q-12 17 -22 28.5t-27 19.5q-29 12 -49 -4.5t-51 -70.5q-17 -30 -36.5 -57.5t-47.5 -41.5q-11 -6 -23 -2.5t-18 14.5q-10 16 -11 30.5t-1 26.5v17 q-8 59 -4.5 120.5zM-291 1320q0 -13 5 -28t19 -24q11 -7 25.5 -6.5t31.5 5.5q-3 9 -6 17t-7 15q-8 12 -17 22.5t-18 17.5t-17 10.5t-12 3.5q-2 -2 -3.5 -9t-0.5 -24z" />
<glyph unicode="&#xe48;" d="M-203 1991q0 14 9 23t22 9q14 0 23 -9t9 -22q1 -56 5.5 -110t10.5 -108q6 -58 11 -117t5 -120q0 -14 -9 -23t-23 -9q-13 0 -22.5 9t-9.5 23q0 59 -5 116l-10 114q-6 55 -11 111t-5 113z" />
<glyph unicode="&#xe49;" d="M-390 1812q6 24 21.5 48t36.5 43t44.5 31t46.5 14q48 3 81 -30q8 -8 14.5 -19t11.5 -24q4 -9 5 -16q10 -30 13 -68.5t-2 -88.5q-3 -38 -13 -73.5t-24 -69.5q23 15 44.5 30t41.5 33q45 44 77.5 85t64.5 89q7 11 20 14t24 -5t13.5 -20.5t-4.5 -23.5q-33 -50 -68 -94 t-84 -91q-23 -23 -48.5 -40t-51.5 -34q-22 -14 -42.5 -27.5t-38.5 -29.5q-8 -8 -19 -8.5t-20 6.5q-9 6 -12.5 16.5t1.5 20.5q5 11 9.5 22.5t9.5 22.5q20 45 36.5 90t20.5 92q2 16 2 29v25q-16 -19 -34.5 -35t-40.5 -24q-49 -18 -91 6q-29 17 -41 44.5t-4 59.5zM-328 1798 q-6 -23 15 -35q17 -9 36 -2q13 5 25.5 16t23.5 24.5t20 28.5t14 28q-3 5 -6 9t-5 7q-11 11 -32 11q-11 -1 -25.5 -9t-28 -20.5t-24 -27.5t-13.5 -30z" />
<glyph unicode="&#xe4a;" d="M-356 1607v18q-1 29 1 62t7 66.5t13.5 65t20.5 58.5q19 41 40 54t38 13q17 1 40 -12t45 -55q8 -14 12.5 -29t7.5 -29l2 4l6 15q29 73 81 82q15 2 35 -3t43 -30q25 -28 37 -61t15.5 -67.5t1.5 -70.5t-5 -70q-2 -14 -3 -26.5t-2 -26.5q26 49 45.5 104.5t33.5 113t25 116 t21 114.5l11 62q2 13 12.5 20t23.5 5q14 -2 21 -12.5t5 -23.5l-10 -62q-12 -68 -26.5 -142.5t-35.5 -148t-52 -142t-76 -125.5q-5 -7 -14 -10t-18 -1q-20 5 -23 24q-9 39 -7.5 82t5.5 85q3 32 5 62.5t0 59t-10.5 53.5t-26.5 45q-13 14 -20 13q-5 -1 -14.5 -11t-18.5 -33 l-7 -15q-43 -101 -43 -117v1q0 1 -0.5 1.5t-0.5 1.5q3 -14 -4.5 -24.5t-20.5 -13.5q-13 -2 -24 5t-13 21q-4 17 -5 34.5t-3 34.5q-2 29 -5.5 55.5t-16.5 50.5q-11 20 -18 26t-9 7q-2 -1 -8 -7t-14 -23q-19 -41 -27.5 -94.5t-9.5 -101.5q24 -3 48 -9.5t44.5 -18t36 -28 t23.5 -39.5q10 -28 3 -62.5t-27 -59.5q-15 -18 -34.5 -25.5t-39.5 -4.5q-30 4 -52 30.5t-36 59t-21 64t-8 45.5zM-290 1590q3 -18 10 -38.5t15.5 -38t17.5 -30t17 -13.5q2 0 6 0.5t10 8.5q11 13 14.5 31t-0.5 29q-8 22 -33.5 34t-56.5 17z" />
<glyph unicode="&#xe4b;" d="M-413 1664q0 13 9 22.5t23 9.5h183q-4 39 -6 84.5t3 102.5q1 14 10.5 22.5t23.5 6.5q13 -1 21.5 -11t7.5 -23q-5 -56 -2.5 -99t6.5 -83h186q14 0 23 -9.5t9 -22.5q0 -14 -9 -23t-23 -9h-182q1 -10 2 -19t1 -19v-158q0 -13 -9.5 -22t-22.5 -9q-14 0 -23 9t-9 22v158 q0 9 -1 18.5t-2 19.5h-187q-14 0 -23 9t-9 23z" />
<glyph unicode="&#xe4c;" d="M-313.5 1514q-2.5 30 2 62t14.5 65.5t21 65.5q19 52 43.5 93t57 73.5t74.5 57t95 42.5q2 1 5.5 3t5.5 4h1q11 7 24 3.5t19 -14.5q7 -11 3.5 -24t-14.5 -20q-5 -2 -11 -5.5t-12 -5.5q-47 -17 -82.5 -37.5t-63 -47.5t-48.5 -62t-37 -81q-2 -5 -4 -11.5t-4 -14.5 q34 10 64 -7q22 -12 36 -34.5t20.5 -49t4.5 -54.5t-11 -51q-16 -38 -47.5 -54.5t-69.5 -5.5q-48 14 -71 56q-13 24 -15.5 54zM-250 1519q1 -17 8 -30q11 -18 32 -24q11 -3 22 0t19 23q6 14 6.5 31t-2.5 32.5t-9.5 28t-16.5 18.5q-9 5 -21 2q-10 -4 -19 -14t-14 -23 q-2 -6 -4 -8q-2 -19 -1 -36z" />
<glyph unicode="&#xe4d;" d="M-261 1103q1 38 25.5 72.5t61.5 48.5q32 12 62.5 4.5t53.5 -32.5q1 -1 1.5 -2t2.5 -2q2 -2 3 -2.5t2 -2.5q24 -23 34.5 -49t10.5 -49q0 -36 -19 -64q-10 -15 -25.5 -26.5t-35 -17.5t-43 -5t-49.5 12q-42 18 -64 47.5t-21 67.5zM-179 1102q0 -23 35 -38q17 -8 31.5 -6 t21.5 13q5 7 5 17q0 9 -4.5 19.5t-15.5 21.5q-4 4 -5 6q-3 1 -7 5q-11 13 -27 7q-14 -5 -23.5 -18.5t-10.5 -26.5z" />
<glyph unicode="&#xe4e;" d="M-382 1100q0 20 6.5 35.5t14.5 27.5q11 16 26 28t31 23q-40 62 -40 122v11.5t1 11.5q11 71 77 112q31 20 77 29.5t95.5 11.5t96.5 -3t80 -15q17 -5 25 -19.5t3 -31.5q-5 -16 -20 -24t-31 -3q-27 8 -67 12t-81 2q-45 -2 -80 -9t-54 -19q-36 -23 -40 -55q-3 -25 9 -56 t38 -60q13 -15 10 -33q-2 -18 -18 -28l-14 -10q-26 -17 -40 -28t-19 -19.5t-3.5 -16.5t6.5 -17q12 -20 32 -24q17 -4 39 2t43 20q14 10 31 6.5t26 -17.5q10 -14 6.5 -30.5t-17.5 -26.5q-35 -23 -74 -32.5t-73 -1.5q-53 12 -83 62q-11 17 -15 33t-4 30z" />
<glyph unicode="&#xe4f;" horiz-adv-x="800" d="M92 382q0 35 6 69.5t19 68.5q23 62 64 112t97 85q73 46 144 47.5t132 -41.5q42 -29 73.5 -76t49.5 -107q11 -34 16.5 -69t5.5 -70q0 -24 -2.5 -47.5t-7.5 -46.5q-21 -89 -78 -149q-64 -67 -163 -82l-1 -1q-8 -1 -16 -1.5t-17 -0.5v-5q-80 0 -141 27q-27 9 -51 23t-41 33 l2 2q-27 26 -47 59t-31 73q-13 45 -13 97zM153 382q0 -41 11 -80q15 -53 48 -91t81 -58q35 -12 74.5 -16.5t71.5 -0.5q50 9 84 30.5t55.5 48.5t33.5 55.5t17 50.5q5 20 6.5 39.5t1.5 39.5q0 41 -8.5 81.5t-23.5 76.5t-37 65.5t-49 49.5q-45 32 -98 30t-110 -38 q-41 -26 -70.5 -59.5t-49 -70.5t-29 -76.5t-9.5 -76.5zM260 395q0 8 1 13q3 26 18 54t40 52q53 51 111 56q42 4 77 -21q36 -28 52 -84q5 -14 7.5 -27t2.5 -27q0 -56 -39 -97q-29 -31 -70 -42t-81 0q-12 4 -28 11.5t-31 23.5q-60 28 -60 88zM559 465h1h-1z" />
<glyph unicode="&#xe50;" horiz-adv-x="842" d="M100.5 265.5q-24.5 116.5 33.5 255.5q0 5 1 8q17 72 76 120.5t147 62.5q51 7 101 1.5t93.5 -22.5t78 -44.5t55.5 -63.5q38 -66 46.5 -138t-6 -141t-47.5 -129t-78 -100q-41 -36 -86.5 -54t-93.5 -18.5t-96.5 16.5t-95.5 52q-104 78 -128.5 194.5zM161.5 346 q-2.5 -59 22 -115.5t87.5 -103.5q50 -38 94 -48.5t80 -5.5t64 21.5t46 32.5q37 34 64.5 84t39 107.5t5 117t-37.5 112.5q-18 30 -47 51t-64.5 32.5t-73.5 14t-72 -2.5q-82 -12 -128 -60q-1 -2 -1.5 -5t-2.5 -5q-29 -51 -51 -109.5t-24.5 -117.5z" />
<glyph unicode="&#xe51;" horiz-adv-x="867" d="M94.5 201q3.5 14 15.5 22q13 8 26.5 4t21.5 -16q13 -23 41.5 -46t62 -42t67.5 -30.5t59 -10.5q43 1 82.5 23.5t73.5 58.5t61.5 81t46.5 92q22 54 31.5 106.5t7 98.5t-17 83.5t-39.5 63.5q-32 31 -69 38.5t-65 4.5q-35 -3 -68.5 -17t-62.5 -35q18 -4 36 -11t33.5 -19 t28 -29.5t20.5 -42.5q11 -38 4 -76.5t-31 -67.5q-22 -27 -53.5 -40t-67.5 -10q-76 6 -108 71q-11 23 -14 49t0.5 51.5t12 50t20.5 44.5q0 11 6 19.5t16 11.5q40 50 99 82t122 38q56 5 104.5 -11t84.5 -52q40 -40 58 -92.5t19.5 -109.5t-11 -115.5t-32.5 -109.5t-51.5 -103.5 t-73 -95.5t-92.5 -71t-109 -29q-35 -1 -77.5 13t-84 37.5t-76.5 53t-53 59.5q-8 12 -4.5 26zM286.5 547q-4.5 -37 7.5 -62q13 -29 51 -32q24 -2 38.5 6.5t22.5 18.5q14 16 17.5 37.5t-2.5 43.5q-3 10 -9.5 20.5t-19 18t-32.5 12.5t-51 5q-18 -31 -22.5 -68z" />
<glyph unicode="&#xe52;" horiz-adv-x="982" d="M-152.5 937q-3.5 14 4.5 26t21.5 15.5t26.5 -4.5q39 -24 77 -82t72 -132.5t62.5 -156t50 -152.5t34 -121.5t13.5 -63.5q1 -4 1.5 -10.5t2.5 -14.5q5 -39 8 -69t5 -53q35 15 76 23.5t82.5 12t80 2.5t68.5 -5q44 -5 91.5 -21.5t104.5 -45.5q5 -2 8.5 -4.5t7.5 -4.5q0 1 2 5 q15 31 28.5 80.5t22.5 106.5t12 117t-3.5 113.5t-24 95.5t-49.5 63q-1 0 -2 1q-6 -2 -16.5 -15.5t-18.5 -23.5q-14 -19 -29.5 -35.5t-35.5 -24.5q-32 -11 -65.5 -7t-66.5 10q-4 0 -10 2q11 -9 20 -20q37 -45 28 -103q-5 -30 -26 -60t-48 -47q-42 -27 -82 -13q-19 5 -33.5 18 t-24.5 32q-11 21 -16 45t-6 48t2 45t8 36q13 43 37 63.5t52 27t57.5 2.5t54.5 -8q26 -5 51.5 -8.5t45.5 3.5q5 2 14.5 14t17.5 22q9 12 22 27.5t29 26t35.5 13t42.5 -12.5q43 -27 67.5 -77t34 -112t7.5 -130t-12 -132.5t-25.5 -120t-31.5 -91.5q-8 -18 -17.5 -32.5 t-26.5 -19.5q-16 -5 -28.5 0.5t-22.5 12.5q-4 2 -8 4.5t-9 5.5q-52 26 -94 40.5t-80 19.5q-36 5 -82.5 4.5t-91.5 -7t-84 -19.5t-60 -34q-11 -11 -25 -10.5t-24 10.5q-9 10 -9.5 23t7.5 23q8 28 -11 159q-2 9 -2.5 15.5t-1.5 11.5q-2 19 -15 70t-34 118t-48 142t-57 141.5 t-61.5 116.5t-60.5 68q-13 8 -16.5 22zM370.5 466q0.5 -17 3.5 -33.5t10 -28.5q5 -11 10 -13.5l7 -3.5q7 -2 13.5 0.5t11.5 5.5q17 11 28.5 28t13.5 31q4 27 -12 48q-11 14 -31.5 23t-44.5 11q-2 -6 -3 -10q-3 -11 -5 -26t-1.5 -32z" />
<glyph unicode="&#xe53;" horiz-adv-x="843" d="M79 186.5q-4 13.5 4 25.5q6 10 14 20q-9 63 -8 131.5t13 127.5q11 57 42 93t76 44q45 7 86.5 -17t71.5 -75q2 -4 5.5 -9t6.5 -10q2 -4 4.5 -7t4.5 -7q36 113 111 164q32 22 68 27.5t68 -7.5q32 -12 53.5 -38t30.5 -64q23 -95 21 -189.5t-10 -187.5q-4 -45 -7 -90.5 t-3 -90.5q0 -14 -10 -24t-24 -10q-15 0 -25 10t-10 24q0 48 3 94.5t7 92.5q8 93 10 180t-19 174q-11 43 -42 55q-32 12 -72 -13q-26 -18 -44 -44.5t-30.5 -58t-20 -64t-11.5 -62.5q-2 -14 -13.5 -22.5t-25.5 -6.5t-23 13.5t-7 25.5q1 7 -3.5 18.5t-11.5 24.5t-15 25.5 t-13 20.5q-3 6 -6.5 10.5t-5.5 9.5q-19 32 -42 47.5t-46 11.5q-22 -4 -38 -25.5t-23 -56.5q-9 -45 -11 -98t3 -104q23 8 49 7.5t52 -10.5q52 -19 79 -62t19 -97q-5 -32 -19.5 -56t-37.5 -38q-14 -9 -37.5 -14t-55.5 6q-23 8 -39 23t-26.5 33.5t-17 38t-11.5 36.5l-3 14l-2 4 q-8 0 -16 5q-13 8 -17 21.5zM173 205q2 -8 3.5 -15t3.5 -14l4 -15q7 -26 17.5 -51.5t30.5 -32.5q23 -8 36 1q19 11 25 46q5 34 -13 54.5t-41 28.5q-15 6 -33 6t-33 -8z" />
<glyph unicode="&#xe54;" horiz-adv-x="710" d="M72.5 158q0.5 29 6 59.5t11.5 57.5q8 34 11 57q11 94 38.5 160t72.5 109q22 21 46.5 33t49.5 19t50 9t49 4q25 1 47.5 3.5t43.5 7.5q31 8 52 24t36 38t25 49t21 57q10 28 20.5 56.5t26.5 55.5q7 12 20.5 16t26.5 -3q12 -8 16 -21.5t-3 -26.5q-13 -23 -22.5 -48t-18.5 -51 q-11 -32 -24 -64.5t-33.5 -61.5t-50 -52t-74.5 -35q-26 -7 -52 -9.5t-52 -4.5q-45 -2 -83 -9t-69 -36q-72 -69 -91 -227q-2 -14 -4.5 -30t-6.5 -33q-5 -21 -9.5 -44.5t-6 -46t1 -41.5t12.5 -31q11 -12 28 -11t49 10q8 2 16.5 4.5t17.5 4.5q54 10 101.5 4.5t90.5 -19.5l-2 2 q-6 11 -11.5 20.5t-10.5 18.5l-6 14q-13 26 -24.5 53t-19.5 57q-11 9 -11 25q0 9 3 15q-4 27 -7 61t2.5 67t23 59.5t55.5 37.5t75.5 2t63.5 -36q24 -24 32 -56t-3 -66q-14 -48 -55.5 -77.5t-104.5 -37.5q7 -19 15 -37t17 -37l7 -14q3 -7 8 -15.5t10 -17.5q14 -23 27.5 -49 t14.5 -52q0 -19 -16 -30q-17 -10 -34 -2q-24 11 -50.5 21.5t-55 17t-59.5 7.5t-63 -5q-7 -1 -13.5 -3t-14.5 -4q-16 -4 -35 -8.5t-38.5 -4t-39 8t-36.5 27.5q-18 21 -24.5 48.5t-6 56.5zM439 365q2 -23 5 -47q16 2 33 6t32 11.5t27 19.5t17 30q6 20 1 32.5t-13 20.5 q-13 14 -32 18t-39 -2q-14 -4 -21 -16.5t-9.5 -31t-0.5 -41.5z" />
<glyph unicode="&#xe55;" horiz-adv-x="909" d="M100.5 125.5q-3.5 58.5 6 119.5t32 124t57.5 123q29 50 63 85.5t71.5 61.5t77.5 45.5t82 37.5q30 13 60 27t61 31q-28 6 -47 25q-36 37 -25 99q3 18 13 37t24 35.5t31.5 29.5t35.5 20q53 20 97 -13q11 -8 20.5 -23.5t13.5 -38.5q23 29 39.5 57.5t24.5 50.5q4 14 16.5 21 t26.5 2t21 -17t2 -26q-7 -23 -23 -52.5t-38.5 -60.5t-50 -60t-56.5 -50q-19 -32 -41.5 -57t-43.5 -36q-35 -20 -67.5 -35t-64.5 -29q-41 -18 -78 -36t-69.5 -40.5t-61.5 -52.5t-54 -73q-57 -97 -77 -196.5t-2 -184.5q7 4 13.5 8t13.5 8q29 17 61.5 32.5t75.5 19.5 q80 9 178 -25q-5 31 -17.5 65.5t-26.5 69.5q-16 40 -31.5 84.5t-18.5 88.5t12 85t60 75q24 18 51 26.5t54.5 8t54 -10t49.5 -27.5q41 -33 51.5 -81t-12.5 -97q-17 -35 -48 -56.5t-73 -25.5q-57 -5 -110 22q5 -16 11.5 -32.5t13.5 -33.5l22 -56t18 -55.5t9.5 -54.5t-2.5 -53 q-3 -16 -18 -24t-30 -1q-106 48 -190 39q-32 -3 -57 -15t-52 -28q-17 -10 -34.5 -19.5t-37.5 -17.5q-15 -6 -28 1q-13 5 -18 20q-17 51 -20.5 109.5zM494 450q7 -4 12 -10q17 -23 48.5 -36.5t63.5 -10.5q16 2 34.5 10.5t29.5 31.5q9 19 9 35t-4.5 28t-12 20t-12.5 12 q-23 18 -57.5 21.5t-65.5 -19.5q-44 -33 -45 -82zM607 892q-5 -27 6 -38q7 -7 16.5 -7.5t15.5 1.5q18 3 38 16q8 17 14 33.5t8 31.5q2 16 -2.5 22t-6.5 8q-4 3 -10.5 5t-17.5 -3q-11 -4 -21.5 -12.5t-18.5 -18t-14 -20t-7 -18.5z" />
<glyph unicode="&#xe56;" horiz-adv-x="612" d="M-59.5 1005.5q4.5 13.5 17.5 20.5q14 6 27.5 1.5t19.5 -17.5q10 -20 21 -38t23 -38q23 -39 45.5 -80t33.5 -90q10 -44 10 -91q7 6 14 12.5t15 12.5q47 35 97 46.5t93 -5.5q60 -23 95 -73t51.5 -114.5t17.5 -135.5t-7 -135q3 -6 3 -14q0 -14 -9 -24q-12 -70 -29 -115 q-14 -38 -32 -60.5t-36 -34.5t-34 -16.5t-25 -4.5q-32 -2 -61 15t-46 48q-20 37 -14 80t36 81q17 22 38.5 35t45 19.5t48 8.5t48.5 2q6 57 4.5 116.5t-14.5 111.5t-38.5 91t-65.5 54q-26 10 -59 2t-65 -33t-53 -57.5t-26 -61.5v-25q0 -14 -9.5 -23.5t-23.5 -10.5t-24.5 8 t-11.5 23q-1 16 0 34q1 14 1.5 28t2.5 28q3 43 3.5 83t-7.5 79q-10 41 -29 77t-42 73l-24 40t-23 41q-7 13 -2.5 26.5zM300.5 148.5q-4.5 -22.5 5.5 -41.5q7 -13 18.5 -20t23.5 -6q19 1 36 20t30 52q6 17 11.5 37t10.5 42q-35 -1 -65.5 -8t-48.5 -31q-17 -22 -21.5 -44.5z " />
<glyph unicode="&#xe57;" horiz-adv-x="1025" d="M108 349q1 49 7 93t15.5 79.5t20.5 55.5q59 104 136 98q21 -2 39.5 -11.5t34 -23.5t28.5 -31t23 -35q9 19 21.5 39t28 37t33.5 30.5t39 19.5q20 5 49 2t63 -32q51 -44 64.5 -97.5t4 -110.5t-35 -115t-50.5 -111q-22 -43 -40.5 -83.5t-26.5 -75.5q45 6 84.5 30.5t73.5 60 t62 76.5t51 79q30 51 51.5 105t36 115t21 129t6.5 148q0 14 10 24.5t24 10.5t24.5 -10.5t10.5 -24.5q0 -85 -7 -158t-22 -137.5t-38.5 -123t-56.5 -113.5q-29 -48 -65.5 -99.5t-83 -94t-102.5 -68t-123 -20.5q-14 2 -23.5 12.5t-8.5 24.5q2 51 26 107t53 117 q30 61 51.5 112.5t29 95t-2.5 78.5t-43 64q-17 15 -29 16.5t-19 -0.5q-15 -4 -30.5 -19.5t-29.5 -37t-26 -47.5t-20 -52q-3 -11 -12 -17.5t-20 -6.5q-11 -1 -20.5 5.5t-13.5 16.5q-20 56 -48 92.5t-52 38.5q-11 1 -21.5 -5.5t-19.5 -16t-16.5 -21t-12.5 -20.5 q-8 -14 -14.5 -39t-11 -55.5t-6.5 -65.5t-1 -69q19 35 47.5 60t58.5 41q51 26 98 27.5t77 -22.5q7 -6 15 -15.5t13 -24t6 -35t-6 -47.5q-8 -28 -25 -59t-39.5 -59t-48.5 -51.5t-51 -36.5q-30 -15 -54.5 -18t-43.5 1.5t-32.5 13.5t-22.5 18q-23 24 -37 63t-20 84.5t-5 94.5z M201 186q7 -18 19 -31q3 -3 7.5 -6.5t13 -5.5t20.5 0t30 11q19 10 39.5 28.5t38.5 41t31.5 46.5t19.5 45q3 11 4 27t-9 24q-11 9 -38 7t-61 -20q-17 -9 -34 -22t-30 -30t-20.5 -37t-6.5 -43q2 -12 -5.5 -21.5t-18.5 -13.5z" />
<glyph unicode="&#xe58;" horiz-adv-x="873" d="M105 32q-9 155 6.5 277t54 208t99 134.5t142.5 57.5q31 3 60.5 -1t58.5 -9q33 -6 64.5 -9t60.5 5q24 7 48 26.5t45 45.5t37 56t23 57q4 14 16.5 21t26.5 3t21 -16t3 -26q-9 -35 -29 -72t-46.5 -70t-59 -57.5t-66.5 -34.5q-42 -11 -80 -7.5t-76 10.5q-26 5 -51 8t-49 1 q-55 -6 -94.5 -34t-67 -71.5t-44 -99t-25 -115t-11 -120.5t-0.5 -115q17 10 33.5 21t33.5 23q29 21 60.5 40.5t67 29t75.5 5t86 -32.5q14 -8 25 -19.5t21 -22.5q6 -7 14.5 -15.5t13.5 -11.5q3 1 11 11q14 20 27 48.5t21 57.5q-18 -3 -39.5 -4t-42.5 2.5t-39.5 13t-30.5 28.5 q-17 24 -21 55.5t4 65.5q10 42 34.5 76.5t56.5 52.5q40 22 66.5 19t41.5 -13q23 -15 34.5 -43t16 -62.5t3 -73.5t-4.5 -75q-2 -23 -8.5 -49t-16.5 -51.5t-22 -48.5t-25 -40q-28 -37 -62 -40q-27 -1 -46.5 15.5t-36.5 34.5q-8 9 -16 17t-15 13q-30 18 -55.5 22.5t-50.5 -2 t-50.5 -22.5t-56.5 -38q-30 -20 -61 -40t-68 -31q-15 -6 -30 4q-13 9 -15 27zM556 333q-1 -19 10 -36q8 -12 39 -13t68 8q4 50 2.5 81.5t-5.5 49.5t-9 25t-8 9q-5 3 -14 0.5t-22 -9.5q-19 -11 -35 -34.5t-22 -49.5q-3 -12 -4 -31z" />
<glyph unicode="&#xe59;" horiz-adv-x="867" d="M98 424q-3 50 9 97t50 86q41 42 101 44q41 0 81.5 -18.5t78.5 -45.5q-3 40 6 80.5t29.5 75t52.5 59.5t77 34q31 6 60.5 2.5t55.5 -15.5t49 -30.5t43 -41.5q5 42 13.5 94.5t19.5 115.5t19.5 118t8.5 84q0 14 10 24.5t24 10.5q15 0 25 -10.5t10 -24.5q0 -33 -8.5 -89 t-20.5 -125q-7 -41 -15 -89.5t-14 -93t-7.5 -79t3.5 -47.5q6 -14 1 -27t-18 -19q-14 -5 -27.5 0t-18.5 18q-3 8 -11 24t-20.5 35t-29.5 39t-38.5 34.5t-46.5 22t-54 1.5q-31 -6 -53 -24.5t-35.5 -44t-18 -55.5t-1.5 -59t16 -49.5t30 -43.5q8 -12 17 -24.5t17 -26.5 q57 -75 85.5 -155.5t25.5 -158.5q-1 -14 -10.5 -23t-22.5 -10q-14 -1 -24 7t-12 22q-10 60 -34 122.5t-49 120.5l-8 20q-2 4 -4 7.5t-4 7.5q-11 15 -24 30t-27 29q-59 58 -111 90t-90 31q-31 0 -53 -22q-20 -21 -29 -47t-10.5 -55t3.5 -60.5t13 -63.5q20 11 37.5 11t29.5 -4 q30 -11 48.5 -39t29.5 -58t15.5 -54t4.5 -26l1 -6q2 -15 3.5 -34.5t0 -39.5t-8.5 -38t-23 -29q-14 -11 -30.5 -12.5t-33.5 4.5q-20 8 -35.5 25.5t-27 37.5t-18.5 38.5t-9 29.5q-5 20 -11 42.5t-14 46.5q-14 46 -27.5 96t-16.5 100zM203 263q2 -4 2.5 -7.5t2.5 -7.5 q8 -26 14.5 -49.5t11.5 -44.5q2 -11 7.5 -24t12.5 -24.5t14 -20t13 -11.5q2 5 3 21t-4 53l-1 6q-2 21 -7.5 41t-13 37t-16 28t-15.5 14q-5 2 -12 -2t-12 -9z" />
<glyph unicode="&#xe5a;" horiz-adv-x="970" d="M67 718q-4 45 17 88.5t64 82.5q14 11 30.5 10.5t28.5 -13.5q11 -13 10 -30t-14 -28q-29 -26 -42.5 -52.5t-11.5 -49.5q2 -22 14 -35.5t25 -21.5q99 -61 234 25q30 19 58 42.5t52.5 47.5t45 46.5t36.5 40.5l21 24q9 10 21.5 12.5t24.5 -2.5t19 -16t6 -24q0 -12 0.5 -33.5 t2 -48.5t4 -58t4.5 -62q2 -32 4.5 -62.5t4 -57t2 -47.5t0.5 -34q-2 -44 -7 -97t-18 -110t-35.5 -116t-58.5 -114q-10 -14 -26.5 -17.5t-30.5 6.5q-9 5 -13.5 14t-4.5 20t6 22q49 75 75 171t31 225v9q0 13 -1 33t-2.5 44t-3.5 51l-4 54q-2 29 -3.5 56t-3.5 52 q-32 -35 -73 -72t-89 -68q-77 -50 -152 -61q-90 -14 -169 35q-35 22 -55 52.5t-23 66.5zM777 701q1 51 7.5 99t21.5 88q6 16 21.5 23t31.5 1t23 -21.5t1 -31.5q-13 -34 -18 -77t-6 -90t2 -96.5t6 -96.5q1 -20 2 -33t2 -24.5t1.5 -23t0.5 -27.5v-342q0 -17 -12 -29t-29 -12 t-29 12t-12 29v342q0 15 -0.5 26t-1.5 21.5t-2 23t-2 31.5q-3 51 -6 104t-2 104z" />
<glyph unicode="&#xe5b;" horiz-adv-x="1722" d="M104 1187q1 56 15.5 105t36.5 90t48.5 74.5t51.5 59.5q34 33 75 65t94 66q21 14 45 28t53 31q8 5 15.5 9.5t15.5 9.5q18 13 34 21q4 9 14 9h5q12 5 25.5 7t30.5 0q8 -2 11 -7q61 -1 126.5 -2t131.5 -5q14 -1 29 -1.5t29 -0.5l50 -2q113 -6 202 -31v155q0 16 16 16 q6 0 10.5 -4.5t4.5 -11.5v-164q26 -8 48.5 -17t44.5 -20v12l-2 266q0 16 16 16t16 -16l1 -266l1 -29q9 -6 18 -11.5t17 -11.5q0 27 2 53.5t11 47.5q2 6 8 8.5t12 -0.5q6 -2 8.5 -8t0.5 -12q-9 -21 -10 -52.5t0 -59.5v-2q10 -8 19.5 -17t18.5 -19l1 72q0 16 16 16 q6 0 10.5 -4.5t4.5 -11.5l-1 -109q20 -28 36.5 -58.5t27.5 -65.5q34 -100 23.5 -194t-52 -176t-107.5 -149t-142 -113q-96 -57 -201.5 -92.5t-214.5 -48.5q7 -9 16 -16q7 -6 13 -12.5t12 -13.5q11 -13 18.5 -26t15.5 -26q3 -5 5.5 -10t5.5 -10q8 -14 16 -25t18 -21 q1 -3 9 -12q5 -7 14 -18t13 -15q12 -3 10 -16q-1 -6 -5.5 -10.5t-11.5 -3.5q-39 4 -81.5 28.5t-74.5 62.5q2 -22 2.5 -41.5t0.5 -33.5q0 -83 31 -177q2 -5 5.5 -18.5t8.5 -31.5q4 -15 9.5 -34t11 -37.5t10 -33t6.5 -18.5q2 -6 2 -10q0 -6 -4.5 -10.5t-11.5 -4.5h-3 q-75 4 -127 51l-6 4q-17 14 -29 25t-20 19q-3 -4 -5.5 -7.5t-5.5 -6.5q-11 -16 -23.5 -32t-26.5 -31q-4 -4 -12 -10t-22 -17q-6 -4 -13 -9.5t-14 -10.5t-12.5 -9.5t-7.5 -7.5q-3 -10 -14 -10q-6 -1 -11 3.5t-5 11.5q-4 53 11.5 102.5t33.5 97.5l15 39q8 23 15 47.5t14 47.5 q7 27 15 54.5t18 54.5q-5 -6 -10 -11.5t-11 -11.5q-22 -20 -46 -37t-48 -33q-17 -11 -33.5 -22.5t-32.5 -24.5q-8 -6 -18 -1q-9 6 -7 18q3 11 9.5 17t11.5 11q2 2 4.5 4t4.5 4q5 7 10.5 15.5t10.5 16.5q3 5 5.5 8.5t5.5 8.5q19 29 36.5 56t35.5 53l14 19l26 38t30 36 q2 3 8 9l4 4l4 4q-56 2 -109.5 10t-104.5 24q-79 23 -157 70t-139 114.5t-98 154t-35 189.5zM135 1186q-2 -97 33 -178.5t93 -145t132 -107.5t149 -66q54 -17 111 -25t117 -9q1 1 4 1q1 0 1 -1q136 -1 272 36t256 109q73 43 135.5 106.5t102 140.5t50 165.5t-21.5 182.5 q-8 21 -16.5 40.5t-18.5 37.5l-2 -156q0 -16 -16 -16t-16 16l2 161l1 40q-9 11 -18 21t-19 20v-162q0 -6 -5 -10.5t-11 -4.5q-7 0 -11.5 4.5t-4.5 10.5v178v11q-9 8 -18 14l-18 12l1 -201q0 -6 -4.5 -10.5t-11.5 -4.5q-6 0 -10.5 4.5t-4.5 10.5l-2 220q-22 12 -45.5 22 t-47.5 18v-204q0 -7 -4.5 -11.5t-10.5 -4.5q-16 0 -16 16v213q-52 15 -103.5 22.5t-100.5 9.5l-49 2q-14 1 -29 1.5t-30 1.5q-83 5 -164 6t-153 1q-11 -5 -21 -11t-21 -14q-8 -5 -15.5 -10.5t-16.5 -10.5q-29 -16 -52.5 -30t-44.5 -28q-51 -32 -91 -63t-72 -63 q-24 -24 -49 -55.5t-46 -70t-34.5 -84.5t-14.5 -98zM147 1126.5q-1 8.5 3 19.5t16 26q15 19 38 29t49.5 13t54 2t53.5 -3q14 -1 26 -1.5t23 -0.5q6 0 10.5 -4.5t4.5 -11.5t-4.5 -11.5t-10.5 -4.5q-24 0 -51 3q-25 2 -52 3t-51 -3q7 -12 8 -22.5t-1.5 -18.5t-6.5 -13.5 t-7 -8.5q-9 -9 -21 -15t-25 -8t-25 -0.5t-20 9.5q-3 3 -6.5 8t-4.5 13.5zM178 1129q1 -1 6 -2.5t13 0.5q28 5 35 22q2 6 -1 13t-8 12q-20 -6 -32 -21q-9 -11 -11 -17t-2 -7zM612 384q21 14 41 28.5t38 31.5q22 21 37 46t31 52l11 21q6 10 18 8q10 -3 12 -15 q1 -29 -6.5 -49.5t-18.5 -43.5q-15 -32 -25.5 -66.5t-19.5 -69.5q-7 -24 -14 -49t-16 -49q-4 -10 -7.5 -20t-7.5 -20q-14 -37 -26.5 -74.5t-15.5 -75.5q9 7 26 20q9 6 18.5 13.5t11.5 9.5q13 14 24.5 28.5t23.5 31.5q6 8 12.5 16.5t13.5 17.5q4 5 10.5 5.5t11.5 -3.5 q6 -5 6 -14q2 -4 12.5 -14t38.5 -32q2 -2 3.5 -3t2.5 -2q38 -34 88 -41q-5 15 -12.5 40.5t-18.5 65.5q-5 17 -8.5 30t-5.5 18q-17 51 -24.5 96.5t-7.5 90.5q0 12 -0.5 30t-2 37.5t-4 40t-6.5 37.5q-2 6 -3.5 12t-3.5 13q-2 6 1.5 11t9.5 7q14 3 19 -10q2 -5 3.5 -11t3.5 -13 q15 -42 49 -75t72 -50q-6 8 -7 9q-10 11 -19 23.5t-18 27.5l-12 21q-7 12 -14 23.5t-16 22.5q-5 6 -11 12l-12 12q-8 8 -16 16.5t-16 18.5q-20 -2 -40.5 -3t-40.5 -1q-5 -9 -11.5 -16.5t-12.5 -13.5q-2 -2 -4 -3.5t-4 -3.5q-14 -16 -27 -34t-25 -36l-14 -20 q-17 -26 -34.5 -52.5t-37.5 -55.5q-1 -2 -1.5 -2.5t-1.5 -2.5zM631 954q5 25 20 48t37 36q15 9 36.5 14.5t44 5.5t44.5 -5.5t38 -17.5q39 -30 24 -82q-7 -23 -24 -42.5t-42 -30.5q-3 -2 -18.5 -6.5t-34.5 -8.5t-37.5 -6t-27.5 2q-6 2 -8.5 5t-4.5 6l-7 3q-6 2 -14.5 5.5 t-13.5 14.5v1q-16 25 -12 58zM663 949q-4 -24 10 -40q0 -1 1 -2l6 -2q5 -2 12 -4.5t12 -10.5q7 -1 21 1t28 5t26 6.5t16 5.5q19 9 32 23t18 31q9 31 -13 48q-12 9 -29 12.5t-35.5 3.5t-35.5 -3.5t-28 -10.5q-15 -10 -27 -28t-14 -35zM1065 1210q1 11 10 21t20 18.5t22 14 t18 7.5q3 1 6.5 1.5t6.5 1.5q4 3 11 3q32 6 63 5.5t57 -2.5q22 -2 41 -7.5t38 -11.5q15 -5 29.5 -9t29.5 -7q7 -1 11 -6t2 -12q-1 -6 -6 -10t-12 -3q-17 3 -32.5 7.5t-30.5 9.5q-19 6 -36.5 11t-35.5 7q-22 2 -47 2.5t-51 -3.5q4 -18 -0.5 -37.5t-15.5 -30.5 q-13 -13 -37 -16.5t-41 4.5q-25 14 -20 42zM1095 1205q0 -7 5 -8q8 -5 21.5 -2.5t19.5 8.5q5 5 7.5 17.5t0.5 21.5q-2 0 -2.5 -0.5t-2.5 -0.5q-6 -2 -14.5 -6.5t-16 -10t-12.5 -11t-6 -8.5z" />
<glyph unicode="&#x2000;" horiz-adv-x="1050" />
<glyph unicode="&#x2001;" horiz-adv-x="2100" />
</font>
</defs>
</svg>
